<svg width="30" height="30" viewBox="0 0 30 30" fill="none" xmlns="http://www.w3.org/2000/svg">
<path d="M7.3125 21.375C8.375 20.5625 9.5625 19.9217 10.875 19.4525C12.1875 18.9833 13.5625 18.7492 15 18.75C16.4375 18.75 17.8125 18.9846 19.125 19.4537C20.4375 19.9229 21.625 20.5633 22.6875 21.375C23.4167 20.5208 23.9846 19.5521 24.3913 18.4687C24.7979 17.3854 25.0008 16.2292 25 15C25 12.2292 24.0263 9.86958 22.0788 7.92125C20.1313 5.97292 17.7717 4.99917 15 5C12.2292 5 9.86958 5.97375 7.92125 7.92125C5.97292 9.86875 4.99917 12.2283 5 15C5 16.2292 5.20333 17.3854 5.61 18.4687C6.01667 19.5521 6.58417 20.5208 7.3125 21.375ZM15 16.25C13.7708 16.25 12.7342 15.8283 11.89 14.985C11.0458 14.1417 10.6242 13.105 10.625 11.875C10.625 10.6458 11.0467 9.60917 11.89 8.765C12.7333 7.92083 13.77 7.49917 15 7.5C16.2292 7.5 17.2658 7.92167 18.11 8.765C18.9542 9.60833 19.3758 10.645 19.375 11.875C19.375 13.1042 18.9533 14.1408 18.11 14.985C17.2667 15.8292 16.23 16.2508 15 16.25ZM15 27.5C13.2708 27.5 11.6458 27.1717 10.125 26.515C8.60417 25.8583 7.28125 24.9679 6.15625 23.8438C5.03125 22.7188 4.14083 21.3958 3.485 19.875C2.82917 18.3542 2.50083 16.7292 2.5 15C2.5 13.2708 2.82833 11.6458 3.485 10.125C4.14167 8.60417 5.03208 7.28125 6.15625 6.15625C7.28125 5.03125 8.60417 4.14083 10.125 3.485C11.6458 2.82917 13.2708 2.50083 15 2.5C16.7292 2.5 18.3542 2.82833 19.875 3.485C21.3958 4.14167 22.7188 5.03208 23.8438 6.15625C24.9688 7.28125 25.8596 8.60417 26.5162 10.125C27.1729 11.6458 27.5008 13.2708 27.5 15C27.5 16.7292 27.1717 18.3542 26.515 19.875C25.8583 21.3958 24.9679 22.7188 23.8438 23.8438C22.7188 24.9688 21.3958 25.8596 19.875 26.5162C18.3542 27.1729 16.7292 27.5008 15 27.5Z" fill="#B3B3B3"/>
</svg>
