<svg width="50" height="50" viewBox="0 0 50 50" fill="none" xmlns="http://www.w3.org/2000/svg">
<path d="M13.3939 5.02708C13.6566 4.7136 13.7859 4.30963 13.754 3.90189C13.7221 3.49416 13.5317 3.11517 13.2235 2.84628C12.9154 2.57739 12.5141 2.44004 12.1058 2.46372C11.6975 2.4874 11.3148 2.67021 11.0398 2.97292L8.34809 6.05625C6.8218 7.80535 5.959 10.0354 5.91059 12.3563L5.79184 18.0208C5.78327 18.4352 5.93968 18.8361 6.22665 19.1351C6.51362 19.4342 6.90765 19.6071 7.32205 19.6156C7.73645 19.6242 8.13728 19.4678 8.43636 19.1808C8.73544 18.8938 8.90827 18.4998 8.91684 18.0854L9.0335 12.4229C9.06693 10.8348 9.65762 9.30908 10.7023 8.1125L13.3939 5.02708Z" fill="white"/>
<path fill-rule="evenodd" clip-rule="evenodd" d="M12.9936 16.0417C13.1335 13.8128 14.1176 11.721 15.7455 10.1922C17.3734 8.66332 19.5228 7.81235 21.7561 7.8125H22.9165V6.25C22.9165 5.69746 23.136 5.16756 23.5267 4.77686C23.9174 4.38616 24.4473 4.16667 24.9998 4.16667C25.5523 4.16667 26.0823 4.38616 26.473 4.77686C26.8637 5.16756 27.0831 5.69746 27.0831 6.25V7.8125H28.2436C30.4768 7.81235 32.6262 8.66332 34.2541 10.1922C35.8821 11.721 36.8662 13.8128 37.0061 16.0417L37.4665 23.4042C37.6419 26.2114 38.5845 28.9166 40.1915 31.225C40.5235 31.7022 40.7264 32.2572 40.7803 32.8361C40.8343 33.4149 40.7376 33.9979 40.4996 34.5282C40.2615 35.0586 39.8903 35.5184 39.422 35.8628C38.9536 36.2072 38.4041 36.4246 37.8269 36.4937L30.729 37.3437V39.5833C30.729 41.1028 30.1254 42.56 29.0509 43.6345C27.9765 44.7089 26.5193 45.3125 24.9998 45.3125C23.4803 45.3125 22.0231 44.7089 20.9487 43.6345C19.8743 42.56 19.2706 41.1028 19.2706 39.5833V37.3437L12.1727 36.4917C11.5958 36.4223 11.0467 36.2049 10.5787 35.8606C10.1106 35.5163 9.73957 35.0568 9.50159 34.5268C9.2636 33.9967 9.16677 33.4141 9.22048 32.8356C9.2742 32.257 9.47664 31.7022 9.80815 31.225C11.415 28.9165 12.3576 26.2113 12.5331 23.4042L12.9936 16.0437V16.0417ZM22.3956 39.5833C22.3956 40.274 22.67 40.9364 23.1584 41.4248C23.6468 41.9131 24.3091 42.1875 24.9998 42.1875C25.6905 42.1875 26.3529 41.9131 26.8412 41.4248C27.3296 40.9364 27.604 40.274 27.604 39.5833V38.0208H22.3956V39.5833Z" fill="white"/>
<path d="M36.7562 2.82292C36.4441 3.09536 36.2529 3.48061 36.2248 3.89394C36.1967 4.30728 36.3338 4.71487 36.6062 5.02708L39.2978 8.11042C40.3422 9.30784 40.9321 10.8344 40.9645 12.4229L41.0833 18.0833C41.0875 18.2885 41.1321 18.4909 41.2145 18.6788C41.297 18.8668 41.4156 19.0366 41.5637 19.1787C41.7118 19.3208 41.8864 19.4324 42.0776 19.507C42.2688 19.5816 42.4729 19.6178 42.678 19.6135C42.8832 19.6093 43.0856 19.5647 43.2735 19.4822C43.4615 19.3998 43.6313 19.2812 43.7734 19.1331C43.9155 18.985 44.0271 18.8103 44.1017 18.6192C44.1763 18.428 44.2125 18.2239 44.2083 18.0188L44.0895 12.3563C44.0411 10.0354 43.1783 7.80535 41.652 6.05625L38.9603 2.97292C38.6879 2.66081 38.3026 2.46968 37.8893 2.44155C37.476 2.41342 37.0684 2.5506 36.7562 2.82292Z" fill="white"/>
</svg>
