<svg width="45" height="45" viewBox="0 0 45 45" fill="none" xmlns="http://www.w3.org/2000/svg">
<path d="M22.5 2.8125C11.6719 2.8125 2.8125 11.6719 2.8125 22.5C2.8125 33.3281 11.6719 42.1875 22.5 42.1875C33.3281 42.1875 42.1875 33.3281 42.1875 22.5C42.1875 11.6719 33.3281 2.8125 22.5 2.8125ZM20.9531 11.25H24.0469V26.7188H20.9531V11.25ZM22.5 35.1562C21.375 35.1562 20.3906 34.1719 20.3906 33.0469C20.3906 31.9219 21.375 30.9375 22.5 30.9375C23.625 30.9375 24.6094 31.9219 24.6094 33.0469C24.6094 34.1719 23.625 35.1562 22.5 35.1562Z" fill="#FFA500"/>
</svg>
