<svg width="119" height="78" viewBox="0 0 119 78" fill="none" xmlns="http://www.w3.org/2000/svg">
<g clip-path="url(#clip0_133_1270)">
<path d="M36.2837 62.717L36.065 62.9308C32.6293 66.4632 28.6537 68.3293 24.5582 68.3293C16.0055 68.3293 9.80062 61.855 9.80062 52.9245C9.80062 44.0082 16.0055 37.5234 24.5582 37.5234C28.6537 37.5234 32.6293 39.3996 36.065 42.9454L36.2837 43.1563L41.7843 36.4436L41.6371 36.2643C37.0629 30.8102 31.5732 28.1585 24.8252 28.1585C18.0599 28.1585 11.8654 30.4589 7.40775 34.6015C2.55368 39.0925 0 45.426 0 52.9245C0 60.423 2.55368 66.7699 7.40775 71.2613C11.8654 75.4278 18.0599 77.7113 24.8252 77.7113C31.5732 77.7113 37.0629 75.0554 41.6371 69.5986L41.7843 69.4331L36.2837 62.717ZM47.3395 76.7961H57.0549V28.9329H47.3395V76.7961ZM95.118 66.391C92.5233 67.9845 90.1132 68.7885 87.9458 68.7885C84.8044 68.7885 83.382 67.1119 83.382 63.3868V37.9891H93.2856V28.9795H83.382V14.0855L73.862 19.2316V28.9795H65.6438V37.9891H73.8616V65.0045C73.8616 72.3619 78.1826 77.3977 84.6367 77.5287C89.0156 77.6151 91.6549 76.2975 93.2546 75.3317L93.3571 75.266L95.6921 66.0357L95.118 66.391ZM103.16 76.7961H112.889V28.9329H103.16V76.7961Z" fill="#004685"/>
<path d="M118.556 20.5431C109.678 7.85665 94.9376 0.28875 79.9404 0.28875C64.9472 0.28875 50.2033 7.85665 41.3426 20.5431L40.8843 21.195H52.063L52.1861 21.0607C59.7924 13.1342 69.7265 8.94665 79.9404 8.94665C90.1543 8.94665 100.082 13.1342 107.706 21.0607L107.829 21.195H119L118.556 20.5431Z" fill="#EE1C25"/>
</g>
<defs>
<clipPath id="clip0_133_1270">
<rect width="119" height="78" fill="white"/>
</clipPath>
</defs>
</svg>
