<svg width="30" height="33" viewBox="0 0 30 33" fill="none" xmlns="http://www.w3.org/2000/svg">
<path fill-rule="evenodd" clip-rule="evenodd" d="M19.3269 0.649033H13.4769C10.826 0.649033 8.72596 0.649033 7.08317 0.869706C5.39279 1.09759 4.02404 1.57644 2.94375 2.65528C1.8649 3.73557 1.38606 5.10432 1.15817 6.79471C0.9375 8.43894 0.9375 10.5375 0.9375 13.1885V21.9231C0.937535 23.2117 1.3975 24.4579 2.23462 25.4375C3.07174 26.4172 4.23103 27.0659 5.50385 27.2668C5.70144 28.3687 6.08365 29.3091 6.84808 30.075C7.71635 30.9433 8.80962 31.3154 10.1077 31.4913C11.3582 31.6586 12.949 31.6586 14.9207 31.6586H19.4063C21.3779 31.6586 22.9688 31.6586 24.2192 31.4913C25.5173 31.3154 26.6106 30.9433 27.4788 30.075C28.3471 29.2067 28.7192 28.1135 28.8952 26.8154C29.0625 25.5649 29.0625 23.974 29.0625 22.0024V14.6322C29.0625 12.6606 29.0625 11.0697 28.8952 9.81922C28.7192 8.52115 28.3471 7.42788 27.4788 6.55961C26.713 5.79519 25.7726 5.41297 24.6707 5.21538C24.4697 3.94256 23.821 2.78327 22.8414 1.94615C21.8618 1.10904 20.6155 0.649067 19.3269 0.649033ZM22.399 5.00624C22.1797 4.36586 21.7656 3.81008 21.2148 3.41671C20.6639 3.02335 20.0038 2.81208 19.3269 2.81249H13.5577C10.8072 2.81249 8.85433 2.81538 7.37019 3.01442C5.92067 3.20913 5.08413 3.57547 4.47404 4.18557C3.86394 4.79567 3.4976 5.63221 3.30288 7.08317C3.10385 8.56586 3.10096 10.5187 3.10096 13.2692V21.9231C3.10055 22.6 3.31181 23.2601 3.70518 23.8109C4.09855 24.3618 4.65432 24.7759 5.29471 24.9952C5.26442 24.1154 5.26442 23.1202 5.26442 22.0024V14.6322C5.26442 12.6606 5.26442 11.0697 5.43317 9.81922C5.60625 8.52115 5.98125 7.42788 6.84808 6.55961C7.71635 5.69134 8.80962 5.31923 10.1077 5.14471C11.3582 4.97596 12.949 4.97596 14.9207 4.97596H19.4063C20.524 4.97596 21.5192 4.97596 22.399 5.00624ZM8.37692 8.09134C8.77644 7.69182 9.33606 7.43221 10.3962 7.28942C11.4837 7.14374 12.9288 7.14086 14.9986 7.14086H19.3255C21.3952 7.14086 22.8389 7.14374 23.9293 7.28942C24.988 7.43221 25.5476 7.69326 25.9471 8.09134C26.3466 8.49086 26.6063 9.05047 26.749 10.1106C26.8947 11.1981 26.8976 12.6433 26.8976 14.713V21.9245C26.8976 23.9942 26.8947 25.438 26.749 26.5284C26.6063 27.587 26.3452 28.1466 25.9471 28.5461C25.5476 28.9457 24.988 29.2053 23.9279 29.3481C22.8389 29.4937 21.3952 29.4966 19.3255 29.4966H14.9986C12.9288 29.4966 11.4837 29.4937 10.3947 29.3481C9.33606 29.2053 8.77644 28.9442 8.37692 28.5461C7.9774 28.1466 7.71779 27.587 7.575 26.5269C7.42933 25.438 7.42644 23.9942 7.42644 21.9245V14.713C7.42644 12.6433 7.42933 11.1981 7.575 10.1091C7.71779 9.05047 7.97885 8.49086 8.37692 8.09134Z" fill="white"/>
</svg>
