<svg width="20" height="21" viewBox="0 0 20 21" fill="none" xmlns="http://www.w3.org/2000/svg">
<path d="M18.3337 10.67V14.8367C18.3337 17.3367 16.667 19.0033 14.167 19.0033H5.83366C3.33366 19.0033 1.66699 17.3367 1.66699 14.8367V10.67C1.66699 8.40335 3.03366 6.82001 5.15866 6.55334C5.37533 6.52001 5.60033 6.50335 5.83366 6.50335H14.167C14.3837 6.50335 14.592 6.51167 14.792 6.545C16.942 6.795 18.3337 8.38668 18.3337 10.67Z" stroke="#B3B3B3" stroke-width="1.5" stroke-linecap="round" stroke-linejoin="round"/>
<path d="M14.7925 6.54501C14.5925 6.51168 14.3842 6.50336 14.1675 6.50336H5.83418C5.60085 6.50336 5.37585 6.52002 5.15918 6.55335C5.27585 6.32002 5.44251 6.10336 5.64251 5.90336L8.35085 3.18668C9.49251 2.05335 11.3425 2.05335 12.4842 3.18668L13.9425 4.6617C14.4758 5.1867 14.7592 5.85335 14.7925 6.54501Z" stroke="#B3B3B3" stroke-width="1.5" stroke-linecap="round" stroke-linejoin="round"/>
<path d="M18.3337 11.0867H15.8337C14.917 11.0867 14.167 11.8367 14.167 12.7533C14.167 13.67 14.917 14.42 15.8337 14.42H18.3337" stroke="#B3B3B3" stroke-width="1.5" stroke-linecap="round" stroke-linejoin="round"/>
</svg>
