<svg width="30" height="26" viewBox="0 0 30 26" fill="none" xmlns="http://www.w3.org/2000/svg">
<g clip-path="url(#clip0_157_1308)">
<path d="M15.612 0.21402C15.4346 0.075679 15.216 0.000549316 14.991 0.000549316C14.766 0.000549316 14.5474 0.075679 14.37 0.21402L0 11.419L1.243 12.991L3 11.621V24C3.00106 24.5301 3.21211 25.0382 3.58695 25.4131C3.9618 25.7879 4.46989 25.999 5 26H25C25.5301 25.999 26.0382 25.7879 26.413 25.4131C26.7879 25.0382 26.9989 24.5301 27 24V11.63L28.757 13L30 11.428L15.612 0.21402ZM17 24H13V16H17V24ZM19 24V16C18.9995 15.4697 18.7886 14.9613 18.4136 14.5864C18.0387 14.2114 17.5303 14.0005 17 14H13C12.4697 14.0005 11.9613 14.2114 11.5864 14.5864C11.2114 14.9613 11.0005 15.4697 11 16V24H5V10.062L15 2.27202L25 10.072V24H19Z" fill="#EAEAEA"/>
</g>
<defs>
<clipPath id="clip0_157_1308">
<rect width="30" height="26" fill="white"/>
</clipPath>
</defs>
</svg>
