<svg width="50" height="57" viewBox="0 0 50 57" fill="none" xmlns="http://www.w3.org/2000/svg">
<path d="M25.001 1.75341C23.8407 1.75353 22.7279 2.21458 21.9075 3.03512C21.0871 3.85568 20.6263 4.96852 20.6264 6.12884L20.6298 40.7788L9.13702 29.2883C8.30759 28.5156 7.21062 28.095 6.0772 28.1151C4.94377 28.1352 3.8624 28.5944 3.06091 29.3961C2.25941 30.1977 1.80035 31.2792 1.78047 32.4126C1.76058 33.5461 2.18141 34.643 2.95429 35.4722L21.9145 54.4287C22.7349 55.2479 23.8469 55.708 25.0063 55.7079C26.1656 55.7078 27.2776 55.2475 28.0978 54.4281L47.0543 35.4679C47.4841 35.0674 47.8288 34.5843 48.0679 34.0476C48.3069 33.511 48.4355 32.9316 48.4458 32.3442C48.4561 31.7567 48.348 31.1732 48.1279 30.6285C47.9078 30.0838 47.5802 29.5889 47.1647 29.1735C46.7493 28.7581 46.2544 28.4307 45.7096 28.2107C45.1648 27.9907 44.5813 27.8827 43.9938 27.8931C43.4064 27.9035 42.8271 28.0322 42.2904 28.2713C41.7538 28.5105 41.2708 28.8553 40.8704 29.2852L29.3798 40.778L29.3764 6.12799C29.3762 3.71299 27.416 1.75318 25.001 1.75341Z" fill="#00FF68"/>
</svg>
