<svg width="80" height="44" viewBox="0 0 80 44" fill="none" xmlns="http://www.w3.org/2000/svg">
<rect x="6" width="29" height="9" fill="black"/>
<rect x="17.4229" y="6" width="6" height="34.1117" transform="rotate(23.1723 17.4229 6)" fill="black"/>
<path d="M40.9395 24.4785C40.9395 25.1491 40.7734 25.7806 40.4414 26.373C40.1094 26.9655 39.6113 27.4831 38.9473 27.9258C38.2832 28.3685 37.4531 28.7201 36.457 28.9805C35.4674 29.2344 34.3086 29.3613 32.9805 29.3613C31.6523 29.3613 30.487 29.2344 29.4844 28.9805C28.4883 28.7201 27.6582 28.3685 26.9941 27.9258C26.3301 27.4831 25.832 26.9655 25.5 26.373C25.168 25.7806 25.002 25.1491 25.002 24.4785V15.582H28.6152V23.1797C28.6152 23.6289 28.6706 24.0553 28.7812 24.459C28.8984 24.8561 29.1133 25.2044 29.4258 25.5039C29.7448 25.8034 30.1875 26.041 30.7539 26.2168C31.3268 26.3926 32.069 26.4805 32.9805 26.4805C33.8854 26.4805 34.6211 26.3926 35.1875 26.2168C35.7539 26.041 36.1934 25.8034 36.5059 25.5039C36.8249 25.2044 37.0397 24.8561 37.1504 24.459C37.2611 24.0553 37.3164 23.6289 37.3164 23.1797V15.582H40.9395V24.4785Z" fill="white"/>
<path d="M48.6641 29H45.041V15.582H54.123C55.0996 15.582 55.9264 15.6829 56.6035 15.8848C57.2871 16.0866 57.8405 16.373 58.2637 16.7441C58.6934 17.1152 59.0026 17.5645 59.1914 18.0918C59.3867 18.6126 59.4844 19.1953 59.4844 19.8398C59.4844 20.4062 59.403 20.901 59.2402 21.3242C59.084 21.7474 58.8691 22.112 58.5957 22.418C58.3288 22.7174 58.0163 22.9714 57.6582 23.1797C57.3001 23.388 56.9225 23.5605 56.5254 23.6973L60.9199 29H56.6816L52.6191 24.0586H48.6641V29ZM55.8223 19.8203C55.8223 19.5599 55.7865 19.3385 55.7148 19.1562C55.6497 18.974 55.5326 18.8275 55.3633 18.7168C55.194 18.5996 54.9661 18.515 54.6797 18.4629C54.3997 18.4108 54.0482 18.3848 53.625 18.3848H48.6641V21.2559H53.625C54.0482 21.2559 54.3997 21.2298 54.6797 21.1777C54.9661 21.1257 55.194 21.0443 55.3633 20.9336C55.5326 20.8164 55.6497 20.6667 55.7148 20.4844C55.7865 20.3021 55.8223 20.0807 55.8223 19.8203Z" fill="white"/>
<path d="M74.2988 26.4609H66.8184L65.5586 29H61.5156L68.5371 15.582H72.5801L79.6016 29H75.5586L74.2988 26.4609ZM68.1172 23.8438H73.0195L70.5781 18.9023L68.1172 23.8438Z" fill="white"/>
<path fill-rule="evenodd" clip-rule="evenodd" d="M0 44L11.8296 40.4043L26.4454 9.43871H37V0H3.51819V10.4796H15.3714L0 44ZM7.29611 6.69462H15.3714C16.6586 6.69462 17.8572 7.35122 18.5519 8.43688C19.2466 9.52253 19.3417 10.8878 18.8044 12.0597L6.93844 37.9357L9.13022 37.2695L23.0301 7.82067C23.6546 6.49757 24.9846 5.65376 26.4454 5.65376H33.2221V3.78495H7.29611V6.69462Z" fill="black"/>
</svg>
