<svg width="134" height="133" viewBox="0 0 134 133" fill="none" xmlns="http://www.w3.org/2000/svg">
<mask id="mask0_133_1262" style="mask-type:luminance" maskUnits="userSpaceOnUse" x="0" y="0" width="134" height="133">
<path d="M133.867 0H0V132.868H133.867V0Z" fill="white"/>
</mask>
<g mask="url(#mask0_133_1262)">
<path d="M85.0319 34.1595H48.8359V98.7118H85.0319V34.1595Z" fill="#FF5F00"/>
<path d="M51.1338 66.4356C51.1338 53.3198 57.3389 41.6868 66.8762 34.1595C59.8668 28.6851 51.0189 25.3776 41.3666 25.3776C18.5002 25.3776 0 43.7397 0 66.4356C0 89.1315 18.5002 107.494 41.3666 107.494C51.0189 107.494 59.8668 104.186 66.8762 98.7118C57.3389 91.2986 51.1338 79.5514 51.1338 66.4356Z" fill="#EB001B"/>
<path d="M133.868 66.4356C133.868 89.1315 115.367 107.494 92.5007 107.494C82.8485 107.494 74.0006 104.186 66.9912 98.7118C76.6435 91.1845 82.7336 79.5514 82.7336 66.4356C82.7336 53.3198 76.5286 41.6868 66.9912 34.1595C74.0006 28.6851 82.8485 25.3776 92.5007 25.3776C115.367 25.3776 133.868 43.8537 133.868 66.4356Z" fill="#F79E1B"/>
</g>
</svg>
