<svg width="50" height="50" viewBox="0 0 50 50" fill="none" xmlns="http://www.w3.org/2000/svg">
<path d="M12.1873 35.625C13.9582 34.2708 15.9373 33.2028 18.1248 32.4208C20.3123 31.6389 22.604 31.2486 24.9998 31.25C27.3957 31.25 29.6873 31.641 31.8748 32.4229C34.0623 33.2049 36.0415 34.2722 37.8123 35.625C39.0276 34.2014 39.9741 32.5868 40.6519 30.7813C41.3297 28.9757 41.6679 27.0486 41.6665 25C41.6665 20.3819 40.0436 16.4493 36.7978 13.2021C33.5519 9.95486 29.6193 8.33194 24.9998 8.33333C20.3818 8.33333 16.4491 9.95625 13.2019 13.2021C9.9547 16.4479 8.33178 20.3806 8.33317 25C8.33317 27.0486 8.67206 28.9757 9.34984 30.7813C10.0276 32.5868 10.9734 34.2014 12.1873 35.625ZM24.9998 27.0833C22.9512 27.0833 21.2234 26.3806 19.8165 24.975C18.4096 23.5694 17.7068 21.8417 17.7082 19.7917C17.7082 17.7431 18.4109 16.0153 19.8165 14.6083C21.2221 13.2014 22.9498 12.4986 24.9998 12.5C27.0485 12.5 28.7762 13.2028 30.1832 14.6083C31.5901 16.0139 32.2929 17.7417 32.2915 19.7917C32.2915 21.8403 31.5887 23.5681 30.1832 24.975C28.7776 26.3819 27.0498 27.0847 24.9998 27.0833ZM24.9998 45.8333C22.1179 45.8333 19.4096 45.2861 16.8748 44.1917C14.3401 43.0972 12.1353 41.6132 10.2603 39.7396C8.38525 37.8646 6.90123 35.6597 5.80817 33.125C4.71512 30.5903 4.16789 27.8819 4.1665 25C4.1665 22.1181 4.71373 19.4097 5.80817 16.875C6.90262 14.3403 8.38664 12.1354 10.2603 10.2604C12.1353 8.38542 14.3401 6.90139 16.8748 5.80833C19.4096 4.71528 22.1179 4.16805 24.9998 4.16667C27.8818 4.16667 30.5901 4.71389 33.1248 5.80833C35.6596 6.90278 37.8644 8.38681 39.7394 10.2604C41.6144 12.1354 43.0991 14.3403 44.1936 16.875C45.288 19.4097 45.8346 22.1181 45.8332 25C45.8332 27.8819 45.286 30.5903 44.1915 33.125C43.0971 35.6597 41.613 37.8646 39.7394 39.7396C37.8644 41.6146 35.6596 43.0993 33.1248 44.1938C30.5901 45.2882 27.8818 45.8347 24.9998 45.8333Z" fill="white"/>
</svg>
