<svg width="802" height="288" viewBox="0 0 802 288" fill="none" xmlns="http://www.w3.org/2000/svg">
<g opacity="0.15">
<path d="M223.266 10.9973C226.473 4.59128 233.543 1.01073 240.707 1.01073C287.701 1.01073 334.696 1.01073 381.696 1.01073C384.494 1.01073 386.889 2.50816 389.549 3.37758V3.37758C395.218 5.21529 400.856 7.19243 406.913 8.50457C416.508 10.5854 426.353 12.3981 436.823 12.4374C440.361 12.4517 442.674 11.1789 442.817 9.15527C442.886 8.21497 442.667 7.26036 442.517 6.31648V6.31648C442.076 3.54029 444.183 1.01073 446.994 1.01073C453.869 1.01073 460.745 1.01073 467.621 1.01073C469.369 1.01073 470.769 2.05061 472.264 2.95569V2.95569C477.059 5.85527 482.809 8.0219 489.31 9.39124C496.123 10.8249 503.086 11.9512 510.581 11.4756C519.694 10.9 527.764 8.75126 535.746 6.42016C540.991 4.88993 546.441 4.86133 551.817 5.79806C559.211 7.08517 565.199 9.79883 571.069 12.5876C579.495 16.5919 586.508 21.272 591.365 26.8888C600.685 37.6755 601.803 49.1665 599.428 60.8649C598.484 65.52 596.653 70.1142 595.534 74.7621C594.503 79.0167 596.978 83.0211 605.454 84.8874C615.155 87.0254 625.375 87.0612 635.501 87.5045C639.745 87.6904 644.002 87.762 648.227 88.0265C656.191 88.5235 663.923 87.9657 669.961 84.8874C675.812 81.9056 681.306 78.5806 686 74.9945C699.127 64.9658 714.341 56.0311 729.486 47.0428C733.518 44.6509 737.606 42.2447 741.088 39.5954C753.233 30.3533 767.153 22.0264 780.979 13.6351C786.355 10.3701 791.05 6.77965 794.202 2.64021C794.954 1.65376 796.094 1.01073 797.334 1.01073V1.01073C799.341 1.01073 800.969 2.63836 800.969 4.64616C800.969 7.72909 800.969 10.812 800.969 13.8949C800.969 15.3826 799.964 16.5547 798.625 17.2033V17.2033C795.3 18.8157 792.099 20.5176 788.712 22.0872C777.26 27.3929 767.722 33.7391 758.221 40.1246C752.639 43.8786 746.857 47.5719 740.619 50.9613C731.486 55.9239 722.229 60.7934 714.76 66.6319C707.953 71.9484 703.002 77.7582 702.321 84.4512C701.639 91.1192 705.659 97.1042 711.616 102.675C722.66 113 735.812 122.45 749.682 131.552C761.777 139.489 772.385 147.945 780.517 157.402C783.505 160.873 786.668 164.299 789.574 167.795C791.893 170.58 793.993 173.423 796.106 176.262C797.769 178.5 796.856 180.627 794.537 182.504C792.268 184.345 789.855 186.154 787.136 187.774C779.592 192.272 773.185 197.216 768.316 202.794C761.821 210.227 757.171 218.032 753.783 226.112C751.107 232.483 750.363 238.883 753.883 245.133C759.683 255.437 766.059 265.637 772.228 275.873C772.556 276.417 772.885 276.959 773.216 277.502C775.748 281.645 772.819 286.957 767.964 286.957V286.957C765.933 286.957 764.028 285.963 762.906 284.271C760.075 280.001 757.401 275.685 753.92 271.597C747.588 264.15 738.318 257.871 727.949 252.101C724.998 250.46 722.435 248.526 720.192 246.541C716.097 242.927 713.753 238.951 714.228 234.56C714.766 229.569 719.348 225.712 725.105 222.247C733.687 217.081 741.444 211.525 746.532 205.018C752.47 197.424 757.902 189.68 762.834 181.853C767.553 174.359 766.572 166.773 761.602 159.35C756.027 151.034 746.357 144.549 733.993 139.314C722.06 134.262 711.684 128.288 701.664 122.06C695.989 118.531 690.276 114.938 683.769 111.945C671.124 106.132 662.135 106.343 649.721 110.097C638.295 113.554 630.969 119.221 626.037 125.914C621.606 131.935 619.162 138.231 618.243 144.763C617.236 151.899 620.868 157.527 632.976 159.804C640.189 161.159 647.408 162.518 654.522 164.045C664.148 166.111 671.686 169.526 674.218 175.539C677.381 183.047 676.937 190.534 672.536 197.867C670.636 201.035 667.061 203.455 661.354 204.642C657.56 205.432 653.747 205.465 649.721 205.161C638.814 204.338 629.469 201.689 621.318 197.585C615.861 194.835 612.511 191.221 610.236 187.37C608.042 183.659 606.229 179.844 604.898 176.001C602.497 169.089 596.397 164.181 584.445 161.71C576.732 160.115 569.181 158.203 561.812 156.143C551.142 153.161 542.641 148.767 537.803 142.421C531.565 134.227 530.427 125.639 532.583 116.883C533.583 112.825 535.146 108.81 536.409 104.773C537.828 100.211 533.427 96.8218 525.464 96.0781C516.65 95.2522 508.693 96.6108 501.392 99.2172C494.248 101.77 487.566 104.738 480.465 107.333C468.151 111.831 455.025 114.931 439.954 114.334C435.535 114.158 432.091 112.657 431.729 110.311C431.516 108.96 431.466 107.541 431.954 106.225C433.329 102.503 434.923 98.8061 436.604 95.1271C440.079 87.526 443.811 79.9785 449.393 72.7528C453.506 67.422 457.125 61.984 457.388 55.9882C457.663 49.7028 454.944 43.9859 448.693 38.841C439.692 31.433 427.159 26.8352 412.17 24.4683C401.988 22.8594 391.78 22.7629 382.279 26.0522C375.904 28.2581 371.966 31.7476 368.322 35.2729C360.702 42.6452 353.614 50.1962 345.9 57.5363C339.1 64.0148 329.924 69.3706 319.885 74.2437C312.128 78.0121 304.046 81.5874 296.708 85.606C287.738 90.5185 280.106 96.1067 274.73 102.585C270.58 107.583 266.573 112.621 262.485 117.637C259.235 121.627 253.497 123.933 246.171 124.634C239.339 125.288 232.35 125.506 225.418 125.739C217.043 126.018 213.93 128.295 216.167 132.897C217.73 136.118 220.73 138.914 224.775 141.284C236.432 148.124 256.722 148.664 270.773 142.471C278.274 139.164 286.581 137.069 295.882 136.089C307.252 134.892 318.497 133.419 329.217 130.827C337.931 128.717 346.732 126.711 355.489 124.663C369.372 121.416 383.748 120.344 398.606 121.484C405.563 122.017 410.395 125.242 411.058 129.253C411.758 133.508 412.233 137.831 414.02 141.953C417.577 150.147 422.103 158.203 425.972 166.358C429.122 173.001 432.629 179.64 431.01 186.687C430.26 189.959 428.441 192.901 424.184 195.279C418.402 198.503 411.258 200.22 403.719 201.5C396.237 202.772 388.636 203.813 381.204 205.168C373.053 206.655 366.953 209.748 362.44 213.852C356.458 219.29 350.932 224.9 344.594 230.191C332.024 240.685 314.997 248.061 294.551 253.034C284.044 255.59 273.624 258.336 263.604 261.461C250.44 265.562 244.871 272.63 247.115 280.957V280.957C247.934 283.999 245.506 286.96 242.355 286.96C237.96 286.96 233.564 286.96 229.169 286.96C227.708 286.96 226.447 285.922 226.175 284.486V284.486C225.287 279.652 223.762 274.822 223.706 269.985C223.65 265.197 225.987 260.46 233.138 257.464C238.945 255.029 245.383 252.959 251.978 251.282C267.942 247.228 284.325 243.71 300.214 239.566C313.453 236.112 324.198 230.681 331.574 223.463C339.518 215.69 341.612 207.595 331.305 199.901C322.973 193.688 315.51 187.223 309.703 180.126C308.665 178.861 306.921 177.763 305.333 176.673C299.358 172.565 291.163 170.806 282.4 169.636C272.486 168.317 262.504 167.824 252.39 168.653C245.808 169.193 240.683 170.87 237.764 174.488C234.563 178.457 235.407 182.769 234.151 186.898C232.375 192.74 231.125 198.672 228.481 204.385C223.975 214.113 215.217 222.855 207.348 231.779C202.822 236.913 196.703 241.325 187.796 244.203C181.907 246.102 175.776 247.75 169.844 249.605C160.643 252.48 152.473 256.087 146.01 260.882C142.565 263.438 139.861 266.125 137.775 268.922C131.323 277.57 123.108 286.957 112.318 286.957C98.4014 286.957 84.4837 286.957 70.5676 286.957C64.1926 286.957 57.8461 284.075 55.283 278.238C54.1847 275.737 53.4078 273.192 53.0246 270.603C51.7182 261.751 48.0928 253.27 42.2922 245.036C37.8292 238.708 34.335 232.158 35.5414 225.236C36.479 219.873 37.8792 214.496 39.9794 209.244C43.6736 200.002 44.8674 190.859 40.9295 181.517C39.6981 178.589 39.8106 175.357 40.3795 172.329C41.3421 167.191 45.7488 162.722 50.6618 158.482C56.0749 153.805 61.9443 149.318 70.639 146.422C78.4336 143.83 86.6158 143.101 93.9103 146.633C97.8295 148.528 100.961 151.145 103.524 153.737C110.206 160.498 119.126 165.657 132.902 166.908C140.184 167.57 147.822 167.466 155.211 167.123C164.931 166.669 174.138 164.874 182.564 161.975C191.977 158.735 193.734 155.064 190.321 149.2C188.021 145.242 184.489 141.445 178.851 138.696C171.594 135.16 163.974 131.831 156.161 128.703C148.373 125.585 141.616 121.96 136.571 117.373C130.533 111.885 124.745 106.303 118.901 100.747C109.493 91.7985 97.9045 84.0293 82.059 78.6092C73.2206 75.588 64.057 72.8708 55.3686 69.7138C48.8116 67.3327 42.2172 64.8192 36.654 61.7623C27.7656 56.8785 23.9402 50.543 24.2339 43.4925C24.3902 39.7563 24.7215 36.0094 25.4466 32.2982C27.8281 20.0778 35.6727 9.5271 54.1372 2.31214V2.31214C55.555 1.75658 56.8786 1 58.4014 1C69.4846 1 80.5718 1 91.6552 1C92.5489 1 92.9439 2.30007 92.1039 2.60531V2.60531C84.028 5.53706 75.7271 8.27932 67.8137 11.3505C60.4442 14.2072 54.406 17.8647 49.8555 22.3231C45.1487 26.9317 42.5922 31.8656 41.4733 37.1356C39.8544 44.8082 43.1923 51.5155 52.6433 57.1216C60.1629 61.58 69.3701 64.7477 78.4711 67.9762C89.8911 72.027 101.449 76.0063 110.275 81.9378C115.45 85.413 120.019 89.1885 124.789 92.8568C130.308 97.1007 135.315 101.595 141.316 105.599C153.661 113.844 169.756 118.152 188.558 119.278C195.203 119.675 200.078 117.287 199.547 113.586C198.703 107.791 197.465 102.017 196.59 96.2211C195.665 90.0752 194.834 83.9185 194.24 77.7582C193.921 74.4332 194.384 71.0867 194.14 67.7581C193.684 61.5514 197.678 56.3958 204.854 51.8945C211.211 47.9009 215.999 43.4174 217.068 37.9258C217.736 34.5078 217.905 31.054 218.599 27.6396C219.549 22.9881 220.249 18.2866 222.049 13.7352C222.4 12.8162 222.812 11.9043 223.266 10.9973ZM343.544 33.1849C344.244 26.9567 339.262 22.2731 330.786 18.9016C324.592 16.4346 317.829 14.3681 310.997 12.5053C297.901 8.9336 284.219 6.2271 269.911 4.73977C263.704 4.09621 257.384 4.4752 252.421 6.89925C242.077 11.9512 238.526 18.6441 240.233 26.1702C241.314 30.9325 243.327 35.634 245.089 40.3427C247.346 46.3742 245.346 51.8337 238.476 56.5924C234.713 59.2024 230.738 61.7301 226.537 64.1077C210.954 72.9316 208.748 84.8624 216.718 95.7778C218.668 98.4521 221.724 100.758 225.875 102.449C237.22 107.069 248.021 104.205 256.309 99.1421C263.473 94.766 269.755 89.8964 277.205 85.699C285.475 81.0404 294.482 76.7893 303.452 72.5562C314.247 67.4542 324.679 62.1985 331.661 55.1123C338.381 48.2906 342.994 41.0863 343.544 33.1849ZM47.8556 225.011C47.8293 226.182 47.8 227.357 47.8337 228.528C48.0095 234.64 52.3213 240.262 57.0188 245.819C61.2755 250.853 65.7822 255.819 69.8327 260.907C74.0019 266.145 76.8835 271.747 83.5342 276.256C87.4784 278.93 95.7605 281.654 102.724 278.143C105.793 276.599 108.324 274.668 110.818 272.795C117.357 267.879 123.226 262.637 130.314 258C140.34 251.439 152.442 246.127 165.031 241.246C178.363 236.076 190.046 230.009 198.19 221.957C202.353 217.839 206.679 213.752 210.211 209.455C215.392 203.144 218.361 196.544 216.693 189.404C214.974 182.032 206.76 176.601 194.359 175.203C186.664 174.338 179.07 175.139 171.45 175.639C161.349 176.301 151.235 177.495 141.147 177.441C128.745 177.373 116.363 176.247 103.968 175.596C98.6046 175.314 93.179 174.674 87.8847 174.906C78.0461 175.343 73.1018 179.597 69.9014 184.213C63.6945 193.169 58.0626 202.261 52.5433 211.367C49.8903 215.732 47.9628 220.221 47.8556 225.011ZM509.768 82.7029C518.876 82.4204 529.364 82.2452 539.809 81.7268C547.685 81.3371 555.048 79.7962 561.455 77.0718C567.893 74.3331 572.838 70.8293 576.738 66.8357C586.127 57.2217 589.702 47.1608 582.939 36.5278C578.282 29.202 569.619 24.0965 555.517 23.1991C549.66 22.8272 543.447 23.1311 537.646 23.8248C523.251 25.5409 508.962 26.4061 494.392 24.5791C486.785 23.6245 479.078 22.9309 471.389 22.1908C465.314 21.6045 461.744 23.5816 463.082 26.8101C463.963 28.9482 464.982 31.0898 466.339 33.142C471.758 41.3473 474.54 49.8208 474.74 58.5874C474.858 63.6394 475.058 68.6913 475.383 73.7396C475.708 78.7093 480.971 81.7983 489.685 82.1487C495.911 82.3954 502.143 82.4955 509.768 82.7029ZM385.136 192.15C389.23 191.814 393.418 191.685 397.4 191.099C406.038 189.826 412.339 186.705 413.82 181.649C414.877 178.046 414.733 174.131 413.483 170.541C409.832 160.04 400.994 150.798 390.387 142.089C386.611 138.993 381.786 136.522 375.322 135.492C369.728 134.602 364.021 134.845 358.383 135.685C347.319 137.334 337.8 140.58 329.911 145.206C319.648 151.227 318.916 161.653 328.98 168.621C337.168 174.291 346.45 179.444 355.233 184.835C363.302 189.79 373.235 192.143 385.136 192.15ZM608.473 119.993C608.473 119.518 608.473 119.042 608.473 118.563C608.448 110.172 598.203 104.423 583.533 104.273C571.594 104.151 563.249 107.626 556.486 112.7C551.41 116.507 548.654 120.93 547.573 125.682C545.554 134.566 551.773 144.473 568.506 148.632C575.019 150.248 581.82 150.698 588.602 149.561C594.903 148.503 598.209 145.496 600.541 142.235C605.635 135.12 607.767 127.634 608.473 119.993ZM651.604 187.609C653.463 185.807 653.463 182.375 651.73 180.453C650.59 179.189 648.729 178.124 646.621 177.155C643.052 175.514 636.807 175.31 633.363 176.562C630.357 177.652 628.556 180.445 629.319 182.74C630.069 184.996 632.101 186.784 635.032 188.328C638.595 190.205 643.308 190.967 647.027 189.912C649.056 189.335 650.61 188.572 651.604 187.609Z" stroke="white" stroke-width="2" stroke-miterlimit="10"/>
<path d="M254.662 286.956C251.053 286.957 248.029 284.439 247.09 280.954V280.954C244.852 272.627 250.415 265.558 263.579 261.457C273.599 258.336 284.019 255.59 294.526 253.03C314.966 248.054 331.999 240.681 344.569 230.188C350.907 224.893 356.433 219.283 362.415 213.849C366.928 209.744 373.035 206.648 381.179 205.164C388.612 203.809 396.212 202.765 403.694 201.496C411.226 200.216 418.377 198.5 424.159 195.275C428.422 192.897 430.235 189.955 430.985 186.684C432.604 179.637 429.097 172.997 425.947 166.354C422.084 158.199 417.552 150.144 413.996 141.949C412.208 137.827 411.727 133.504 411.033 129.25C410.376 125.238 405.545 122.013 398.581 121.481C383.723 120.344 369.341 121.413 355.464 124.659C346.701 126.708 337.906 128.713 329.193 130.823C318.479 133.419 307.228 134.892 295.858 136.086C286.557 137.065 278.249 139.161 270.749 142.468C256.697 148.66 236.407 148.12 224.75 141.281C220.712 138.91 217.712 136.114 216.143 132.893C213.905 128.292 217.018 126.014 225.394 125.735C232.332 125.506 239.314 125.288 246.146 124.631C253.472 123.926 259.204 121.624 262.46 117.634C266.548 112.617 270.555 107.58 274.705 102.582C280.081 96.1067 287.713 90.5149 296.683 85.6025C304.021 81.5838 312.103 78.0085 319.86 74.2401C329.899 69.367 339.075 64.0112 345.876 57.5327C353.583 50.1926 360.677 42.6416 368.297 35.2693C371.941 31.7405 375.879 28.2546 382.255 26.0486C391.756 22.7593 401.963 22.8558 412.145 24.4647C427.134 26.8352 439.667 31.4294 448.668 38.8375C454.919 43.9823 457.638 49.6992 457.363 55.9846C457.1 61.9804 453.487 67.4185 449.368 72.7492C443.786 79.9749 440.055 87.5224 436.579 95.1235C434.898 98.8025 433.304 102.499 431.929 106.221C431.441 107.537 431.491 108.956 431.704 110.308C432.066 112.653 435.517 114.155 439.93 114.33C455 114.927 468.12 111.827 480.44 107.33C487.541 104.737 494.223 101.766 501.368 99.2137C508.668 96.6073 516.626 95.2486 525.439 96.0745C533.402 96.8218 537.803 100.208 536.384 104.77C535.128 108.81 533.559 112.821 532.559 116.879C530.402 125.635 531.54 134.223 537.778 142.418C542.61 148.764 551.111 153.158 561.787 156.14C569.163 158.199 576.707 160.115 584.42 161.706C596.372 164.177 602.472 169.082 604.873 175.997C606.204 179.84 608.017 183.655 610.211 187.366C612.486 191.217 615.836 194.832 621.293 197.581C629.438 201.685 638.783 204.335 649.696 205.157C653.722 205.461 657.535 205.429 661.329 204.639C667.036 203.448 670.605 201.031 672.511 197.864C676.912 190.534 677.362 183.047 674.193 175.536C671.661 169.526 664.123 166.108 654.497 164.041C647.39 162.514 640.17 161.159 632.951 159.801C620.849 157.523 617.212 151.896 618.218 144.759C619.143 138.231 621.581 131.931 626.013 125.91C630.938 119.217 638.27 113.551 649.696 110.093C662.11 106.336 671.105 106.128 683.744 111.942C690.251 114.931 695.958 118.527 701.64 122.056C711.659 128.284 722.036 134.259 733.968 139.311C746.338 144.545 756.008 151.031 761.577 159.347C766.553 166.769 767.534 174.356 762.809 181.85C757.877 189.676 752.445 197.42 746.507 205.014C741.425 211.518 733.668 217.077 725.08 222.244C719.323 225.708 714.741 229.566 714.203 234.557C713.728 238.947 716.072 242.923 720.167 246.538C722.417 248.522 724.973 250.453 727.924 252.097C738.294 257.868 747.557 264.146 753.895 271.593C755.81 273.844 757.48 276.161 759.067 278.501C761.475 282.053 758.832 286.953 754.541 286.953V286.953C752.695 286.953 751 285.982 749.942 284.469C746.348 279.33 741.515 274.588 734.193 270.878C726.911 267.189 718.873 263.982 711.009 260.682C703.521 257.539 696.877 254.014 693.114 249.03C690.432 245.479 687.425 241.99 685.3 238.332C680.056 229.305 669.924 223.052 654.747 219.179C643.439 216.294 632.507 212.93 621.331 209.877C607.661 206.14 599.041 200.212 595.784 191.664C594.397 188.014 592.396 184.417 590.196 180.895C587.758 177.005 584.483 173.23 578.257 170.891C570.288 167.899 562.124 165.017 553.661 162.518C538.422 158.017 526.902 151.721 521.045 142.328C518.144 137.677 515.263 133.018 512.156 128.413C508.612 123.157 501.361 120.898 491.742 122.096C476.765 123.955 462.788 127.344 449.637 131.778C438.304 135.6 433.529 141.62 434.242 148.935C434.629 152.886 435.842 156.869 437.604 160.702C440.655 167.316 444.524 173.805 447.856 180.377C450.175 184.96 451.775 189.619 450.156 194.431C447.837 201.321 440.105 205.529 429.097 207.853C419.74 209.83 410.108 211.382 400.657 213.223C389.637 215.368 380.323 218.958 373.622 224.471C365.49 231.164 357.608 237.957 349.595 244.693C343.032 250.21 334.818 254.654 324.104 257.467C313.516 260.249 302.771 262.855 292.401 265.887C283.137 268.594 275.124 272.291 272.605 278.479V278.479C270.716 283.12 267.331 286.955 262.321 286.956C259.769 286.956 257.216 286.956 254.662 286.956ZM314.916 122.192C323.092 122.285 330.543 120.955 337.825 119.31C352.339 116.028 366.603 112.36 381.304 109.393C399.788 105.664 412.683 98.9169 419.702 88.4627C425.259 80.1859 431.004 71.9448 436.392 63.6322C439.311 59.1345 440.98 54.5438 438.561 49.6635C433.879 40.2104 414.483 34.1717 398.213 37.2C390.18 38.6944 384.486 41.9444 379.454 45.5018C370.891 51.5548 362.971 57.9046 354.558 64.0255C347.088 69.4635 338.344 74.208 329.024 78.6056C319.41 83.1427 309.397 87.4473 301.571 93.0856C294.364 98.2805 289.063 103.933 289.763 110.848C290.088 114.076 292.464 116.797 296.776 118.914C302.058 121.502 308.359 122.274 314.916 122.192ZM696.862 182.372C696.289 185.661 696.475 189.063 697.447 192.257C698.048 194.233 698.763 196.322 699.783 198.36C702.046 202.876 709.272 204.725 717.066 203.284C721.823 202.404 725.392 200.591 728.33 198.393C735.274 193.191 738.356 187.102 740.35 180.774C741.957 175.679 742.388 170.641 739.344 165.625C735.968 160.058 729.349 156.619 719.298 155.582C711.759 154.803 703.665 155.889 701.408 161.685C700.621 163.712 699.889 165.757 699.483 167.817C698.571 172.524 697.757 177.237 696.862 182.372ZM660.623 128.603C651.19 128.556 645.84 130.776 642.327 134.477C636.332 140.802 640.527 147.999 652.178 149.733C655.778 150.269 659.466 150.848 663.142 150.913C668.086 151.002 673.13 150.798 677.612 149.297C682.062 147.806 683.888 145.382 683 142.514C682 139.275 679.668 136.4 676.174 133.823C671.805 130.594 666.061 128.817 660.623 128.603Z" stroke="white" stroke-width="2" stroke-miterlimit="10"/>
<path d="M279.645 286.957C275.135 286.957 270.921 282.66 272.623 278.483V278.483C275.142 272.291 283.156 268.597 292.419 265.891C302.789 262.859 313.534 260.253 324.123 257.471C334.836 254.657 343.056 250.213 349.613 244.696C357.632 237.957 365.508 231.167 373.64 224.475C380.341 218.961 389.661 215.372 400.675 213.227C410.126 211.385 419.758 209.834 429.115 207.856C440.123 205.533 447.855 201.324 450.174 194.435C451.793 189.619 450.193 184.964 447.874 180.38C444.542 173.805 440.673 167.32 437.622 160.705C435.86 156.876 434.641 152.89 434.26 148.939C433.547 141.628 438.323 135.603 449.655 131.781C462.813 127.348 476.783 123.958 491.76 122.099C501.379 120.905 508.63 123.165 512.174 128.417C515.281 133.025 518.169 137.68 521.063 142.332C526.913 151.724 538.44 158.02 553.679 162.522C562.142 165.021 570.306 167.902 578.275 170.895C584.501 173.233 587.776 177.009 590.214 180.899C592.421 184.42 594.415 188.017 595.802 191.668C599.059 200.216 607.679 206.144 621.349 209.88C632.525 212.937 643.457 216.298 654.765 219.183C669.942 223.055 680.068 229.312 685.318 238.336C687.444 241.993 690.45 245.487 693.132 249.033C696.895 254.017 703.533 257.543 711.027 260.685C718.891 263.985 726.929 267.192 734.211 270.882C737.802 272.701 740.794 274.769 743.335 277.009C747.589 280.761 744.287 286.957 738.615 286.957V286.957C736.902 286.957 735.247 286.346 733.979 285.195C732.751 284.08 731.509 282.972 729.998 281.998C722.004 276.835 711.602 274.246 699.789 273.814C691.325 273.503 683.031 274.368 678.786 279.32V279.32C675.313 283.366 671.364 286.957 666.032 286.957C641.433 286.957 616.835 286.957 592.237 286.957C582.485 286.957 573.507 278.562 564.304 275.335C562.092 274.56 559.518 273.977 556.548 273.621C549.991 272.834 543.528 272.566 536.796 272.923C527.92 273.399 519.263 274.236 511.118 276.295C504.639 277.933 498.979 280.121 495.021 283.32C492.587 285.288 489.738 286.953 486.608 286.953C484.728 286.953 482.847 286.953 480.967 286.953C476.623 286.953 473.299 282.175 475.683 278.544V278.544C479.127 273.299 485.403 269.477 495.085 268.05C503.83 266.763 512.756 265.887 521.582 264.786C532.539 263.42 543.59 262.255 554.379 260.539C562.817 259.198 569.743 256.227 573.95 251.686C582.288 242.673 583.457 233.03 580.119 223.23C578.825 219.44 574.537 216.409 567.637 215.189C560.267 213.888 552.61 213.638 545.172 214.671C536.002 215.944 526.87 217.424 518.019 219.28C507.118 221.561 496.973 224.786 488.672 229.534C481.971 233.366 477.777 238.186 473.458 242.948C471.264 245.365 468.895 247.793 465.932 249.909C459.337 254.614 449.93 254.85 440.529 254.3C430.209 253.695 419.977 252.641 409.676 251.901C396.149 250.928 382.904 251.686 370.09 254.436C361.17 256.348 353.463 259.369 348.675 264.082C345.285 267.419 342.921 270.944 341.257 274.586C338.193 281.293 332.372 286.96 324.998 286.96C323.485 286.96 321.971 286.96 320.458 286.96C318.452 286.96 316.866 285.73 315.409 284.35V284.35C312.603 281.69 308.721 281.186 304.564 283.181V283.181C300.981 284.901 297.583 286.959 293.609 286.958C288.952 286.957 284.298 286.957 279.645 286.957ZM490.134 211.947C492.085 212.14 494.079 212.14 496.035 211.947C501.711 211.382 507.43 210.899 512.987 210.077C529.107 207.703 545.222 205.289 561.155 202.544C569.562 201.096 575.375 197.842 576.031 192.433C576.219 190.913 576.263 189.354 575.894 187.853C574.787 183.398 571.25 179.637 565.355 176.626C557.673 172.701 548.466 170.305 538.946 168.36C522.288 164.953 508.43 159.736 500.386 150.33C499.123 148.85 497.323 147.47 495.391 146.24C491.716 143.891 487.134 142.439 481.421 142.564C466.007 142.907 455.343 150.755 458.162 159.45C459.906 164.838 464.138 169.558 469.045 174.149C474.42 179.175 477.589 184.549 477.271 190.545C477.033 194.95 477.164 199.362 477.246 203.766C477.327 208.336 481.346 211.156 488.653 211.8L490.134 211.947ZM639.101 259.691C654.521 260.152 659.34 255.558 658.265 250.288C657.403 246.073 655.134 242.033 651.015 238.425C643.651 231.979 634.469 226.823 620.943 224.843C614.229 223.86 608.604 225.225 605.885 228.908C601.934 234.264 600.659 239.859 602.578 245.655C603.666 248.944 605.31 252.047 610.11 254.196C619.592 258.443 631.075 259.026 639.101 259.691ZM434.478 222.708C423.64 222.973 413.782 224.603 406.044 228.397C398.393 232.147 398.268 237.081 408.294 239.451C412.845 240.528 417.814 241.164 422.702 241.597C437.191 242.88 448.03 239.047 451.024 231.171C452.299 227.821 449.874 224.875 444.167 223.809C441.06 223.227 437.716 223.062 434.478 222.708Z" stroke="white" stroke-width="2" stroke-miterlimit="10"/>
<path d="M53.667 1.01105C54.3851 1.01105 54.7494 2.0612 54.0808 2.32318V2.32318C35.6163 9.53815 27.7654 20.0925 25.3902 32.3093C24.6651 36.0204 24.3338 39.7674 24.1775 43.5036C23.8838 50.5505 27.7092 56.8895 36.5976 61.7734C42.1608 64.8303 48.7552 67.3473 55.3122 69.7249C64.0006 72.8783 73.1642 75.5955 82.0026 78.6202C97.8544 84.0404 109.443 91.8095 118.844 100.759C124.689 106.318 130.477 111.896 136.515 117.384C141.559 121.971 148.316 125.596 156.104 128.714C163.918 131.842 171.537 135.171 178.794 138.707C184.433 141.453 187.964 145.25 190.264 149.211C193.671 155.075 191.921 158.746 182.507 161.986C174.081 164.885 164.874 166.68 155.154 167.134C147.76 167.481 140.128 167.581 132.846 166.92C119.075 165.668 110.156 160.509 103.467 153.748C100.905 151.156 97.7793 148.539 93.8539 146.644C86.5531 143.112 78.371 143.841 70.5826 146.433C61.8879 149.325 56.0185 153.816 50.6054 158.493C45.6924 162.733 41.2857 167.202 40.3231 172.34C39.7542 175.368 39.6417 178.6 40.8731 181.528C44.811 190.867 43.6172 200.013 39.923 209.255C37.8228 214.507 36.4226 219.881 35.485 225.247C34.2786 232.169 37.779 238.719 42.2358 245.047C48.0426 253.281 51.6618 261.762 52.9682 270.614V270.614C54.0702 278.06 49.7686 286.968 42.2413 286.968C41.4189 286.968 40.5965 286.968 39.7741 286.968C33.8404 286.968 29.4492 281.208 31.3096 275.573V275.573C33.6286 268.548 35.6975 261.486 32.7347 254.389C30.7845 249.716 28.2592 245.108 25.6527 240.535C22.1148 234.318 20.4959 227.943 20.4209 221.443C20.3771 217.886 21.146 214.317 20.8897 210.771C20.6584 207.531 20.0896 204.224 15.4641 201.754V201.754C8.13793 197.837 1 192.507 1 184.2C1 181.414 1 178.628 1 175.842C1 167.697 7.65991 160.851 15.1953 157.76V157.76C26.1403 153.262 32.591 146.791 37.4352 139.794C40.4543 135.428 42.6171 130.866 45.5424 126.476C50.1866 119.493 58.9188 116.783 71.8828 117.806C78.971 118.363 86.1281 118.646 93.2664 118.96C98.6919 119.2 106.574 115.843 105.336 111.928C104.586 109.557 103.968 107.098 102.33 104.909C96.1729 96.6719 84.2654 91.5592 71.3702 87.1259C54.4246 81.3053 37.2477 75.7063 22.0211 68.3948C14.1264 64.605 8.10078 60.0751 6.0193 54.2938C4.33162 49.6066 3.95657 44.7656 2.8377 40.0069C2.79815 39.8395 2.75174 39.6726 2.69961 39.5061C1.87789 36.8811 1.00625 34.279 1.00625 31.5284C1.00625 25.7408 1.00625 19.951 1.00625 14.1465C1.00625 6.8998 6.87711 1.02304 14.1238 1.01894C27.3081 1.01149 40.4892 1.01107 53.667 1.01105Z" stroke="white" stroke-width="2" stroke-miterlimit="10"/>
<path d="M143.912 286.957C137.193 286.956 131.514 281.181 134.186 275.016C136.363 269.992 140.085 265.246 145.966 260.882C152.429 256.087 160.593 252.48 169.8 249.605C175.732 247.75 181.87 246.105 187.752 244.203C196.665 241.329 202.778 236.917 207.304 231.779C215.167 222.855 223.931 214.113 228.438 204.385C231.082 198.672 232.332 192.74 234.107 186.898C235.363 182.769 234.519 178.457 237.72 174.488C240.645 170.866 245.771 169.193 252.346 168.653C262.466 167.82 272.442 168.317 282.356 169.636C291.126 170.802 299.314 172.565 305.29 176.673C306.877 177.767 308.628 178.861 309.659 180.126C315.466 187.223 322.929 193.688 331.261 199.901C341.569 207.595 339.475 215.69 331.53 223.463C324.154 230.681 313.409 236.112 300.17 239.566C284.281 243.71 267.898 247.224 251.934 251.282C245.339 252.959 238.907 255.029 233.094 257.464C225.944 260.46 223.606 265.197 223.662 269.985C223.718 274.822 225.243 279.652 226.131 284.486V284.486C226.364 285.77 225.392 286.96 224.087 286.96C218.708 286.96 213.326 286.96 207.946 286.96C204.954 286.96 202.482 284.892 201.585 282.037V282.037C199.916 276.724 198.659 271.357 194.059 266.495C190.058 262.269 180.77 260.346 173.163 262.412C162.074 265.426 156.486 270.61 156.055 277.543V277.543C155.739 282.644 152.279 286.958 147.168 286.957C146.083 286.957 144.997 286.957 143.912 286.957ZM235.932 227.108C235.838 227.334 235.986 227.588 236.229 227.622V227.622C236.442 227.651 236.579 227.859 236.547 228.071C235.708 233.555 242.899 235.777 250.996 235.04C256.091 234.575 261.304 233.974 266.029 232.837C276.843 230.238 287.638 227.596 296.257 222.715C303.608 218.557 304.665 213.795 301.196 208.647C298.17 204.16 294.445 199.812 290.651 195.515C287.369 191.793 282.819 188.632 275.912 186.859C269.892 185.314 263.266 185.818 259.022 188.636C256.097 190.577 253.259 192.808 251.834 195.196C247.608 202.286 243.983 209.498 240.358 216.698C238.638 220.129 237.377 223.633 235.932 227.108Z" stroke="white" stroke-width="2" stroke-miterlimit="10"/>
<path d="M782.961 286.957C780.551 286.957 778.311 285.712 777.033 283.668C775.411 281.072 773.789 278.477 772.215 275.873C766.046 265.637 759.67 255.437 753.869 245.133C750.35 238.879 751.094 232.483 753.77 226.112C757.157 218.032 761.808 210.227 768.302 202.794C773.178 197.216 779.585 192.275 787.123 187.774C789.842 186.154 792.255 184.342 794.524 182.504C796.837 180.623 797.756 178.5 796.093 176.262C793.986 173.423 791.88 170.58 789.561 167.795C786.654 164.302 783.492 160.877 780.504 157.402C772.372 147.945 761.764 139.489 749.669 131.552C735.799 122.453 722.647 113.004 711.602 102.675C705.645 97.1078 701.626 91.1227 702.308 84.4512C702.995 77.7547 707.946 71.9484 714.746 66.6319C722.216 60.797 731.473 55.9239 740.606 50.9613C746.844 47.5719 752.619 43.8787 758.207 40.1246C767.709 33.7391 777.247 27.3929 788.698 22.0872C792.086 20.5176 795.287 18.8193 798.612 17.2033V17.2033C799.708 16.6726 800.956 17.6496 800.956 18.867C800.956 21.6187 800.956 24.3697 800.956 27.1213C800.956 28.9938 799.604 30.4127 797.843 31.0505V31.0505C787.711 34.7151 779.772 39.7778 771.415 44.583C764.602 48.498 757.657 52.3343 750.825 56.2349C744.156 60.0462 736.911 63.6036 731.073 67.7975C720.603 75.3199 718.797 83.7362 727.16 92.2919C732.067 97.3116 737.862 102.056 743.518 106.822C760.508 121.137 777.591 135.421 794.761 149.668V149.668C798.184 152.509 800.968 156.024 800.968 160.472C800.968 170.08 800.968 179.687 800.968 189.294C800.968 197.642 794.614 204.338 787.773 209.122V209.122C780.791 214.01 778.285 219.941 778.066 225.944C777.691 236.387 776.803 246.867 779.091 257.292C780.897 265.548 785.848 273.195 792.936 280.428V280.428C795.315 282.856 793.52 286.957 790.121 286.957C787.733 286.957 785.347 286.957 782.961 286.957Z" stroke="white" stroke-width="2" stroke-miterlimit="10"/>
<path d="M215.625 1.00672C221.632 1.01207 224.853 7.22089 222.424 12.7148C222.273 13.0564 222.129 13.3989 221.993 13.7424C220.193 18.2938 219.486 22.9953 218.542 27.6468C217.849 31.0647 217.68 34.5149 217.011 37.9329C215.942 43.4246 211.154 47.908 204.797 51.9016C197.628 56.4065 193.627 61.5585 194.083 67.7653C194.327 71.0939 193.865 74.4403 194.183 77.7654C194.777 83.9256 195.609 90.0787 196.534 96.2283C197.403 102.024 198.646 107.798 199.49 113.594C200.028 117.294 195.152 119.682 188.502 119.285C169.7 118.159 153.61 113.847 141.259 105.606C135.258 101.598 130.251 97.1078 124.732 92.8639C119.963 89.1956 115.394 85.4237 110.218 81.9449C101.398 76.0135 89.8408 72.0377 78.4145 67.9833C69.3135 64.7548 60.1063 61.5871 52.5867 57.1287C43.1357 51.5226 39.7916 44.8154 41.4167 37.1428C42.5294 31.8728 45.0859 26.9353 49.7989 22.3303C54.3557 17.8754 60.3876 14.2179 67.7571 11.3577C75.6705 8.29005 83.9714 5.54779 92.0473 2.61246C92.3858 2.49018 92.6917 2.33885 92.9801 2.17188C94.1815 1.47627 95.4881 1.00715 96.8763 1.00715C102.971 1.00715 109.065 1.00715 115.159 1.00715C116.077 1.00715 116.558 2.24486 115.775 2.7233V2.7233C109.068 6.81702 100.679 9.59503 92.3536 12.416C82.8463 15.6337 73.4265 18.9087 66.6258 24.0893C53.7056 33.9321 54.6369 45.9595 70.3887 54.2399C79.2709 58.9092 89.7095 62.649 99.7669 66.5389C109.993 70.4968 119.932 74.5047 126.645 80.6578C131.158 84.7909 135.896 88.8595 141.003 92.7566C145.191 95.953 150.285 98.7238 156.817 100.404C165.337 102.596 173.256 100.912 176.144 96.1031C177.438 93.9401 178.219 91.5947 178.413 89.31C178.894 83.4144 177.113 77.6903 173.037 72.2451C171.112 69.6745 169.062 67.136 166.924 64.6226C161.761 58.5517 162.73 52.7454 170.081 47.5827C175.25 43.9501 181.326 40.7359 187.101 37.393C191.864 34.64 195.709 31.5009 197.846 27.872C200.734 22.9738 203.078 17.9684 205.41 12.9701C206.509 10.6156 207.479 8.24218 208.429 5.86556C209.608 2.92044 212.453 1.00389 215.625 1.00672V1.00672Z" stroke="white" stroke-width="2" stroke-miterlimit="10"/>
<path d="M344.981 286.955C341.218 286.957 338.25 283.613 339.275 279.992C340.849 274.428 343.619 269.046 348.663 264.078C353.451 259.366 361.158 256.345 370.078 254.432C382.892 251.686 396.137 250.925 409.663 251.897C419.965 252.637 430.197 253.692 440.517 254.296C449.918 254.847 459.325 254.611 465.92 249.906C468.882 247.793 471.251 245.365 473.445 242.945C477.765 238.182 481.959 233.359 488.66 229.53C496.961 224.782 507.112 221.557 518.007 219.276C526.858 217.424 535.996 215.94 545.16 214.667C552.598 213.638 560.255 213.884 567.624 215.186C574.525 216.405 578.819 219.433 580.107 223.227C583.445 233.027 582.282 242.669 573.938 251.683C569.731 256.227 562.811 259.194 554.367 260.535C543.578 262.251 532.521 263.417 521.569 264.782C512.743 265.884 503.811 266.76 495.073 268.047C485.39 269.473 479.109 273.295 475.671 278.54C475.152 279.331 474.702 280.136 474.294 280.95C472.491 284.539 469.041 286.949 465.025 286.949C464.776 286.949 464.527 286.949 464.277 286.949C459.247 286.949 455.48 283.016 454.65 278.054V278.054C453.987 274.053 451.993 270.246 446.192 267.664C441.967 265.784 437.498 263.946 432.666 262.673C420.115 259.359 406.807 258.097 393.124 259.616C380.104 261.064 369.29 264.818 361.314 270.968C356.737 274.499 353.443 278.358 351.401 282.512C350.165 285.029 347.786 286.953 344.981 286.955V286.955ZM518.752 254.482C519.805 254.571 520.862 254.6 521.918 254.545C525.31 254.371 527.916 254.257 530.508 254.071C545.291 253.002 562.074 247.31 563.03 236.323C563.624 229.487 557.623 224.664 545.322 224.417C536.359 224.239 528.351 226.123 520.807 228.608C511.837 231.568 504.911 235.644 501.217 241.332C497.692 246.752 501.073 251.818 509.856 253.477C512.893 254.055 516.142 254.263 518.752 254.482Z" stroke="white" stroke-width="2" stroke-miterlimit="10"/>
<path d="M779.298 1.01271C786.235 1.01031 789.502 8.0704 783.717 11.8989C782.826 12.4883 781.91 13.0667 780.973 13.6353C767.152 22.0301 753.232 30.357 741.081 39.5956C737.599 42.2449 733.511 44.651 729.48 47.0429C714.334 56.0312 699.126 64.9623 685.993 74.9947C681.299 78.5807 675.805 81.9057 669.954 84.8875C663.91 87.9659 656.184 88.5272 648.221 88.0266C643.995 87.7621 639.732 87.6906 635.494 87.5047C625.368 87.0613 615.148 87.0256 605.447 84.8875C596.971 83.0176 594.502 79.0169 595.527 74.7623C596.652 70.1144 598.478 65.5201 599.421 60.8651C601.797 49.1667 600.678 37.6756 591.358 26.8889C586.501 21.2685 579.488 16.592 571.062 12.5877C565.193 9.79897 559.205 7.08531 551.81 5.7982C546.434 4.86504 540.984 4.89007 535.739 6.4203C527.757 8.74783 519.688 10.9002 510.574 11.4758C503.08 11.9477 496.116 10.8251 489.303 9.39138C482.809 8.02561 477.052 5.8554 472.258 2.95583V2.95583C471.376 2.42269 472.058 1.01086 473.088 1.01086C509.728 1.01086 546.367 1.01086 583.007 1.01086C584.051 1.01086 584.755 1.77159 585.457 2.54467V2.54467C588.514 5.91976 591.558 9.302 594.752 12.6378C601.984 20.1852 607.866 28.008 611.104 36.4743C613.611 43.0279 616.33 49.5778 619.736 55.9955C622.193 60.6255 627.437 64.3188 635.55 66.2566C652.659 70.3396 668.892 69.3707 683.324 62.6384C691.419 58.8629 699.032 54.6798 706.146 50.3C713.903 45.5234 721.329 40.5108 728.004 35.2301C737.824 27.4538 747.994 19.9028 759.952 13.1419C764.14 10.7714 767.809 8.07567 771.39 5.38704C771.936 4.97718 772.403 4.53361 772.829 4.07203C774.535 2.22167 776.781 1.01358 779.298 1.01271V1.01271Z" stroke="white" stroke-width="2" stroke-miterlimit="10"/>
<path d="M198.45 1.01253C204.138 1.01015 208.172 6.86078 205.829 12.0428C205.687 12.3558 205.543 12.6686 205.397 12.981C203.066 17.9793 200.722 22.9847 197.834 27.8829C195.696 31.5118 191.852 34.6509 187.089 37.4039C181.307 40.7432 175.238 43.961 170.069 47.5935C162.718 52.7527 161.755 58.5626 166.912 64.6334C169.05 67.1469 171.1 69.6889 173.025 72.256C177.107 77.7012 178.888 83.4252 178.401 89.3209C178.213 91.6055 177.432 93.9509 176.132 96.114C173.25 100.923 165.324 102.607 156.805 100.415C150.273 98.7347 145.178 95.9638 140.99 92.7675C135.884 88.8704 131.146 84.8017 126.633 80.6687C119.919 74.5156 109.981 70.5077 99.7546 66.5498C89.6973 62.6599 79.2649 58.9201 70.3764 54.2507C54.6247 45.9703 53.6934 33.9466 66.6135 24.1002C73.4143 18.9196 82.8403 15.6446 92.3413 12.4268C100.673 9.6059 109.056 6.82789 115.763 2.73416C115.775 2.72653 115.788 2.71887 115.8 2.71117C117.267 1.79976 118.808 1.01801 120.535 1.01801C126.07 1.01801 131.605 1.01801 137.14 1.01801C137.85 1.01801 138.273 1.97909 137.671 2.35518V2.35518C127.664 8.56906 116.181 13.7032 103.499 18.0472C94.5166 21.122 85.3593 24.1931 79.8837 29.6634C74.5644 34.9763 74.1706 40.4107 79.915 45.5627C89.3973 54.0612 103.474 58.8057 120.619 60.5969C125.514 61.1082 130.496 60.5254 133.696 58.1764C138.209 54.8621 142.209 51.3083 146.297 47.8116C151.467 43.3925 157.455 39.4096 164.443 35.8844C171.725 32.2126 178.457 28.2261 182.826 23.1778C186.905 18.4658 188.959 13.4993 190.02 8.41384C190.879 4.30084 194.249 1.01429 198.45 1.01253V1.01253Z" stroke="white" stroke-width="2" stroke-miterlimit="10"/>
<path d="M1.01259 40.3706C1.01259 39.3105 2.60087 38.9569 2.84405 39.9887V39.9887C3.96292 44.751 4.33796 49.5884 6.02565 54.2756C8.10713 60.0569 14.139 64.5904 22.0274 68.3766C37.2541 75.6881 54.431 81.2835 71.3766 87.1077C84.2717 91.5411 96.1793 96.6537 102.336 104.891C103.968 107.079 104.593 109.539 105.343 111.91C106.58 115.825 98.6983 119.182 93.2727 118.942C86.1344 118.628 78.9774 118.345 71.8891 117.787C58.9315 116.765 50.193 119.475 45.5487 126.457C42.6297 130.848 40.4669 135.41 37.4416 139.775C32.6036 146.772 26.1529 153.244 15.2017 157.741C14.9199 157.857 14.6363 157.972 14.3508 158.086C7.31854 160.902 1.00635 154.938 1.00635 147.363V147.363C1.00635 142.796 3.60985 138.978 7.1771 136.126C7.57553 135.807 7.93974 135.478 8.25714 135.135C11.4075 131.738 13.764 128.099 16.4455 124.559C21.8899 117.369 27.4405 110.204 32.7411 102.978C35.8727 98.7095 36.3977 94.4049 32.391 90.1109C28.5156 85.9529 22.4962 82.946 16.2018 80.1358C12.8201 78.6247 9.1842 77.2999 5.55391 75.9713C2.81116 74.9676 1.00734 72.3528 1.00842 69.4322C1.01202 59.745 1.01252 50.0578 1.01259 40.3706Z" stroke="white" stroke-width="2" stroke-miterlimit="10"/>
<path d="M615.621 16.0756C611.729 9.40334 616.14 1.01086 623.864 1.01086C625.25 1.01086 626.636 1.01086 628.022 1.01086C629.779 1.01086 630.951 2.3146 631.9 3.79245V3.79245C636.982 11.7261 642.008 19.6704 647.377 27.5396C649.021 29.9458 651.346 32.2555 653.94 34.3756C657.541 37.3217 663.648 37.7185 668.717 35.5769C672.736 33.8786 674.911 31.4117 676.487 28.8124C681.031 21.315 687.738 14.5219 696.045 8.19008C697.227 7.28927 698.32 6.35006 699.375 5.39467C702.445 2.61292 706.382 1.01444 710.526 1.01444C722.674 1.01444 734.823 1.01444 746.972 1.01444C748.003 1.01444 748.685 2.42804 747.801 2.95941V2.95941C744.582 4.90437 741.35 6.85649 737.875 8.64772C726.63 14.4433 718.798 21.5867 711.809 29.1807C707.278 34.1039 701.896 38.809 696.264 43.3532C690.619 47.9081 683.319 51.5407 674.405 54.0112C660.622 57.8296 645.521 55.8131 636.232 48.8735C630.85 44.8548 628.544 40.0711 626 35.3552C622.562 28.9912 619.38 22.5771 615.724 16.2524C615.689 16.1935 615.655 16.1345 615.621 16.0756Z" stroke="white" stroke-width="2" stroke-miterlimit="10"/>
<path d="M169.618 1.01086C181.189 1.01086 191.365 11.7323 184.528 21.0683C184.011 21.7743 183.453 22.4752 182.851 23.1706C178.482 28.2189 171.75 32.209 164.468 35.8772C157.473 39.4025 151.492 43.3818 146.322 47.8045C142.228 51.3047 138.234 54.855 133.721 58.1693C130.527 60.5147 125.545 61.101 120.644 60.5898C103.499 58.7985 89.4223 54.0541 79.94 45.5556C74.1894 40.4036 74.5894 34.9691 79.9087 29.6562C85.3843 24.186 94.5416 21.1148 103.524 18.04C116.206 13.6961 127.689 8.56191 137.696 2.34803V2.34803C138.769 1.6777 139.838 1.01086 141.103 1.01086C150.606 1.01086 160.111 1.01086 169.618 1.01086ZM115 44.6475C121.876 44.458 126.689 42.0411 131.233 39.5169C135.246 37.2895 138.796 34.7939 142.609 32.4485C146.641 29.9708 150.842 27.5825 154.804 25.0691C158.399 22.7916 161.136 20.2103 162.086 17.1176C163.068 13.9177 159.124 11.7439 153.829 12.7307C150.998 13.2563 148.166 13.9606 145.672 14.8866C135.39 18.7015 125.195 22.595 115.063 26.5385C110.7 28.2368 106.293 29.9494 103.493 32.6452C100.88 35.1622 99.9922 37.7757 102.692 40.4072C105.412 43.0457 109.618 44.4294 115 44.6475Z" stroke="white" stroke-width="2" stroke-miterlimit="10"/>
<path d="M600.468 1.01086C603.899 1.01086 607.097 2.75255 608.987 5.61577C611.316 9.14484 613.645 12.6734 615.711 16.2524C619.367 22.5771 622.549 28.9912 625.987 35.3552C628.537 40.0711 630.844 44.8513 636.219 48.8735C645.502 55.8131 660.61 57.8296 674.392 54.0112C683.312 51.5407 690.613 47.9081 696.251 43.3532C701.883 38.809 707.265 34.1039 711.796 29.1807C718.785 21.5867 726.617 14.4469 737.862 8.64772C741.337 6.85649 744.569 4.90437 747.788 2.95941V2.95941C749.289 2.05755 750.691 1.01444 752.442 1.01444C758.098 1.01444 763.756 1.01444 769.412 1.01444C771.711 1.01444 773.208 4.0055 771.372 5.38704V5.38704C767.79 8.07567 764.127 10.7714 759.933 13.1419C747.975 19.9028 737.805 27.4538 727.986 35.2301C721.316 40.5108 713.884 45.5234 706.127 50.3C699.014 54.6798 691.4 58.8629 683.306 62.6384C668.873 69.3707 652.646 70.3396 635.532 66.2566C627.418 64.3224 622.174 60.6255 619.718 55.9955C616.311 49.5778 613.592 43.0314 611.085 36.4743C607.847 28.008 601.966 20.1852 594.734 12.6378C591.539 9.302 588.495 5.92333 585.439 2.54467V2.54467C584.901 1.95246 585.614 1.01086 586.414 1.01086C591.107 1.01086 595.789 1.01086 600.468 1.01086Z" stroke="white" stroke-width="2" stroke-miterlimit="10"/>
<path d="M800.956 146.084C800.956 149.285 797.213 151.709 794.749 149.665V149.665C777.585 135.417 760.502 121.134 743.506 106.818C737.849 102.052 732.055 97.308 727.148 92.2883C718.785 83.7326 720.591 75.3127 731.061 67.7938C736.899 63.6 744.144 60.0426 750.813 56.2313C757.645 52.3271 764.596 48.4944 771.403 44.5794C779.76 39.7742 787.705 34.7116 797.831 31.0469V31.0469C799.371 30.491 800.944 31.8795 800.944 33.5172C800.944 38.924 800.944 44.3304 800.944 49.735C800.944 51.1248 799.947 52.2286 798.612 52.6167V52.6167C784.361 56.714 770.559 61.251 758.308 67.136C752.426 69.9641 747.775 73.3642 746.456 77.937C745.288 82.0128 747.813 85.5417 751.032 88.9811C756.426 94.7481 762.183 100.408 767.259 106.261C775.397 115.656 785.58 124.23 797.525 132.142V132.142C799.404 133.395 800.947 135.076 800.95 137.335C800.953 140.252 800.955 143.168 800.956 146.084Z" stroke="white" stroke-width="2" stroke-miterlimit="10"/>
<path d="M800.956 129.892C800.956 131.663 799.016 133.126 797.537 132.153V132.153C785.592 124.237 775.41 115.664 767.271 106.271C762.202 100.415 756.439 94.7552 751.045 88.9918C747.825 85.5488 745.294 82.0236 746.469 77.9477C747.782 73.3713 752.439 69.9712 758.32 67.1467C770.572 61.2582 784.373 56.7247 798.625 52.6274V52.6274C799.806 52.2895 800.956 53.286 800.956 54.515C800.956 60.5472 800.956 66.5793 800.956 72.6115C800.956 80.4338 792.05 86.7971 790.355 94.4334V94.4334C788.936 100.826 791.974 106.529 798.387 111.713V111.713C799.729 112.794 800.951 114 800.952 115.723C800.955 120.444 800.956 125.168 800.956 129.892Z" stroke="white" stroke-width="2" stroke-miterlimit="10"/>
<path d="M1.01206 213.866C1.01294 205.786 8.34914 197.934 15.4767 201.739V201.739C20.1084 204.21 20.671 207.517 20.9023 210.756C21.1586 214.303 20.3897 217.871 20.4335 221.428C20.5147 227.932 22.1274 234.303 25.6653 240.521C28.2718 245.093 30.7909 249.698 32.7473 254.375C35.7101 261.472 33.6474 268.529 31.3222 275.559C31.2766 275.697 31.2313 275.835 31.1862 275.973C29.0753 282.442 23.2231 286.953 16.418 286.953C13.8729 286.953 11.3278 286.953 8.78265 286.953C4.49137 286.953 1.0126 283.474 1.0126 279.183C1.0126 278.354 1.0126 277.525 1.0126 276.695C1.0126 274.724 2.45196 273.343 4.18795 272.409V272.409C14.6703 266.813 17.7644 259.684 14.5453 252.072C11.9325 245.898 7.08201 240.031 3.13158 234.046V234.046C2.24854 232.705 1.00691 231.653 1.00768 230.047C1.01024 224.653 1.01147 219.26 1.01206 213.866Z" stroke="white" stroke-width="2" stroke-miterlimit="10"/>
<path d="M693.305 1.01089C697.099 1.0109 699.063 5.88689 696.045 8.18654V8.18654C687.737 14.5184 681.03 21.3115 676.486 28.8089C674.911 31.4081 672.73 33.8751 668.717 35.5734C663.647 37.715 657.54 37.3181 653.94 34.3721C651.346 32.2519 649.021 29.9423 647.377 27.5361C642.007 19.6668 636.982 11.7225 631.9 3.78891V3.78891C631.114 2.56415 632.46 1.00754 633.915 1.00774C653.71 1.01041 673.509 1.01082 693.305 1.01089Z" stroke="white" stroke-width="2" stroke-miterlimit="10"/>
<path d="M801 285.884C801.012 287.586 798.441 286.276 797.28 285.032C795.844 283.491 794.409 281.95 792.918 280.428C785.836 273.199 780.885 265.548 779.073 257.292C776.791 246.867 777.679 236.387 778.047 225.944C778.26 219.945 780.773 214.01 787.755 209.122V209.122C793.867 204.841 800.95 210.598 800.95 218.06C800.95 225.91 800.95 233.76 800.95 241.61C800.95 242.473 800.074 242.932 799.819 243.756V243.756C797.975 249.741 796.749 255.744 799.356 261.761V261.761C799.937 263.1 800.956 264.19 800.955 265.649C800.951 272.394 800.932 279.14 801 285.884V285.884Z" stroke="white" stroke-width="2" stroke-miterlimit="10"/>
<path d="M1.0127 85.9173C1.0127 80.3034 6.68435 76.2995 11.9113 78.3474C13.3747 78.9207 14.8131 79.5124 16.2081 80.1358C22.4963 82.946 28.5157 85.9528 32.3974 90.1109C36.4041 94.4048 35.879 98.7095 32.7474 102.978C27.4468 110.204 21.9025 117.369 16.4519 124.559C13.7703 128.099 11.4138 131.738 8.26349 135.135V135.135C5.69845 137.893 1.0127 135.031 1.0127 131.265C1.0127 124.603 1.0127 117.942 1.0127 111.28C1.0127 110.065 1.92787 109.27 2.73163 108.359V108.359C5.78822 104.895 7.4634 101.216 6.43829 97.3437C6.20136 96.4493 5.87587 95.5515 5.33636 94.7061C3.54854 91.9047 1.0127 89.2405 1.0127 85.9173V85.9173Z" stroke="white" stroke-width="2" stroke-miterlimit="10"/>
<path d="M356.922 286.957C353.297 286.957 350.694 283.479 352.584 280.385C354.63 277.037 357.539 273.894 361.328 270.975C369.303 264.825 380.117 261.071 393.137 259.623C406.82 258.104 420.121 259.366 432.679 262.68C437.511 263.957 441.974 265.794 446.206 267.671C452.012 270.253 454 274.057 454.663 278.061C454.72 278.41 454.771 278.76 454.816 279.11C455.359 283.323 451.744 286.957 447.495 286.957C446.559 286.957 445.623 286.957 444.686 286.957C442.891 286.957 441.493 285.666 440.942 283.957V283.957C439.586 279.767 437.63 275.734 432.304 272.505C422.934 266.828 411.027 264.911 398.138 266.041C379.872 267.642 368.091 274.481 362.054 283.951C360.921 285.729 359.03 286.957 356.922 286.957V286.957Z" stroke="white" stroke-width="2" stroke-miterlimit="10"/>
<path d="M166.073 286.957C160.76 286.957 155.745 282.842 156.073 277.539V277.539C156.505 270.607 162.086 265.422 173.181 262.408C180.782 260.342 190.077 262.265 194.077 266.491C198.678 271.354 199.941 276.72 201.603 282.033V282.033C202.375 284.494 200.371 286.957 197.792 286.957C187.217 286.957 176.645 286.957 166.073 286.957Z" stroke="white" stroke-width="2" stroke-miterlimit="10"/>
<path d="M514.299 286.958C504.67 286.956 501.777 278.659 511.112 276.298V276.298C519.257 274.235 527.914 273.402 536.79 272.927C543.522 272.566 549.991 272.838 556.542 273.624C556.939 273.672 557.329 273.723 557.712 273.779C569.961 275.558 564.056 286.96 551.679 286.96C548.957 286.96 546.235 286.96 543.514 286.96C540.204 286.96 536.888 286.077 533.586 285.852C532.117 285.753 530.563 285.786 529.15 285.953C526.57 286.257 523.985 286.96 521.387 286.959C519.025 286.958 516.662 286.958 514.299 286.958Z" stroke="white" stroke-width="2" stroke-miterlimit="10"/>
<path d="M369.104 286.957C365.067 286.957 362.544 282.74 365.263 279.756C371.883 272.491 382.69 267.395 398.131 266.041C411.02 264.911 422.928 266.828 432.298 272.505C437.629 275.734 439.58 279.767 440.936 283.957V283.957C441.42 285.461 440.11 286.957 438.53 286.957C436.792 286.957 435.054 286.957 433.315 286.957C430.138 286.957 427.485 284.576 425.556 282.053C420.527 275.475 408.563 271.49 395.537 273.714C385.253 275.47 378.238 279.127 374.011 284.382C372.795 285.893 371.043 286.957 369.104 286.957V286.957Z" stroke="white" stroke-width="2" stroke-miterlimit="10"/>
<path d="M683.402 286.957C679.439 286.957 676.21 282.331 678.786 279.32V279.32C683.031 274.368 691.325 273.503 699.789 273.814C711.603 274.246 722.004 276.835 729.998 281.998V281.998C732.221 283.434 730.844 286.957 728.197 286.957C713.266 286.957 698.334 286.957 683.402 286.957Z" stroke="white" stroke-width="2" stroke-miterlimit="10"/>
<path d="M386.389 286.957C380.124 286.957 377.033 280.452 382.646 277.667C386.187 275.911 390.467 274.581 395.544 273.714C404.842 272.126 413.601 273.703 419.682 277.127C425.623 280.474 421.49 286.957 414.671 286.957V286.957C411.182 286.957 407.777 285.049 404.37 284.302C403.014 284.006 401.534 283.883 400.075 283.882C397.827 283.878 395.525 284.103 393.627 284.777C391.264 285.616 388.897 286.957 386.389 286.957V286.957Z" stroke="white" stroke-width="2" stroke-miterlimit="10"/>
<path d="M436.228 1.01086C439.339 1.01086 442.029 3.24446 442.517 6.31662V6.31662C442.667 7.2605 442.886 8.21153 442.817 9.15541C442.667 11.179 440.361 12.4518 436.823 12.4375C426.353 12.3946 416.514 10.5855 406.913 8.5047C400.856 7.19257 395.218 5.21542 389.549 3.37772V3.37772C388.301 2.97298 388.978 1.01086 390.289 1.01086C405.598 1.01086 420.911 1.01086 436.228 1.01086Z" stroke="white" stroke-width="2" stroke-miterlimit="10"/>
<path d="M1.0127 235.201C1.01269 234.093 2.52558 233.125 3.13793 234.049V234.049C7.08836 240.034 11.9389 245.898 14.5517 252.076C17.7708 259.688 14.6767 266.817 4.19429 272.412V272.412C2.72906 273.194 1.01818 271.71 1.01754 270.049C1.01303 258.433 1.01272 246.817 1.0127 235.201Z" stroke="white" stroke-width="2" stroke-miterlimit="10"/>
<path d="M800.956 110.055C800.956 111.384 799.424 112.544 798.393 111.706V111.706C791.974 106.522 788.942 100.819 790.361 94.4263C790.52 93.7095 791.029 92.8374 791.773 91.9359C795.52 87.3975 800.959 91.4932 800.958 97.3785C800.956 101.604 800.956 105.83 800.956 110.055Z" stroke="white" stroke-width="2" stroke-miterlimit="10"/>
<path d="M1.0127 99.7778C1.0127 95.7547 5.40815 93.462 6.43829 97.3509V97.3509C7.45715 101.219 5.78197 104.898 2.73163 108.366V108.366C2.13925 109.038 1.0127 108.236 1.0127 107.34C1.0127 104.819 1.0127 102.298 1.0127 99.7778Z" stroke="white" stroke-width="2" stroke-miterlimit="10"/>
<path d="M305.887 286.957C303.841 286.957 302.714 284.063 304.558 283.177V283.177C308.715 281.182 312.597 281.687 315.403 284.347V284.347C316.386 285.278 315.397 286.957 314.042 286.957C311.323 286.957 308.605 286.957 305.887 286.957Z" stroke="white" stroke-width="2" stroke-miterlimit="10"/>
<path d="M800.957 261.081C800.957 261.93 799.695 262.537 799.356 261.758V261.758C796.75 255.741 797.975 249.738 799.819 243.753V243.753C799.996 243.182 800.951 243.778 800.952 244.375C800.956 249.943 800.957 255.513 800.957 261.081Z" stroke="white" stroke-width="2" stroke-miterlimit="10"/>
<path d="M399.965 286.957C396.052 286.957 395.244 284.001 399.155 283.893C399.46 283.885 399.765 283.881 400.069 283.882C400.314 283.882 400.56 283.886 400.805 283.894C404.632 284.011 403.794 286.957 399.965 286.957V286.957Z" stroke="white" stroke-width="2" stroke-miterlimit="10"/>
<path d="M531.908 286.957C530.191 286.957 530.033 285.804 531.75 285.793C531.855 285.793 531.961 285.793 532.066 285.793C533.784 285.804 533.626 286.957 531.908 286.957V286.957Z" stroke="white" stroke-width="2" stroke-miterlimit="10"/>
<path d="M343.544 33.1849C342.994 41.0863 338.381 48.2906 331.661 55.1087C324.673 62.1949 314.247 67.4506 303.452 72.5526C294.488 76.7893 285.481 81.0368 277.205 85.6954C269.754 89.8928 263.472 94.7624 256.309 99.1385C248.021 104.201 237.219 107.061 225.874 102.446C221.724 100.755 218.674 98.4485 216.717 95.7742C208.748 84.8623 210.954 72.9316 226.537 64.1041C230.738 61.7266 234.713 59.1952 238.476 56.5888C245.345 51.8301 247.346 46.3706 245.089 40.3391C243.326 35.6304 241.314 30.9324 240.232 26.1666C238.526 18.6405 242.076 11.9476 252.421 6.89567C257.384 4.47161 263.704 4.09263 269.911 4.73618C284.218 6.22351 297.901 8.93002 310.996 12.5017C317.828 14.3645 324.585 16.4346 330.786 18.898C339.262 22.2766 344.237 26.9603 343.544 33.1849ZM274.867 25.7291C272.23 27.7597 272.987 31.6259 274.288 34.6889C274.502 35.1925 274.723 35.6949 274.955 36.1953C276.843 40.2711 279.024 44.3041 280.706 48.4085C281.787 51.0578 281.962 53.8251 282.968 56.4887C283.968 59.1416 287.95 60.4716 292.419 59.66C305.314 57.3182 314.322 49.7278 313.959 41.7978C313.534 32.4841 299.951 25.3299 285.844 23.6424C281.09 23.0719 277.223 23.9141 274.867 25.7291Z" stroke="white" stroke-width="2" stroke-miterlimit="10"/>
<path d="M47.8332 228.528C47.7995 227.357 47.8289 226.181 47.8551 225.011C47.9623 220.221 49.8891 215.732 52.5365 211.367C58.0559 202.261 63.6878 193.169 69.8947 184.213C73.095 179.597 78.0393 175.343 87.8779 174.906C93.1785 174.67 98.6041 175.314 103.961 175.596C116.356 176.247 128.739 177.373 141.14 177.441C151.229 177.495 161.348 176.301 171.443 175.639C179.063 175.139 186.651 174.338 194.352 175.203C206.753 176.598 214.967 182.028 216.686 189.404C218.348 196.548 215.386 203.144 210.204 209.455C206.672 213.752 202.347 217.839 198.184 221.957C190.045 230.009 178.363 236.076 165.024 241.246C152.429 246.127 140.327 251.439 130.308 258C123.219 262.637 117.35 267.879 110.812 272.795C108.318 274.672 105.786 276.599 102.717 278.143C95.7538 281.651 87.4716 278.93 83.5274 276.256C76.8767 271.747 73.9951 266.148 69.8259 260.907C65.7817 255.819 61.2687 250.853 57.012 245.819C52.3203 240.262 48.009 234.64 47.8332 228.528ZM132.658 187.238C124.776 187.238 116.856 187.03 108.986 187.288C97.8915 187.652 88.4717 190.33 81.3272 195.232C72.6825 201.16 66.7006 207.957 62.9064 215.34C59.131 222.672 58.706 229.977 64.7566 237.074C68.8258 241.85 74.6515 245.84 81.3647 249.466C91.097 254.718 102.004 256.234 114.418 252.566C131.689 247.464 146.166 240.199 160.636 232.959C171.443 227.553 180.026 221.035 187.589 214.081C193.052 209.061 198.215 203.956 198.69 197.824C198.965 194.267 197.284 191.11 192.264 188.793C185.701 185.765 177.863 185.611 170.006 185.85C157.567 186.233 145.147 186.766 132.658 187.238Z" stroke="white" stroke-width="2" stroke-miterlimit="10"/>
<path d="M509.768 82.7029C502.142 82.4955 495.91 82.3954 489.697 82.1451C480.984 81.7947 475.714 78.7057 475.396 73.736C475.064 68.6877 474.871 63.6357 474.752 58.5838C474.546 49.8172 471.77 41.3437 466.351 33.1384C464.995 31.0862 463.976 28.9446 463.094 26.8065C461.763 23.578 465.326 21.6045 471.402 22.1872C479.084 22.9273 486.797 23.6209 494.404 24.5755C508.974 26.4025 523.263 25.5373 537.659 23.8211C543.459 23.1311 549.673 22.8236 555.529 23.1955C569.631 24.0929 578.294 29.1984 582.951 36.5242C589.708 47.1572 586.133 57.2217 576.751 66.8321C572.85 70.8257 567.9 74.3295 561.468 77.0682C555.061 79.7926 547.697 81.3335 539.822 81.7232C529.37 82.2452 518.875 82.4204 509.768 82.7029ZM546.585 34.6078C538.109 34.6078 517.663 36.7924 510.275 38.2368C501.067 40.0387 495.098 43.3781 494.273 49.095C493.71 53.0099 493.866 56.9356 495.91 60.7576C498.242 65.1302 502.549 68.4696 510.162 70.3216C518.344 72.3094 526.758 72.6634 535.465 72.0413C557.086 70.4968 573.069 57.7401 570.319 46.0095C569.669 43.2494 567.962 40.7466 564.612 38.6301C559.517 35.4051 553.142 34.2682 546.585 34.6078Z" stroke="white" stroke-width="2" stroke-miterlimit="10"/>
<path d="M385.136 192.15C373.235 192.143 363.302 189.79 355.233 184.835C346.457 179.443 337.168 174.291 328.98 168.621C318.916 161.653 319.648 151.227 329.911 145.206C337.8 140.58 347.319 137.334 358.383 135.685C364.021 134.845 369.728 134.602 375.322 135.492C381.792 136.522 386.617 138.992 390.387 142.089C400.994 150.798 409.832 160.04 413.483 170.541C414.733 174.131 414.877 178.046 413.82 181.649C412.339 186.705 406.045 189.823 397.4 191.099C393.418 191.685 389.23 191.814 385.136 192.15ZM370.191 161.303C368.779 162.705 369.356 165.059 370.496 166.69C372.261 169.219 375.385 171.502 380.329 173.097C382.504 173.798 384.667 173.884 386.742 172.976C388.974 172.003 390.293 170.752 389.58 169.114C387.886 165.207 384.511 161.996 377.816 160.23C374.625 159.388 371.693 159.813 370.191 161.303Z" stroke="white" stroke-width="2" stroke-miterlimit="10"/>
<path d="M608.473 119.993C607.767 127.634 605.641 135.12 600.541 142.235C598.209 145.492 594.903 148.499 588.602 149.561C581.82 150.702 575.019 150.251 568.506 148.632C551.779 144.477 545.56 134.57 547.573 125.682C548.654 120.93 551.41 116.507 556.486 112.7C563.249 107.63 571.6 104.155 583.533 104.273C598.203 104.419 608.448 110.168 608.473 118.563C608.473 119.042 608.473 119.518 608.473 119.993ZM581.956 130.666C582.451 129.795 582.313 128.651 581.817 127.78C580.734 125.878 577.666 124.656 575.038 125.331C570.025 126.618 568.781 130.759 573.038 132.714C574.15 133.226 576.513 133.504 577.701 133.175C579.675 132.626 581.311 131.798 581.956 130.666Z" stroke="white" stroke-width="2" stroke-miterlimit="10"/>
<path d="M651.741 180.468C653.459 182.386 653.461 185.796 651.618 187.594C650.625 188.564 649.065 189.33 647.027 189.908C643.308 190.967 638.595 190.202 635.032 188.325C632.101 186.78 630.069 184.992 629.319 182.736C628.556 180.445 630.357 177.652 633.363 176.558C636.807 175.307 643.058 175.511 646.621 177.152C648.738 178.127 650.603 179.197 651.741 180.468Z" stroke="white" stroke-width="2" stroke-miterlimit="10"/>
<path d="M314.916 122.192C308.359 122.274 302.058 121.502 296.782 118.914C292.469 116.801 290.094 114.08 289.769 110.848C289.075 103.937 294.37 98.2805 301.577 93.0856C309.403 87.4473 319.41 83.1426 329.03 78.6056C338.349 74.208 347.094 69.4635 354.564 64.0255C362.977 57.901 370.897 51.5512 379.46 45.5018C384.492 41.948 390.186 38.6944 398.219 37.2C414.495 34.1717 433.885 40.2104 438.567 49.6635C440.986 54.5438 439.31 59.1345 436.398 63.6322C431.01 71.9448 425.265 80.1823 419.708 88.4627C412.689 98.9169 399.794 105.664 381.31 109.393C366.609 112.36 352.338 116.028 337.831 119.31C330.549 120.959 323.098 122.285 314.916 122.192ZM412.22 61.2439C412.22 60.6468 412.264 60.0533 412.214 59.4562C411.901 55.8094 406.913 53.5534 400.906 54.7047C397.037 55.4448 393.018 56.4887 389.999 58.0082C381.417 62.3201 373.353 66.9715 365.002 71.4335C357.945 75.2019 350.832 78.9452 343.606 82.6099C336.08 86.4248 328.23 90.0323 320.841 93.9258C316.828 96.0424 314.191 98.7775 313.109 101.931C311.828 105.674 314.528 108.366 320.773 109.578C326.067 110.605 331.274 109.982 336.005 108.82C349.951 105.403 363.802 101.845 377.46 98.066C385.273 95.9065 392.455 92.9569 397.106 88.6736C400.638 85.4237 403.532 81.8734 405.794 78.2659C409.245 72.7886 411.439 67.0859 412.22 61.2439Z" stroke="white" stroke-width="2" stroke-miterlimit="10"/>
<path d="M697.446 192.253C696.474 189.061 696.288 185.663 696.861 182.376C697.756 177.239 698.572 172.526 699.489 167.82C699.889 165.761 700.62 163.712 701.414 161.689C703.671 155.893 711.765 154.806 719.304 155.586C729.355 156.626 735.968 160.065 739.35 165.629C742.394 170.645 741.962 175.682 740.356 180.777C738.362 187.102 735.28 193.191 728.336 198.396C725.398 200.595 721.829 202.408 717.072 203.287C709.278 204.728 702.052 202.876 699.789 198.364C698.765 196.322 698.048 194.23 697.446 192.253Z" stroke="white" stroke-width="2" stroke-miterlimit="10"/>
<path d="M660.622 128.603C666.06 128.821 671.805 130.594 676.18 133.823C679.674 136.4 682.006 139.278 683.006 142.514C683.887 145.382 682.068 147.806 677.618 149.297C673.136 150.798 668.092 151.002 663.148 150.913C659.472 150.848 655.784 150.265 652.184 149.733C640.533 148.002 636.338 140.802 642.333 134.477C645.839 130.776 651.19 128.553 660.622 128.603Z" stroke="white" stroke-width="2" stroke-miterlimit="10"/>
<path d="M639.101 259.691C631.082 259.026 619.593 258.447 610.104 254.196C605.304 252.047 603.666 248.94 602.572 245.655C600.653 239.863 601.928 234.264 605.879 228.908C608.598 225.225 614.223 223.86 620.937 224.843C634.469 226.823 643.645 231.979 651.009 238.425C655.128 242.033 657.397 246.073 658.259 250.288C659.341 255.558 654.515 260.152 639.101 259.691Z" stroke="white" stroke-width="2" stroke-miterlimit="10"/>
<path d="M434.479 222.708C437.717 223.062 441.061 223.227 444.167 223.806C449.874 224.875 452.299 227.817 451.024 231.167C448.03 239.04 437.192 242.873 422.702 241.593C417.814 241.16 412.845 240.524 408.295 239.448C398.269 237.077 398.394 232.143 406.044 228.393C413.783 224.603 423.64 222.976 434.479 222.708Z" stroke="white" stroke-width="2" stroke-miterlimit="10"/>
<path d="M236.232 227.623C235.986 227.588 235.839 227.331 235.935 227.103C237.379 223.629 238.639 220.128 240.364 216.702C243.989 209.501 247.615 202.29 251.84 195.2C253.265 192.815 256.103 190.581 259.028 188.639C263.273 185.822 269.898 185.314 275.918 186.862C282.825 188.636 287.369 191.796 290.657 195.518C294.451 199.819 298.176 204.163 301.202 208.65C304.677 213.795 303.615 218.561 296.264 222.719C287.638 227.596 276.849 230.241 266.035 232.841C261.31 233.978 256.103 234.578 251.003 235.043C242.905 235.78 235.709 233.562 236.553 228.076C236.585 227.862 236.446 227.653 236.232 227.623V227.623Z" stroke="white" stroke-width="2" stroke-miterlimit="10"/>
<path d="M521.926 254.544C520.865 254.599 519.802 254.571 518.743 254.482C516.135 254.263 512.889 254.055 509.855 253.481C501.073 251.818 497.692 246.756 501.217 241.336C504.917 235.647 511.837 231.572 520.807 228.611C528.345 226.123 536.352 224.242 545.322 224.421C557.623 224.668 563.624 229.491 563.03 236.327C562.074 247.314 545.291 253.005 530.508 254.074C527.918 254.258 525.314 254.368 521.926 254.544Z" stroke="white" stroke-width="2" stroke-miterlimit="10"/>
<path d="M115 44.6473C109.618 44.4292 105.411 43.0456 102.705 40.4106C99.9984 37.7792 100.892 35.1656 103.505 32.6486C106.299 29.9528 110.712 28.2403 115.075 26.542C125.207 22.5984 135.402 18.7049 145.685 14.8901C148.179 13.9641 151.004 13.2597 153.842 12.7342C159.136 11.7509 163.08 13.9212 162.099 17.1211C161.149 20.2173 158.411 22.7951 154.817 25.0725C150.854 27.586 146.653 29.9743 142.622 32.452C138.803 34.7938 135.252 37.2929 131.246 39.5203C126.689 42.0409 121.876 44.4543 115 44.6473Z" stroke="white" stroke-width="2" stroke-miterlimit="10"/>
<path d="M274.289 34.6889C272.988 31.6259 272.23 27.7597 274.867 25.7291C277.224 23.9141 281.091 23.0719 285.844 23.6424C299.952 25.3335 313.528 32.4842 313.96 41.7978C314.322 49.7243 305.309 57.3147 292.42 59.6601C287.95 60.4716 283.975 59.1416 282.969 56.4888C281.962 53.8252 281.787 51.0579 280.706 48.4086C279.024 44.3077 276.843 40.2712 274.955 36.1953C274.724 35.6949 274.503 35.1925 274.289 34.6889Z" stroke="white" stroke-width="2" stroke-miterlimit="10"/>
<path d="M132.658 187.238C145.141 186.769 157.567 186.233 170 185.858C177.857 185.618 185.702 185.772 192.259 188.8C197.278 191.117 198.966 194.274 198.684 197.831C198.203 203.963 193.046 209.065 187.583 214.088C180.02 221.042 171.438 227.56 160.63 232.966C146.16 240.206 131.69 247.471 114.413 252.573C101.993 256.241 91.0851 254.725 81.359 249.473C74.6458 245.848 68.8201 241.858 64.7509 237.081C58.7003 229.984 59.1316 222.68 62.9007 215.347C66.7011 207.964 72.6768 201.167 81.3215 195.239C88.466 190.341 97.8858 187.66 108.981 187.295C116.857 187.027 124.776 187.238 132.658 187.238ZM105.124 242.284C105.276 242.28 105.416 242.364 105.482 242.501V242.501C105.556 242.654 105.721 242.744 105.889 242.718C110.364 242.03 114.978 241.548 119.257 240.578C129.039 238.365 136.796 234.478 143.822 230.106C152.136 224.932 158.236 219.076 160.499 212.047C162.193 206.784 158.767 203.119 149.979 201.164C138.553 198.618 126.839 197.03 114.425 197.574C107.074 197.896 100.267 199.047 94.4104 201.607C83.2405 206.487 76.8398 212.948 74.4832 220.921C71.0506 232.538 88.9311 242.753 105.124 242.284Z" stroke="white" stroke-width="2" stroke-miterlimit="10"/>
<path d="M546.585 34.6079C553.142 34.2647 559.518 35.4052 564.606 38.6301C567.95 40.7503 569.662 43.2494 570.313 46.0096C573.063 57.7401 557.08 70.4932 535.459 72.0414C526.752 72.6635 518.344 72.3095 510.156 70.3216C502.543 68.4696 498.242 65.1303 495.904 60.7577C493.867 56.9357 493.704 53.01 494.267 49.095C495.092 43.3781 501.061 40.0388 510.268 38.2368C517.663 36.7924 538.109 34.6079 546.585 34.6079ZM535.227 50.6968C533.027 50.7647 530.327 51.3546 529.183 52.9635C528.583 53.8109 528.552 55.3947 529.477 55.8595C530.971 56.6068 533.465 57.0179 535.527 57.0036C538.565 56.9822 541.803 54.6439 541.572 53.1137C541.359 51.6585 539.165 50.7039 535.227 50.6968Z" stroke="white" stroke-width="2" stroke-miterlimit="10"/>
<path d="M370.493 166.688C369.355 165.058 368.779 162.707 370.189 161.305C371.69 159.811 374.622 159.385 377.816 160.23C384.511 161.996 387.886 165.207 389.58 169.114C390.293 170.752 388.974 172.003 386.742 172.976C384.667 173.88 382.504 173.798 380.329 173.097C375.382 171.501 372.258 169.219 370.493 166.688Z" stroke="white" stroke-width="2" stroke-miterlimit="10"/>
<path d="M581.817 127.78C582.312 128.651 582.451 129.795 581.955 130.666C581.311 131.798 579.675 132.626 577.7 133.175C576.519 133.504 574.15 133.226 573.037 132.714C568.781 130.759 570.018 126.618 575.038 125.331C577.671 124.656 580.735 125.878 581.817 127.78Z" stroke="white" stroke-width="2" stroke-miterlimit="10"/>
<path d="M412.22 61.2439C411.439 67.0859 409.238 72.7885 405.8 78.2695C403.538 81.8734 400.644 85.4272 397.112 88.6772C392.462 92.9604 385.279 95.91 377.466 98.0695C363.808 101.849 349.957 105.406 336.012 108.824C331.28 109.982 326.073 110.608 320.779 109.582C314.534 108.37 311.834 105.678 313.115 101.934C314.197 98.781 316.834 96.0423 320.847 93.9293C328.236 90.0322 336.087 86.4283 343.612 82.6135C350.838 78.9488 357.952 75.209 365.009 71.4371C373.366 66.9751 381.423 62.3236 390.005 58.0118C393.024 56.4959 397.043 55.4483 400.912 54.7082C406.919 53.557 411.907 55.813 412.22 59.4598C412.27 60.0533 412.22 60.6504 412.22 61.2439Z" stroke="white" stroke-width="2" stroke-miterlimit="10"/>
<path d="M105.483 242.504C105.416 242.367 105.275 242.28 105.123 242.284C88.9304 242.753 71.0506 232.537 74.4832 220.917C76.8397 212.944 83.2341 206.484 94.4104 201.603C100.267 199.047 107.074 197.896 114.425 197.57C126.845 197.023 138.553 198.614 149.979 201.16C158.767 203.119 162.193 206.78 160.499 212.043C158.236 219.069 152.135 224.925 143.822 230.102C136.796 234.475 129.033 238.361 119.257 240.574C114.977 241.544 110.361 242.027 105.885 242.715C105.719 242.741 105.556 242.656 105.483 242.504V242.504ZM108.862 229.051C116.582 229.044 123.295 225.912 125.97 221.067C127.433 218.422 125.545 215.261 121.557 213.659C113.119 210.273 101.036 212.254 96.9169 217.703C92.4726 223.577 98.242 229.058 108.862 229.051Z" stroke="white" stroke-width="2" stroke-miterlimit="10"/>
<path d="M535.227 50.6968C539.165 50.7039 541.359 51.6585 541.572 53.1137C541.797 54.6439 538.565 56.9822 535.527 57.0036C533.471 57.0179 530.97 56.6068 529.477 55.8595C528.551 55.3983 528.583 53.8144 529.183 52.9635C530.327 51.3546 533.027 50.7647 535.227 50.6968Z" stroke="white" stroke-width="2" stroke-miterlimit="10"/>
<path d="M108.862 229.051C98.2419 229.058 92.4726 223.577 96.9231 217.703C101.049 212.254 113.125 210.273 121.563 213.659C125.551 215.261 127.433 218.421 125.976 221.067C123.295 225.912 116.581 229.044 108.862 229.051Z" stroke="white" stroke-width="2" stroke-miterlimit="10"/>
</g>
</svg>
