<svg width="802" height="111" viewBox="0 0 802 111" fill="none" xmlns="http://www.w3.org/2000/svg">
<g opacity="0.15">
<path d="M224.046 4.23296C227.274 1.99855 231.218 1.00407 235.144 1.00407C284.568 1.00407 333.992 1.00407 383.422 1.00407C385.128 1.00407 386.799 1.33318 388.463 1.71246C388.794 1.78787 389.15 1.85349 389.549 1.903C395.218 2.60096 400.856 3.35188 406.913 3.85022C416.508 4.64052 426.353 5.32897 436.823 5.34391C440.361 5.34934 442.674 4.86593 442.817 4.09736C442.886 3.74023 442.667 3.37768 442.517 3.01919V3.01919C442.118 2.0654 442.787 1.00407 443.821 1.00407C451.983 1.00407 460.146 1.00407 468.309 1.00407C469.663 1.00407 470.945 1.43956 472.264 1.74277V1.74277C477.059 2.84402 482.809 3.66691 489.31 4.18698C496.123 4.7315 503.086 5.15923 510.581 4.97863C519.694 4.76001 527.764 3.94392 535.746 3.05857C540.991 2.47739 546.441 2.46653 551.817 2.8223C559.211 3.31114 565.199 4.34178 571.069 5.40094C579.495 6.92178 586.508 8.69927 591.365 10.8325C600.685 14.9293 601.803 19.2936 599.428 23.7366C598.484 25.5046 596.653 27.2495 595.534 29.0147C594.503 30.6306 596.978 32.1515 605.454 32.8603C615.155 33.6723 625.375 33.6859 635.501 33.8543C639.745 33.9249 644.002 33.9521 648.227 34.0525C656.191 34.2413 663.923 34.0295 669.961 32.8603C675.812 31.7278 681.306 30.465 686 29.103C699.127 25.2941 714.341 21.9007 729.486 18.487C733.518 17.5785 737.606 16.6647 741.088 15.6585C753.233 12.1483 767.153 8.98578 780.979 5.7988C786.4 4.54841 791.128 3.17237 794.281 1.58361C794.989 1.22671 795.762 1.00407 796.555 1.00407C796.99 1.00407 797.425 1.00407 797.86 1.00407C799.577 1.00407 800.969 2.39612 800.969 4.11329C800.969 4.2344 800.969 4.35551 800.969 4.47662C800.969 5.82976 799.956 6.90916 798.625 7.15398V7.15398C795.3 7.76639 792.099 8.41275 788.712 9.00887C777.26 11.024 767.722 13.4342 758.221 15.8595C752.639 17.2852 746.857 18.6879 740.619 19.9752C731.486 21.86 722.229 23.7094 714.76 25.9269C707.953 27.9461 703.002 30.1527 702.321 32.6946C701.639 35.2271 705.659 37.5002 711.616 39.6158C722.66 43.5374 735.812 47.1264 749.682 50.5836C761.777 53.5981 772.385 56.8095 780.517 60.4011C783.505 61.7197 786.668 63.0205 789.574 64.3485C791.893 65.4063 793.993 66.4859 796.106 67.564C797.769 68.4141 796.856 69.222 794.537 69.9349C792.268 70.6342 789.855 71.3213 787.136 71.9365C779.592 73.6447 773.185 75.5227 768.316 77.641C761.821 80.4641 757.171 83.4283 753.783 86.4972C751.107 88.917 750.363 91.3476 753.883 93.7212C759.683 97.6346 766.059 101.509 772.228 105.396V105.396C774.165 106.619 773.331 109.606 771.041 109.606C769.257 109.606 767.473 109.606 765.688 109.606C765.054 109.606 764.429 109.447 763.876 109.137C760.672 107.337 757.796 105.501 753.92 103.772C747.588 100.944 738.318 98.5594 727.949 96.3677C724.998 95.7444 722.435 95.0098 720.192 94.2562C716.097 92.8834 713.753 91.3734 714.228 89.7059C714.766 87.8103 719.348 86.3451 725.105 85.0293C733.687 83.0671 741.444 80.957 746.532 78.4856C752.47 75.6014 757.902 72.6602 762.834 69.6878C767.553 66.8416 766.572 63.9602 761.602 61.1412C756.027 57.9827 746.357 55.5195 733.993 53.5315C722.06 51.6128 711.684 49.3438 701.664 46.9783C695.989 45.6381 690.276 44.2734 683.769 43.1369C671.124 40.9289 662.135 41.009 649.721 42.4348C638.295 43.7479 630.969 45.9002 626.037 48.4422C621.606 50.7289 619.162 53.1201 618.243 55.601C617.236 58.3113 620.868 60.4487 632.976 61.3136C640.189 61.8283 647.408 62.3443 654.522 62.9241C664.148 63.709 671.686 65.0058 674.218 67.2897C677.381 70.1413 676.937 72.9848 672.536 75.7698C670.636 76.9729 667.061 77.8922 661.354 78.343C657.56 78.6431 653.747 78.6553 649.721 78.5399C638.814 78.2276 629.469 77.2214 621.318 75.6625C615.861 74.6183 612.511 73.2455 610.236 71.783C608.042 70.3735 606.229 68.9247 604.898 67.4649C602.497 64.8401 596.397 62.9757 584.445 62.0374C576.732 61.4318 569.181 60.7053 561.812 59.9232C551.142 58.7907 542.641 57.1218 537.803 54.7116C531.565 51.5993 530.427 48.3376 532.583 45.0121C533.583 43.4709 535.146 41.946 536.409 40.4129C537.828 38.6802 533.427 37.393 525.464 37.1105C516.65 36.7968 508.693 37.3128 501.392 38.3027C494.248 39.2723 487.566 40.3993 480.465 41.3852C468.151 43.0934 455.025 44.2707 439.954 44.0439C435.535 43.9774 432.091 43.4071 431.729 42.5163C431.516 42.003 431.466 41.4639 431.954 40.9642C433.329 39.5507 434.923 38.1466 436.604 36.7493C440.079 33.8624 443.811 30.9959 449.393 28.2516C453.506 26.227 457.125 24.1616 457.388 21.8844C457.663 19.4973 454.944 17.326 448.693 15.372C439.692 12.5584 427.159 10.8122 412.17 9.91323C401.988 9.30217 391.78 9.26551 382.279 10.5148C375.904 11.3526 371.966 12.6779 368.322 14.0168C360.702 16.8168 353.614 19.6846 345.9 22.4724C339.1 24.9329 329.924 26.967 319.885 28.8178C312.128 30.2491 304.046 31.607 296.708 33.1332C287.738 34.999 280.106 37.1214 274.73 39.5819C270.58 41.4802 266.573 43.3935 262.485 45.2986C259.235 46.814 253.497 47.6899 246.171 47.956C239.339 48.2045 232.35 48.2874 225.418 48.3756C217.043 48.4815 213.93 49.3465 216.167 51.0941C217.73 52.3176 220.73 53.3795 224.775 54.2797C236.432 56.8774 256.722 57.0824 270.773 54.7306C278.274 53.4745 286.581 52.6788 295.882 52.3067C307.252 51.8518 318.497 51.2924 329.217 50.3079C337.931 49.5067 346.732 48.745 355.489 47.9669C369.372 46.7339 383.748 46.3266 398.606 46.7597C405.563 46.962 410.395 48.1869 411.058 49.7104C411.758 51.3263 412.233 52.968 414.02 54.5337C417.577 57.646 422.103 60.7053 425.972 63.8027C429.122 66.3256 432.629 68.8473 431.01 71.5237C430.26 72.7661 428.441 73.8837 424.184 74.7867C418.402 76.0115 411.258 76.6633 403.719 77.1494C396.237 77.6328 388.636 78.028 381.204 78.5426C373.053 79.1075 366.953 80.2821 362.44 81.841C356.458 83.9063 350.932 86.0369 344.594 88.0465C332.024 92.032 314.997 94.8333 294.551 96.7221C284.044 97.693 273.624 98.7359 263.604 99.9227C250.44 101.48 244.871 104.165 247.115 107.327V107.327C247.792 108.282 247.012 109.607 245.841 109.607C239.796 109.607 233.747 109.607 227.703 109.607C227.057 109.607 226.463 109.245 226.175 108.668V108.668C225.287 106.832 223.762 104.997 223.706 103.16C223.65 101.342 225.987 99.5425 233.138 98.4046C238.945 97.4798 245.383 96.6936 251.978 96.0568C267.942 94.5169 284.325 93.1807 300.214 91.6069C313.453 90.2952 324.198 88.2326 331.574 85.491C339.518 82.5389 341.612 79.4646 331.305 76.5424C322.973 74.1824 315.51 71.7274 309.703 69.0319C308.665 68.5512 306.921 68.1344 305.333 67.7202C299.358 66.16 291.163 65.4919 282.4 65.0479C272.486 64.5468 262.504 64.3594 252.39 64.6744C245.808 64.8795 240.683 65.5163 237.764 66.8905C234.563 68.3978 235.407 70.0354 234.151 71.6038C232.375 73.8226 231.125 76.0753 228.481 78.2453C223.975 81.9401 215.217 85.2601 207.348 88.6494C202.822 90.5994 196.703 92.275 187.796 93.3681C181.907 94.0892 175.776 94.7152 169.844 95.4199C160.643 96.5117 152.473 97.8818 146.01 99.7027V99.7027C136.022 102.517 123.705 109.606 113.329 109.606C97.3202 109.606 81.3101 109.606 65.3025 109.606C62.0981 109.606 58.8359 108.983 56.2613 107.075C54.6422 105.875 53.5132 104.649 53.0246 103.395C51.7182 100.033 48.0928 96.8118 42.2922 93.6845C37.8292 91.2811 34.335 88.7934 35.5414 86.1645C36.479 84.1277 37.8792 82.0854 39.9794 80.0906C43.6736 76.5805 44.8674 73.1083 40.9295 69.5601C39.6981 68.448 39.8106 67.2205 40.3795 66.0704C41.3421 64.1191 45.7488 62.4217 50.6618 60.8112C56.0749 59.0351 61.9443 57.3309 70.639 56.231C78.4336 55.2466 86.6158 54.9696 93.9103 56.3112C97.8295 57.0308 100.961 58.0248 103.524 59.0093C110.206 61.5771 119.126 63.5365 132.902 64.0118C140.184 64.263 147.822 64.2236 155.211 64.0933C164.931 63.9208 174.138 63.2391 182.564 62.1379C191.977 60.9076 193.734 59.5131 190.321 57.2861C188.021 55.7829 184.489 54.3409 178.851 53.2966C171.594 51.9537 163.974 50.6895 156.161 49.5013C148.373 48.3172 141.616 46.9403 136.571 45.1981C130.533 43.1138 124.745 40.9941 118.901 38.8839C109.493 35.4851 97.9045 32.5344 82.059 30.4758C73.2206 29.3284 64.057 28.2964 55.3686 27.0974C48.8116 26.193 42.2172 25.2384 36.654 24.0774C27.7656 22.2225 23.9402 19.8164 24.2339 17.1386C24.3902 15.7196 24.7215 14.2965 25.4466 12.887C27.8281 8.24573 35.6727 4.23858 54.1372 1.49835C54.695 1.41534 55.1047 1.28607 55.5202 1.15812C55.8786 1.04775 56.2523 1 56.6273 1C68.4278 1 80.2333 1 92.0343 1C92.4108 1 92.4768 1.55823 92.1039 1.6097V1.6097C84.028 2.72317 75.7271 3.76468 67.8137 4.93111C60.4442 6.01607 54.406 7.40519 49.8555 9.09849C45.1487 10.8488 42.5922 12.7227 41.4733 14.7243C39.8544 17.6383 43.1923 20.1857 52.6433 22.3149C60.1629 24.0082 69.3701 25.2113 78.4711 26.4375C89.8911 27.976 101.449 29.4873 110.275 31.74C115.45 33.0599 120.019 34.4939 124.789 35.8871C130.308 37.4989 135.315 39.2057 141.316 40.7266C153.661 43.8579 169.756 45.4942 188.558 45.9219C195.203 46.0726 200.078 45.1656 199.547 43.7601C198.703 41.559 197.465 39.366 196.59 37.1648C195.665 34.8306 194.834 32.4923 194.24 30.1527C193.921 28.8898 194.384 27.6188 194.14 26.3546C193.684 23.9973 197.678 22.0392 204.854 20.3296C211.211 18.8129 215.999 17.1101 217.068 15.0243C217.736 13.7262 217.905 12.4145 218.599 11.1177C219.549 9.35106 220.249 7.56542 222.049 5.83682C222.592 5.29677 223.28 4.76318 224.046 4.23296ZM343.544 13.2238C344.244 10.8583 339.262 9.07948 330.786 7.79898C324.592 6.86204 317.829 6.07717 310.997 5.36971C297.901 4.01317 284.219 2.98524 269.911 2.42036C263.704 2.17594 257.384 2.31987 252.421 3.24053C242.077 5.15923 238.526 7.70122 240.233 10.5596C241.314 12.3683 243.327 14.1539 245.089 15.9423C247.346 18.2331 245.346 20.3066 238.476 22.1139C234.713 23.1052 230.738 24.0652 226.537 24.9682C210.954 28.3195 208.748 32.8508 216.718 36.9965C218.668 38.0122 221.724 38.888 225.875 39.5303C237.22 41.2847 248.021 40.197 256.309 38.2742C263.473 36.6122 269.755 34.7627 277.205 33.1685C285.475 31.3992 294.482 29.7847 303.452 28.1769C314.247 26.2392 324.679 24.2431 331.661 21.5518C338.381 18.9609 342.994 16.2247 343.544 13.2238ZM49.897 82.8078C47.6063 84.8138 47.7148 88.6793 50.2083 90.4268C51.9361 91.6377 54.4183 92.8136 57.0188 93.9819C61.2755 95.8938 65.7822 97.7799 69.8327 99.7122C74.0019 101.702 76.8835 103.829 83.5342 105.542C87.4784 106.557 95.7605 107.592 102.724 106.259C105.793 105.672 108.324 104.939 110.818 104.227C117.357 102.36 123.226 100.369 130.314 98.6083C140.34 96.1165 152.442 94.0987 165.031 92.2452C178.363 90.2816 190.046 87.9773 198.19 84.9193C202.353 83.355 206.679 81.8029 210.211 80.1707C215.392 77.7741 218.361 75.2674 216.693 72.5557C214.974 69.7557 206.76 67.693 194.359 67.1621C186.664 66.8335 179.07 67.1377 171.45 67.3278C161.349 67.579 151.235 68.0325 141.147 68.0121C128.745 67.9863 116.363 67.5586 103.968 67.3115C98.6046 67.2042 93.179 66.9611 87.8847 67.0494C78.0461 67.2151 73.1018 68.831 69.9014 70.584C63.6945 73.9855 58.0626 77.4387 52.5433 80.8972C51.5368 81.526 50.6348 82.1617 49.897 82.8078ZM509.768 32.0306C518.876 31.9234 529.364 31.8568 539.809 31.6599C547.685 31.5119 555.048 30.9267 561.455 29.8919C567.893 28.8518 572.838 27.5211 576.738 26.0043C586.127 22.3529 589.702 18.5318 582.939 14.4934C578.282 11.7111 569.619 9.77201 555.517 9.43117C549.66 9.28995 543.447 9.40537 537.646 9.6688C523.251 10.3206 508.962 10.6492 494.392 9.95532C486.785 9.59276 479.078 9.32933 471.389 9.04825C465.314 8.82555 461.744 9.57647 463.082 10.8026C463.963 11.6147 464.982 12.428 466.339 13.2075C471.758 16.3239 474.54 19.5421 474.74 22.8716C474.858 24.7903 475.058 26.709 475.383 28.6264C475.708 30.5139 480.971 31.6871 489.685 31.8202C495.911 31.9139 502.143 31.9519 509.768 32.0306ZM385.136 73.5985C389.23 73.4709 393.418 73.422 397.4 73.1993C406.038 72.7159 412.339 71.5305 413.82 69.6104C414.877 68.2416 414.733 66.7547 413.483 65.3914C409.832 61.4033 400.994 57.8931 390.387 54.5853C386.611 53.4093 381.786 52.471 375.322 52.08C369.728 51.7418 364.021 51.8342 358.383 52.1533C347.319 52.7793 337.8 54.0122 329.911 55.7694C319.648 58.0561 318.916 62.0157 328.98 64.6622C337.168 66.8158 346.45 68.7726 355.233 70.8203C363.302 72.7023 373.235 73.5958 385.136 73.5985ZM608.329 46.7172C608.435 46.3721 608.473 46.0111 608.473 45.6503V45.6503C608.448 42.4633 598.203 40.2798 583.533 40.2228C571.594 40.1766 563.249 41.4965 556.486 43.4234C551.41 44.8695 548.654 46.5493 547.573 48.3539C545.554 51.7283 551.773 55.491 568.506 57.0702C575.019 57.684 581.82 57.8551 588.602 57.4233C594.903 57.0213 598.209 55.8793 600.541 54.6409C605.328 52.1015 607.499 49.4373 608.329 46.7172ZM647.027 72.7485C651.214 72.2958 651.31 68.7537 647.167 68.0007C646.987 67.968 646.805 67.9356 646.621 67.9035C643.052 67.2802 636.807 67.2028 633.363 67.6781C630.357 68.0923 628.556 69.1528 629.319 70.0245C630.069 70.8814 632.101 71.5603 635.032 72.1469C638.595 72.8598 643.308 73.1491 647.027 72.7485V72.7485Z" stroke="white" stroke-width="2" stroke-miterlimit="10"/>
<path d="M251.176 109.606C249.512 109.606 248.053 108.683 247.09 107.326V107.326C244.852 104.163 250.415 101.479 263.579 99.9213C273.599 98.7359 284.019 97.693 294.526 96.7208C314.966 94.8306 331.999 92.0306 344.569 88.0452C350.907 86.0341 356.433 83.9036 362.415 81.8396C366.928 80.2807 373.035 79.1048 381.179 78.5413C388.612 78.0266 396.212 77.6301 403.694 77.148C411.226 76.6619 418.377 76.0101 424.159 74.7853C428.422 73.8823 430.235 72.7648 430.985 71.5223C432.604 68.8459 429.097 66.3243 425.947 63.8013C422.084 60.7039 417.552 57.6446 413.996 54.5323C412.208 52.9666 411.727 51.3249 411.033 49.7091C410.376 48.1855 405.545 46.9607 398.581 46.7583C383.723 46.3265 369.341 46.7325 355.464 47.9655C346.701 48.7436 337.906 49.5054 329.193 50.3065C318.479 51.2924 307.228 51.8518 295.858 52.3053C286.557 52.6774 278.249 53.4731 270.749 54.7292C256.697 57.0811 236.407 56.876 224.75 54.2784C220.712 53.3781 217.712 52.3162 216.143 51.0927C213.905 49.3451 217.018 48.4802 225.394 48.3742C232.332 48.2873 239.314 48.2045 246.146 47.9547C253.472 47.6871 259.204 46.8127 262.46 45.2972C266.548 43.3921 270.555 41.4788 274.705 39.5805C280.081 37.1214 287.713 34.9976 296.683 33.1319C304.021 31.6056 312.103 30.2477 319.86 28.8165C329.899 26.9657 339.075 24.9315 345.876 22.471C353.583 19.6833 360.677 16.8154 368.297 14.0154C371.941 12.6752 375.879 11.3512 382.255 10.5134C391.756 9.26413 401.963 9.30079 412.145 9.91185C427.134 10.8121 439.667 12.557 448.668 15.3706C454.919 17.3246 457.638 19.4959 457.363 21.8831C457.1 24.1602 453.487 26.2256 449.368 28.2502C443.786 30.9945 440.055 33.8611 436.579 36.7479C434.898 38.1452 433.304 39.5493 431.929 40.9628C431.441 41.4626 431.491 42.0016 431.704 42.5149C432.066 43.4057 435.517 43.976 439.93 44.0426C455 44.2693 468.12 43.092 480.44 41.3838C487.541 40.3993 494.223 39.2709 501.368 38.3014C508.668 37.3115 516.626 36.7955 525.439 37.1091C533.402 37.3929 537.803 38.6789 536.384 40.4115C535.128 41.946 533.559 43.4695 532.559 45.0107C530.402 48.3362 531.54 51.5979 537.778 54.7102C542.61 57.1204 551.111 58.7893 561.787 59.9218C569.163 60.7039 576.707 61.4318 584.42 62.036C596.372 62.9743 602.472 64.8374 604.873 67.4635C606.204 68.9233 608.017 70.3721 610.211 71.7816C612.486 73.2441 615.836 74.6169 621.293 75.6612C629.438 77.22 638.783 78.2262 649.696 78.5385C653.722 78.654 657.535 78.6417 661.329 78.3416C667.036 77.8895 670.605 76.9715 672.511 75.7684C676.912 72.9847 677.362 70.1413 674.193 67.2884C671.661 65.0057 664.123 63.7076 654.497 62.9227C647.39 62.3429 640.17 61.8283 632.951 61.3123C620.849 60.4473 617.212 58.31 618.218 55.5996C619.143 53.1201 621.581 50.7275 626.013 48.4408C630.938 45.8988 638.27 43.7465 649.696 42.4334C662.11 41.0063 671.105 40.9275 683.744 43.1355C690.251 44.2707 695.958 45.6367 701.64 46.977C711.659 49.3424 722.036 51.6115 733.968 53.5302C746.338 55.5181 756.008 57.9814 761.577 61.1398C766.553 63.9588 767.534 66.8403 762.809 69.6864C757.877 72.6588 752.445 75.6001 746.507 78.4842C741.425 80.9542 733.668 83.0658 725.08 85.0279C719.323 86.3437 714.741 87.8089 714.203 89.7045C713.728 91.372 716.072 92.882 720.167 94.2548C722.417 95.0084 724.973 95.7417 727.924 96.3663C738.294 98.558 747.557 100.942 753.895 103.771V103.771C756.856 105.093 755.701 109.604 752.459 109.604V109.604C751.878 109.604 751.31 109.44 750.808 109.148C747.13 107.01 742.12 105.025 734.193 103.499C726.911 102.098 718.873 100.88 711.009 99.6266C703.521 98.4331 696.877 97.0942 693.114 95.2013C690.432 93.8529 687.425 92.5276 685.3 91.1384C680.056 87.7098 669.924 85.3348 654.747 83.8642C643.439 82.7684 632.507 81.4906 621.331 80.331C607.661 78.912 599.041 76.6606 595.784 73.4138C594.397 72.0274 592.396 70.6614 590.196 69.3239C587.758 67.8465 584.483 66.4125 578.257 65.5245C570.288 64.3879 562.124 63.2934 553.661 62.3443C538.422 60.6347 526.902 58.2434 521.045 54.6762C518.144 52.9096 515.263 51.1403 512.156 49.3913C508.612 47.3952 501.361 46.537 491.742 46.9919C476.765 47.698 462.788 48.9853 449.637 50.6691C438.304 52.1207 433.529 54.4074 434.242 57.1856C434.629 58.6861 435.842 60.1988 437.604 61.6545C440.655 64.1666 444.524 66.6311 447.856 69.127C450.175 70.8678 451.775 72.6371 450.156 74.4648C447.837 77.0815 440.105 78.6798 429.097 79.5624C419.74 80.3133 410.108 80.9026 400.657 81.6019C389.637 82.4167 380.323 83.78 373.622 85.8739C365.49 88.4159 357.608 90.9959 349.595 93.5541C343.032 95.6494 334.818 97.3372 324.104 98.4059C313.516 99.4623 302.771 100.452 292.401 101.604C283.137 102.632 275.124 104.036 272.605 106.386V106.386C270.974 107.908 269.553 109.605 267.322 109.605C261.948 109.606 256.563 109.606 251.176 109.606ZM314.916 47.0286C323.092 47.0639 330.543 46.5587 337.825 45.9341C352.339 44.6876 366.603 43.2944 381.304 42.1673C399.788 40.751 412.683 38.1887 419.702 34.2182C425.259 31.0747 431.004 27.9447 436.392 24.7876C439.311 23.0794 440.98 21.3358 438.561 19.4823C433.879 15.892 414.483 13.5985 398.213 14.7487C390.18 15.3163 384.486 16.5506 379.454 17.9017C370.891 20.2006 362.971 22.6122 354.558 24.937C347.088 27.0023 338.344 28.8042 329.024 30.4745C319.41 32.1976 309.397 33.8325 301.571 35.9739C294.364 37.947 289.063 40.0938 289.763 42.72C290.088 43.9461 292.464 44.9795 296.776 45.7834C302.058 46.7665 308.359 47.0598 314.916 47.0286ZM698.359 66.6512C696.887 69.7585 697.044 73.8786 699.783 75.9572V75.9572C702.046 77.6722 709.272 78.3742 717.066 77.827C721.823 77.493 725.392 76.8045 728.33 75.9694C735.274 73.9937 738.356 71.6812 740.35 69.2777C741.957 67.3427 742.388 65.4294 739.344 63.5243C735.968 61.41 729.349 60.1037 719.298 59.71C711.759 59.4139 703.665 59.8267 701.408 62.0279C700.621 62.7978 699.889 63.5745 699.483 64.3567C699.095 65.117 698.725 65.8778 698.359 66.6512ZM660.623 49.4633C651.19 49.4456 645.84 50.2889 642.327 51.6943C636.332 54.0964 640.527 56.8299 652.178 57.4884C655.778 57.6921 659.466 57.9121 663.142 57.9365C668.086 57.9705 673.13 57.8931 677.612 57.3228C682.062 56.7565 683.888 55.8359 683 54.7468C682 53.5166 679.668 52.4248 676.174 51.4458C671.805 50.2196 666.061 49.5447 660.623 49.4633Z" stroke="white" stroke-width="2" stroke-miterlimit="10"/>
<path d="M274.644 109.606C272.945 109.606 271.381 107.546 272.623 106.388V106.388C275.142 104.036 283.156 102.633 292.419 101.605C302.789 100.454 313.534 99.4637 324.123 98.4073C334.836 97.3386 343.056 95.6508 349.613 93.5555C357.632 90.9959 365.508 88.4173 373.64 85.8753C380.341 83.7814 389.661 82.4181 400.675 81.6033C410.126 80.904 419.758 80.3147 429.115 79.5638C440.123 78.6811 447.855 77.0829 450.174 74.4662C451.793 72.6371 450.193 70.8692 447.874 69.1283C444.542 66.6312 440.673 64.168 437.622 61.6558C435.86 60.2015 434.641 58.6875 434.26 57.187C433.547 54.4101 438.323 52.1221 449.655 50.6705C462.813 48.9867 476.783 47.6994 491.76 46.9933C501.379 46.5397 508.63 47.3979 512.174 49.3927C515.281 51.143 518.169 52.911 521.063 54.6776C526.913 58.2448 538.44 60.6361 553.679 62.3457C562.142 63.2948 570.306 64.3893 578.275 65.5258C584.501 66.4139 587.776 67.8478 590.214 69.3252C592.421 70.6628 594.415 72.0288 595.802 73.4152C599.059 76.6619 607.679 78.9133 621.349 80.3323C632.525 81.4933 643.457 82.7698 654.765 83.8656C669.942 85.3362 680.068 87.7125 685.318 91.1398C687.444 92.529 690.45 93.8556 693.132 95.2027C696.895 97.0956 703.533 98.4344 711.027 99.628C718.891 100.881 726.929 102.099 734.211 103.501C735.44 103.737 736.598 103.985 737.692 104.242C741.857 105.221 740.904 109.606 736.626 109.606V109.606C736.186 109.606 735.748 109.538 735.33 109.399C733.621 108.827 732.06 108.227 729.998 107.722C722.004 105.762 711.602 104.779 699.789 104.614C691.325 104.496 683.031 104.825 678.786 106.705V106.705C675.805 108.025 672.958 109.606 669.698 109.606C642.569 109.606 615.439 109.606 588.31 109.606C580.425 109.606 571.443 106.062 563.617 105.104C561.564 104.853 559.216 104.662 556.548 104.541C549.991 104.242 543.528 104.14 536.796 104.276C527.92 104.457 519.263 104.774 511.118 105.557C503.512 106.287 497.034 107.305 493.115 108.894C492.103 109.305 491.036 109.604 489.944 109.604C485.562 109.604 481.178 109.604 476.796 109.604C475.077 109.604 474.195 107.272 475.683 106.411V106.411C479.127 104.419 485.403 102.967 495.085 102.425C503.83 101.936 512.756 101.604 521.582 101.186C532.539 100.667 543.59 100.224 554.379 99.5724C562.817 99.0632 569.743 97.9347 573.95 96.2102C582.288 92.787 583.457 89.1247 580.119 85.4027C578.825 83.9633 574.537 82.8119 567.637 82.3488C560.267 81.8545 552.61 81.7595 545.172 82.1519C536.002 82.6353 526.87 83.1975 518.019 83.9022C507.118 84.7686 496.973 85.9934 488.672 87.7967C481.971 89.2524 477.777 91.0828 473.458 92.8915C471.264 93.8095 468.895 94.7315 465.932 95.5353C459.337 97.3223 449.93 97.412 440.529 97.2028C430.209 96.9733 419.977 96.5728 409.676 96.2917C396.149 95.9223 382.904 96.2102 370.09 97.2544C361.17 97.9809 353.463 99.1283 348.675 100.918C348.611 100.942 348.547 100.966 348.483 100.99C340.567 103.991 332.218 109.607 323.752 109.607C322.285 109.607 320.818 109.607 319.351 109.607C317.975 109.607 316.704 109.082 315.409 108.616V108.616C312.603 107.606 308.721 107.414 304.564 108.172C303.607 108.346 302.833 108.568 302.115 108.805C300.543 109.324 298.91 109.607 297.255 109.607C289.713 109.606 282.178 109.606 274.644 109.606ZM490.134 81.1172C492.085 81.1905 494.079 81.1905 496.035 81.1172C501.711 80.9027 507.43 80.7193 512.987 80.407C529.107 79.5054 545.222 78.5888 561.155 77.5459C569.562 76.996 575.375 75.7603 576.031 73.7058C576.219 73.1287 576.263 72.5367 575.894 71.9663C574.787 70.2744 571.25 68.8459 565.355 67.7026C557.673 66.2116 548.466 65.3018 538.946 64.5631C522.288 63.269 508.43 61.2879 500.386 57.7152C499.123 57.1531 497.323 56.6289 495.391 56.1618C491.716 55.2697 487.134 54.7184 481.421 54.7659C466.007 54.8962 455.343 57.8768 458.162 61.1792C459.906 63.2256 464.138 65.018 469.045 66.7615C474.42 68.6707 477.589 70.7116 477.271 72.9888C477.033 74.6618 477.164 76.3374 477.246 78.0103C477.327 79.7457 481.346 80.8171 488.653 81.0615L490.134 81.1172ZM639.101 99.2505C654.521 99.4257 659.34 97.6808 658.265 95.6793C657.403 94.0783 655.134 92.5439 651.015 91.1738C643.651 88.7255 634.469 86.7674 620.943 86.0151C614.229 85.6417 608.604 86.1604 605.885 87.5591C601.934 89.5932 600.659 91.7183 602.578 93.9194C603.666 95.1687 605.31 96.3474 610.11 97.1635C619.592 98.7766 631.075 98.998 639.101 99.2505ZM434.478 85.2045C423.64 85.305 413.782 85.9242 406.044 87.3649C398.393 88.7893 398.268 90.6632 408.294 91.5635C412.845 91.9722 417.814 92.2139 422.702 92.3782C437.191 92.8657 448.03 91.4101 451.024 88.4186C452.299 87.1463 449.874 86.0273 444.167 85.6227C441.06 85.4014 437.716 85.3389 434.478 85.2045Z" stroke="white" stroke-width="2" stroke-miterlimit="10"/>
<path d="M54.0153 1.00427C54.3181 1.00427 54.3803 1.45806 54.0808 1.50262V1.50262C35.6163 4.24285 27.7654 8.25136 25.3902 12.8913C24.6651 14.3008 24.3338 15.7239 24.1775 17.1429C23.8838 19.8193 27.7092 22.2268 36.5976 24.0817C42.1608 25.2427 48.7552 26.1987 55.3122 27.1017C64.0006 28.2993 73.1642 29.3313 82.0026 30.4801C97.8544 32.5387 109.443 35.4894 118.844 38.8882C124.689 40.9997 130.477 43.118 136.515 45.2024C141.559 46.9446 148.316 48.3215 156.104 49.5056C163.918 50.6937 171.537 51.9579 178.794 53.3009C184.433 54.3438 187.964 55.7859 190.264 57.2904C193.671 59.5174 191.921 60.9119 182.507 62.1422C174.081 63.2434 164.874 63.9251 155.154 64.0975C147.76 64.2293 140.128 64.2673 132.846 64.0161C119.075 63.5408 110.156 61.5814 103.467 59.0136C100.905 58.0291 97.7793 57.0351 93.8539 56.3154C86.5531 54.9738 78.371 55.2508 70.5826 56.2353C61.8879 57.3339 56.0185 59.0394 50.6054 60.8155C45.6924 62.426 41.2857 64.1233 40.3231 66.0746C39.7542 67.2248 39.6417 68.4523 40.8731 69.5644C44.811 73.1112 43.6172 76.5847 39.923 80.0949C37.8228 82.0897 36.4226 84.1306 35.485 86.1688C34.2786 88.7977 37.779 91.2853 42.2358 93.6888C48.0426 96.816 51.6618 100.037 52.9682 103.399V103.399C53.8806 105.741 53.0418 109.61 50.5287 109.61C44.819 109.61 39.1092 109.61 33.3994 109.61C31.16 109.61 29.8403 106.973 31.3096 105.283V105.283C33.6286 102.614 35.6975 99.9324 32.7347 97.237C30.7845 95.4622 28.2592 93.7119 25.6527 91.9751C22.1148 89.6137 20.4959 87.1926 20.4209 84.724C20.3771 83.3729 21.146 82.0177 20.8897 80.6706C20.6584 79.4404 20.0896 78.1843 15.4641 77.246C13.2671 76.7999 10.7785 76.5631 8.14532 76.4251C4.182 76.2173 1 73.0355 1 69.0667V69.0667C1 65.0616 4.24255 61.8377 8.22891 61.4504C10.713 61.2091 13.0078 60.878 15.1953 60.5371C26.1403 58.8289 32.591 56.3711 37.4352 53.7137C40.4543 52.0557 42.6171 50.323 45.5424 48.6555C50.1866 46.0036 58.9188 44.9743 71.8828 45.3626C78.971 45.5745 86.1281 45.6818 93.2664 45.8012C98.6919 45.8922 106.574 44.6172 105.336 43.1303C104.586 42.23 103.968 41.2958 102.33 40.4647C96.1729 37.3361 84.2654 35.3943 71.3702 33.7105C54.4246 31.4999 37.2477 29.3734 22.0211 26.5965C14.1264 25.1572 8.10078 23.4367 6.0193 21.241C4.33162 19.4608 3.95657 17.6222 2.8377 15.8148V15.8148C2.01038 14.4849 1.00625 13.2795 1.00625 11.7132C1.00625 10.2528 1.00625 8.79181 1.00625 7.32874C1.00625 3.83921 3.83439 1.00999 7.32393 1.00898C22.8922 1.00447 38.456 1.00428 54.0153 1.00427Z" stroke="white" stroke-width="2" stroke-miterlimit="10"/>
<path d="M143.584 109.606C137.154 109.606 133.946 104.24 139.882 101.769C141.588 101.058 143.602 100.369 145.966 99.7027C152.429 97.8818 160.593 96.5117 169.8 95.4199C175.732 94.7152 181.87 94.0905 187.752 93.3681C196.665 92.2764 202.778 90.6007 207.304 88.6494C215.167 85.2601 223.931 81.9401 228.438 78.2452C231.082 76.0753 232.332 73.8226 234.107 71.6038C235.363 70.0354 234.519 68.3978 237.72 66.8905C240.645 65.515 245.771 64.8795 252.346 64.6744C262.466 64.3581 272.442 64.5468 282.356 65.0479C291.126 65.4905 299.314 66.16 305.29 67.7202C306.877 68.1357 308.628 68.5512 309.659 69.0319C315.466 71.7273 322.929 74.1824 331.261 76.5424C341.569 79.4646 339.475 82.5389 331.53 85.491C324.154 88.2326 313.409 90.2952 300.17 91.6069C284.281 93.1807 267.898 94.5155 251.934 96.0568C245.339 96.6936 238.907 97.4798 233.094 98.4046C225.944 99.5425 223.606 101.342 223.662 103.16C223.718 104.997 225.243 106.832 226.131 108.668V108.668C226.338 109.101 226.033 109.607 225.553 109.607C218.745 109.607 211.933 109.607 205.124 109.607C203.709 109.607 202.487 108.828 201.585 107.737V107.737C199.916 105.72 198.659 103.681 194.059 101.835C190.058 100.23 180.77 99.499 173.163 100.284C162.074 101.429 156.486 103.398 156.055 106.031V106.031C155.749 107.909 154.87 109.607 152.967 109.607C149.842 109.606 146.713 109.606 143.584 109.606ZM236.133 86.6914C235.99 86.8229 236.078 87.0627 236.272 87.0729V87.0729C236.433 87.0814 236.523 87.2619 236.494 87.4206C236.129 89.3723 243.135 90.1596 250.996 89.8878C256.091 89.7113 261.304 89.4832 266.029 89.0514C276.843 88.0642 287.638 87.0607 296.257 85.2072C303.608 83.6279 304.665 81.8192 301.196 79.8639C298.17 78.1597 294.445 76.5085 290.651 74.8763C287.369 73.4627 282.819 72.2624 275.912 71.5888C269.892 71.0022 263.266 71.1937 259.022 72.2637C256.097 73.0011 253.259 73.8484 251.834 74.7555C247.608 77.4482 243.983 80.187 240.358 82.9218C238.718 84.1645 237.495 85.4321 236.133 86.6914Z" stroke="white" stroke-width="2" stroke-miterlimit="10"/>
<path d="M780.122 109.606C779.444 109.606 778.779 109.418 778.2 109.066C776.192 107.844 774.166 106.623 772.215 105.396C766.046 101.509 759.67 97.6346 753.869 93.7212C750.35 91.3462 751.094 88.9169 753.77 86.4972C757.157 83.4283 761.808 80.464 768.302 77.641C773.178 75.5227 779.585 73.646 787.123 71.9365C789.842 71.3213 792.255 70.6329 794.524 69.9349C796.837 69.2207 797.756 68.4141 796.093 67.564C793.986 66.4859 791.88 65.4063 789.561 64.3485C786.654 63.0219 783.492 61.721 780.504 60.4011C772.372 56.8095 761.764 53.5981 749.669 50.5836C735.799 47.1277 722.647 43.5388 711.602 39.6158C705.645 37.5016 701.626 35.2285 702.308 32.6946C702.995 30.1513 707.946 27.9461 714.746 25.9269C722.216 23.7108 731.473 21.86 740.606 19.9752C746.844 18.688 752.619 17.2852 758.207 15.8595C767.709 13.4343 777.247 11.024 788.698 9.00888C792.086 8.41276 795.287 7.76776 798.612 7.15399V7.15399C799.845 6.92723 800.956 7.95345 800.956 9.20673C800.956 9.39646 800.956 9.58619 800.956 9.77592C800.956 11.1113 799.933 12.1968 798.603 12.3258C798.34 12.3513 798.085 12.3798 797.843 12.4131C787.711 13.805 779.772 15.7277 771.415 17.5528C764.602 19.0396 757.657 20.4967 750.825 21.9781C744.156 23.4257 736.911 24.7768 731.073 26.3696C720.603 29.2266 718.797 32.4231 727.16 35.6725C732.067 37.579 737.862 39.3809 743.518 41.191C760.508 46.628 777.591 52.0528 794.761 57.464V57.464C798.301 58.5797 800.968 61.483 800.968 65.1946C800.968 66.0378 800.968 66.881 800.968 67.7242C800.968 73.5031 796.472 78.1598 790.813 79.3295C789.741 79.5511 788.73 79.7903 787.773 80.0445C780.791 81.9007 778.285 84.1534 778.066 86.4334C777.691 90.3998 776.803 94.3798 779.091 98.3394C780.897 101.475 785.848 104.379 792.936 107.126V107.126C794.258 107.639 793.874 109.606 792.456 109.606C788.341 109.606 784.23 109.606 780.122 109.606Z" stroke="white" stroke-width="2" stroke-miterlimit="10"/>
<path d="M220.495 1.00368C223.069 1.00403 223.849 4.05694 221.993 5.83954V5.83954C220.193 7.56814 219.486 9.35377 218.542 11.1204C217.849 12.4185 217.68 13.7289 217.011 15.0271C215.942 17.1128 211.154 18.8156 204.797 20.3324C197.628 22.0433 193.627 24 194.083 26.3573C194.327 27.6215 193.865 28.8925 194.183 30.1554C194.777 32.495 195.609 34.832 196.534 37.1675C197.403 39.3687 198.646 41.5617 199.49 43.7628C200.028 45.1683 195.152 46.0753 188.502 45.9246C169.7 45.4969 153.61 43.8592 141.259 40.7293C135.258 39.2071 130.251 37.5016 124.732 35.8898C119.963 34.4966 115.394 33.064 110.218 31.7427C101.398 29.49 89.8408 27.98 78.4145 26.4402C69.3135 25.214 60.1063 24.0109 52.5867 22.3176C43.1357 20.1884 39.7916 17.641 41.4167 14.727C42.5294 12.7254 45.0859 10.8502 49.7989 9.1012C54.3557 7.40927 60.3876 6.02014 67.7571 4.93382C75.6705 3.76875 83.9714 2.72724 92.0473 1.61241C92.9586 1.48738 93.6336 1.2824 94.3668 1.09677C94.6233 1.0318 94.8875 1.00272 95.1521 1.00272C101.993 1.00272 108.834 1.00272 115.675 1.00272C116.062 1.00272 116.152 1.567 115.775 1.65451V1.65451C109.068 3.2093 100.679 4.26438 92.3536 5.33576C82.8463 6.55787 73.4265 7.8017 66.6258 9.76929C53.7056 13.5076 54.6369 18.0755 70.3887 21.2204C79.2709 22.9938 89.7095 24.4142 99.7669 25.8916C109.993 27.3948 119.932 28.917 126.645 31.2539C131.158 32.8236 135.896 34.3689 141.003 35.849C145.191 37.063 150.285 38.1154 156.817 38.7536C165.337 39.586 173.256 38.9464 176.144 37.12C177.438 36.2985 178.219 35.4077 178.413 34.54C178.894 32.3008 177.113 30.1269 173.037 28.0588C171.112 27.0825 169.062 26.1183 166.924 25.1637C161.761 22.858 162.73 20.6528 170.081 18.692C175.25 17.3124 181.326 16.0916 187.101 14.822C191.864 13.7764 195.709 12.5842 197.846 11.2059C200.734 9.34562 203.078 7.44457 205.41 5.54623C206.71 4.4888 207.828 3.4213 208.949 2.35365C209.868 1.47822 211.09 1.00049 212.359 1.00116C215.069 1.00257 217.782 1.0033 220.495 1.00368Z" stroke="white" stroke-width="2" stroke-miterlimit="10"/>
<path d="M346.567 109.605C342.328 109.606 339.923 105.449 343.57 103.288C344.941 102.475 346.614 101.683 348.663 100.917C353.451 99.127 361.158 97.9796 370.078 97.2531C382.892 96.2102 396.137 95.921 409.663 96.2904C419.965 96.5714 430.197 96.972 440.517 97.2015C449.918 97.4106 459.325 97.321 465.92 95.534C468.882 94.7315 471.251 93.8095 473.445 92.8902C477.765 91.0815 481.959 89.2497 488.66 87.7954C496.961 85.9921 507.112 84.7673 518.007 83.9009C526.858 83.1975 535.996 82.634 545.16 82.1506C552.598 81.7595 560.255 81.8532 567.624 82.3475C574.525 82.8105 578.819 83.9607 580.107 85.4014C583.445 89.1234 582.282 92.7856 573.938 96.2089C569.731 97.9348 562.811 99.0618 554.367 99.571C543.578 100.223 532.521 100.666 521.569 101.184C512.743 101.602 503.811 101.935 495.073 102.424C485.39 102.966 479.109 104.417 475.671 106.409C475.569 106.468 475.47 106.527 475.374 106.586C472.705 108.224 469.895 109.603 466.764 109.603C464.113 109.603 461.463 109.603 458.812 109.603C456.804 109.603 455.459 108.062 454.65 106.225V106.225C453.987 104.705 451.993 103.259 446.192 102.279C441.967 101.564 437.498 100.866 432.666 100.383C420.115 99.1243 406.807 98.645 393.124 99.2221C380.104 99.772 369.29 101.198 361.314 103.533C357.181 104.744 354.094 106.057 352.031 107.462C350.39 108.579 348.552 109.604 346.567 109.605V109.605ZM520.332 97.3278C524.526 97.2422 527.526 97.1974 530.508 97.116C545.291 96.7099 562.074 94.5482 563.03 90.3754C563.624 87.7791 557.623 85.9473 545.322 85.8536C536.359 85.7857 528.351 86.5013 520.807 87.445C511.837 88.5694 504.911 90.1174 501.217 92.2778C497.692 94.3363 501.073 96.2605 509.856 96.8906C513.544 97.1567 517.544 97.2164 520.332 97.3278Z" stroke="white" stroke-width="2" stroke-miterlimit="10"/>
<path d="M780.143 1.00481C784.384 1.00431 785.105 4.84683 780.973 5.79894V5.79894C767.152 8.98728 753.232 12.1498 741.081 15.6586C737.599 16.6648 733.511 17.5787 729.48 18.4871C714.334 21.9009 699.126 25.2929 685.993 29.1031C681.299 30.4651 675.805 31.728 669.954 32.8604C663.91 34.0296 656.184 34.2428 648.221 34.0527C643.995 33.9522 639.732 33.925 635.494 33.8544C625.368 33.686 615.148 33.6725 605.447 32.8604C596.971 32.1503 594.502 30.6308 595.527 29.0149C596.652 27.2496 598.478 25.5047 599.421 23.7367C601.797 19.2937 600.678 14.9294 591.358 10.8327C586.501 8.69805 579.488 6.92192 571.062 5.40108C565.193 4.34192 559.205 3.31128 551.81 2.82243C546.434 2.46802 540.984 2.47753 535.739 3.05871C527.757 3.9427 519.688 4.76015 510.574 4.97877C503.08 5.15801 496.116 4.73163 489.303 4.18712C482.809 3.6684 477.052 2.84416 472.258 1.74291V1.74291C471.836 1.64607 471.968 1.00421 472.4 1.00421C509.524 1.00421 546.648 1.00421 583.771 1.00421C584.385 1.00421 584.892 1.35015 585.457 1.58675V1.58675C588.514 2.8686 591.558 4.15317 594.752 5.42009C601.984 8.2866 607.866 11.2577 611.104 14.4732C613.611 16.9622 616.33 19.4499 619.736 21.8873C622.193 23.6458 627.437 25.0485 635.55 25.7844C652.659 27.3352 668.892 26.9672 683.324 24.4103C691.419 22.9763 699.032 21.3876 706.146 19.7242C713.903 17.91 721.329 16.0062 728.004 14.0006C737.824 11.0472 747.994 8.17933 759.952 5.61155C764.14 4.71127 767.809 3.68741 771.39 2.66628C772.651 2.30631 773.496 1.87787 774.37 1.45469C775.005 1.14716 775.705 1.00549 776.411 1.00536C777.655 1.00514 778.899 1.00495 780.143 1.00481Z" stroke="white" stroke-width="2" stroke-miterlimit="10"/>
<path d="M203.632 1.00433C206.029 1.0042 207.258 4.0376 205.397 5.55044V5.55044C203.066 7.44878 200.722 9.34984 197.834 11.2102C195.696 12.5884 191.852 13.7806 187.089 14.8262C181.307 16.0945 175.238 17.3166 170.069 18.6962C162.718 20.6557 161.755 22.8623 166.912 25.168C169.05 26.1226 171.1 27.088 173.025 28.063C177.107 30.1311 178.888 32.3051 178.401 34.5442C178.213 35.4119 177.432 36.3027 176.132 37.1242C173.25 38.9506 165.324 39.5902 156.805 38.7578C150.273 38.1196 145.178 37.0672 140.99 35.8532C135.884 34.3731 131.146 32.8278 126.633 31.2581C119.919 28.9212 109.981 27.399 99.7546 25.8958C89.6973 24.4184 79.2649 22.998 70.3764 21.2246C54.6247 18.0797 53.6934 13.5131 66.6135 9.7735C73.4143 7.80591 82.8403 6.56208 92.3413 5.33997C100.673 4.26859 109.056 3.21351 115.763 1.65872C116.372 1.5173 116.848 1.34848 117.335 1.1818C117.684 1.06254 118.05 1.00693 118.419 1.00693C124.807 1.00693 131.195 1.00693 137.583 1.00693C137.881 1.00693 137.962 1.4458 137.671 1.51478V1.51478C127.664 3.8748 116.181 5.82474 103.499 7.47458C94.5166 8.64237 85.3593 9.8088 79.8837 11.8864C74.5644 13.9042 74.1706 15.9682 79.915 17.9249C89.3973 21.1527 103.474 22.9546 120.619 23.6349C125.514 23.8291 130.496 23.6077 133.696 22.7156C138.209 21.4568 142.209 20.1071 146.297 18.7791C151.467 17.1007 157.455 15.588 164.443 14.2491C171.725 12.8546 178.457 11.3405 182.826 9.42316C185.858 8.09289 187.771 6.7092 188.989 5.29325C190.795 3.19469 192.995 1.00603 195.763 1.00537C198.388 1.00475 201.011 1.00446 203.632 1.00433Z" stroke="white" stroke-width="2" stroke-miterlimit="10"/>
<path d="M1.01257 16.637C1.0126 15.6742 2.33638 14.9897 2.84405 15.8078V15.8078C3.96292 17.6165 4.33796 19.4538 6.02565 21.234C8.10713 23.4297 14.139 25.1515 22.0274 26.5895C37.2541 29.3664 54.431 31.4915 71.3766 33.7035C84.2717 35.3873 96.1793 37.3291 102.336 40.4577C103.968 41.2887 104.593 42.223 105.343 43.1233C106.58 44.6101 98.6983 45.8852 93.2727 45.7942C86.1344 45.6747 78.9774 45.5675 71.8891 45.3556C58.9315 44.9673 50.193 45.9966 45.5487 48.6485C42.6297 50.316 40.4669 52.0487 37.4416 53.7067C32.6036 56.3641 26.1529 58.8219 15.2017 60.5301C12.2368 60.9921 9.07486 61.4361 5.51159 61.6631C3.03058 61.8212 1.00635 59.7966 1.00635 57.3105V57.3105C1.00635 55.253 2.41165 53.4818 4.41753 53.0239C5.89446 52.6868 7.29211 52.3405 8.25714 51.9441C11.4075 50.6541 13.764 49.2718 16.4455 47.9275C21.8899 45.1968 27.4405 42.4755 32.7411 39.7312C35.8727 38.1099 36.3977 36.475 32.391 34.8442C28.5156 33.2649 22.4962 32.1229 16.2018 31.0556C12.6832 30.4585 8.88918 29.9379 5.11274 29.4126C2.75543 29.0848 1.00873 27.0656 1.01029 24.6856C1.01206 22.0027 1.01247 19.3199 1.01257 16.637Z" stroke="white" stroke-width="2" stroke-miterlimit="10"/>
<path d="M615.724 6.79292C613.086 5.06783 614.162 1.00421 617.314 1.00421C621.391 1.00421 625.468 1.00421 629.545 1.00421C630.448 1.00421 631.123 1.60079 631.9 2.06065V2.06065C636.982 5.07382 642.008 8.09107 647.377 11.0798C649.021 11.9937 651.346 12.8709 653.94 13.6761C657.541 14.795 663.648 14.9457 668.717 14.1323C672.736 13.4873 674.911 12.5504 676.487 11.5632C681.031 8.7157 687.738 6.1357 696.045 3.73087C698.518 3.01521 700.599 2.23575 702.76 1.4697C703.639 1.15814 704.566 1.00557 705.498 1.00557C719.552 1.00557 733.605 1.00557 747.659 1.00557C748.092 1.00557 748.224 1.64778 747.801 1.74426V1.74426C744.582 2.48296 741.35 3.22437 737.875 3.90468C726.63 6.10582 718.798 8.8189 711.809 11.7031C707.278 13.5729 701.896 15.3599 696.264 17.0858C690.619 18.8157 683.319 20.1953 674.405 21.1337C660.622 22.5839 645.521 21.818 636.232 19.1824C630.85 17.6561 628.544 15.8392 626 14.0482C622.562 11.6311 619.38 9.19504 615.724 6.79292V6.79292Z" stroke="white" stroke-width="2" stroke-miterlimit="10"/>
<path d="M178.738 1.00421C185.136 1.00421 188.711 6.8497 182.851 9.42045V9.42045C178.482 11.3378 171.75 12.8532 164.468 14.2464C157.473 15.5853 151.492 17.0966 146.322 18.7763C142.228 20.1057 138.234 21.4541 133.721 22.7129C130.527 23.6037 125.545 23.8264 120.644 23.6322C103.499 22.9519 89.4223 21.1499 79.94 17.9222C74.1894 15.9655 74.5894 13.9015 79.9087 11.8837C85.3843 9.80609 94.5416 8.63966 103.524 7.47187C116.206 5.82202 127.689 3.87209 137.696 1.51206V1.51206C138.679 1.27877 139.65 1.00421 140.66 1.00421C153.349 1.00421 166.042 1.00421 178.738 1.00421ZM115 17.5773C121.876 17.5054 126.689 16.5874 131.233 15.6287C135.246 14.7828 138.796 13.835 142.609 12.9442C146.641 12.0032 150.842 11.0961 154.804 10.1415C158.399 9.27651 161.136 8.29611 162.086 7.12153C163.068 5.90621 159.124 5.08061 153.829 5.45539C150.998 5.655 148.166 5.92251 145.672 6.2742C135.39 7.72308 125.195 9.20183 115.063 10.6996C110.7 11.3446 106.293 11.995 103.493 13.0189C100.88 13.9748 99.9922 14.9675 102.692 15.9669C105.412 16.969 109.618 17.4945 115 17.5773Z" stroke="white" stroke-width="2" stroke-miterlimit="10"/>
<path d="M604.076 1.00421C605.317 1.00421 606.536 1.33817 607.61 1.95988C610.387 3.56556 613.238 5.16553 615.711 6.79292C619.367 9.19504 622.549 11.6311 625.987 14.0482C628.537 15.8392 630.844 17.6547 636.219 19.1824C645.502 21.818 660.61 22.5839 674.392 21.1337C683.312 20.1953 690.613 18.8157 696.251 17.0858C701.883 15.3599 707.265 13.5729 711.796 11.7031C718.785 8.8189 726.617 6.10718 737.862 3.90468C741.337 3.22437 744.569 2.48296 747.788 1.74426C748.21 1.64785 748.526 1.52927 748.812 1.4043C749.401 1.14591 750.031 1.00557 750.675 1.00557C757.459 1.00557 764.246 1.00557 771.031 1.00557C771.993 1.00557 772.297 2.40193 771.372 2.66628V2.66628C767.79 3.68741 764.127 4.71127 759.933 5.61155C747.975 8.17933 737.805 11.0472 727.986 14.0006C721.316 16.0062 713.884 17.91 706.127 19.7242C699.014 21.3876 691.4 22.9763 683.306 24.4103C668.873 26.9672 652.646 27.3352 635.532 25.7844C627.418 25.0498 622.174 23.6458 619.718 21.8873C616.311 19.4499 613.592 16.9636 611.085 14.4732C607.847 11.2577 601.966 8.2866 594.734 5.42009C591.539 4.15317 588.495 2.86996 585.439 1.58675V1.58675C585.144 1.46359 585.33 1.00421 585.65 1.00421C591.804 1.00421 597.941 1.00421 604.076 1.00421Z" stroke="white" stroke-width="2" stroke-miterlimit="10"/>
<path d="M800.954 54.3991C800.958 56.6792 798.836 58.4394 796.61 57.9443C795.929 57.7929 795.295 57.6345 794.749 57.4627C777.585 52.0515 760.502 46.6267 743.506 41.1897C737.849 39.3796 732.055 37.5776 727.148 35.6712C718.785 32.4217 720.591 29.2239 731.061 26.3682C736.899 24.7754 744.144 23.4243 750.813 21.9768C757.645 20.494 764.596 19.0383 771.403 17.5514C779.76 15.7264 787.705 13.8036 797.831 12.4118V12.4118C799.496 12.1836 800.944 13.5799 800.944 15.2603C800.944 16.1989 800.944 17.1375 800.944 18.076C800.944 19.397 799.925 20.4589 798.612 20.604V20.604C784.361 22.1601 770.559 23.8833 758.308 26.1184C752.426 27.1925 747.775 28.4838 746.456 30.2206C745.288 31.7686 747.813 33.1088 751.032 34.4151C756.426 36.6054 762.183 38.7549 767.259 40.9778C775.397 44.5464 785.58 47.8026 797.525 50.8076C797.656 50.8409 797.797 50.8724 797.946 50.9024C799.661 51.2494 800.95 52.6494 800.954 54.3991V54.3991Z" stroke="white" stroke-width="2" stroke-miterlimit="10"/>
<path d="M800.956 47.9031C800.957 49.7217 799.302 51.2527 797.537 50.8117V50.8117C785.592 47.8053 775.41 44.5491 767.271 40.9819C762.202 38.7576 756.439 36.6081 751.045 34.4192C747.825 33.1115 745.294 31.7726 746.469 30.2246C747.782 28.4865 752.439 27.1951 758.32 26.1224C770.572 23.886 784.373 22.1641 798.625 20.608V20.608C799.878 20.4719 800.956 21.4979 800.956 22.7585C800.956 24.2726 800.956 25.7866 800.956 27.3007C800.956 30.7292 798.204 33.5283 794.899 34.4407C792.55 35.0891 790.688 35.9164 790.355 36.4859C788.936 38.9138 791.974 41.0796 798.387 43.0486V43.0486C799.826 43.4888 800.953 44.5952 800.954 46.1C800.955 46.7009 800.955 47.302 800.956 47.9031Z" stroke="white" stroke-width="2" stroke-miterlimit="10"/>
<path d="M1.01147 83.4129C1.01333 79.4559 4.26086 76.213 8.2123 76.4226C10.8235 76.5611 13.2928 76.7976 15.4767 77.2404C20.1084 78.1787 20.671 79.4348 20.9023 80.665C21.1586 82.0121 20.3897 83.3672 20.4335 84.7183C20.5147 87.1884 22.1274 89.6081 25.6653 91.9695C28.2718 93.7063 30.7909 95.4552 32.7473 97.2314C35.7101 99.9268 33.6474 102.607 31.3222 105.277V105.277C29.0319 107.911 25.8474 109.604 22.3565 109.604C16.1496 109.604 9.94261 109.604 3.73565 109.604C2.23175 109.604 1.0126 108.385 1.0126 106.881V106.881C1.0126 105.495 2.06006 104.375 3.43585 104.2C3.70855 104.165 3.96311 104.127 4.18795 104.081C14.6703 101.955 17.7644 99.2478 14.5453 96.3569C11.9325 94.0118 7.08201 91.7835 3.13158 89.5104V89.5104C2.01424 88.8659 1.00775 88.0622 1.00905 86.7723C1.01018 85.6525 1.01095 84.5327 1.01147 83.4129Z" stroke="white" stroke-width="2" stroke-miterlimit="10"/>
<path d="M695.594 1.00422C697.191 1.00423 697.578 3.28573 696.045 3.72952V3.72952C687.737 6.13436 681.03 8.71436 676.486 11.5619C674.911 12.5491 672.73 13.486 668.717 14.131C663.647 14.9444 657.54 14.7937 653.94 13.6747C651.346 12.8695 649.021 11.9923 647.377 11.0785C642.007 8.08973 636.982 5.07248 631.9 2.05931V2.05931C631.417 1.77355 631.831 1.00292 632.393 1.00295C653.458 1.00407 674.528 1.00421 695.594 1.00422Z" stroke="white" stroke-width="2" stroke-miterlimit="10"/>
<path d="M801 109.198C801.026 110.6 798.417 109.338 797.119 108.809C795.736 108.246 794.353 107.683 792.918 107.126C785.836 104.381 780.885 101.475 779.073 98.3394C776.791 94.3798 777.679 90.3998 778.047 86.4334C778.26 84.1548 780.773 81.9007 787.755 80.0445C789.171 79.6676 790.706 79.3239 792.383 79.022C796.973 78.1957 800.95 81.947 800.95 86.6102C800.95 88.3184 800.95 90.0267 800.95 91.7351C800.95 92.4244 800.254 92.6643 799.819 93.1984V93.1984C797.975 95.4715 796.749 97.7514 799.356 100.037V100.037C800.133 100.716 800.956 101.333 800.954 102.365C800.948 104.643 800.94 106.921 801 109.198V109.198Z" stroke="white" stroke-width="2" stroke-miterlimit="10"/>
<path d="M1.0127 32.5577C1.0127 30.5935 2.75452 29.0834 4.69988 29.3543C8.61432 29.8995 12.5593 30.4364 16.2081 31.0556C22.4963 32.1229 28.5157 33.2649 32.3974 34.8442C36.4041 36.475 35.879 38.1099 32.7474 39.7312C27.4468 42.4755 21.9025 45.1968 16.4519 47.9275C13.7703 49.2718 11.4138 50.6541 8.26349 51.9441C8.15523 51.9884 8.04161 52.032 7.92313 52.075C4.52033 53.3112 1.0127 50.302 1.0127 46.6816C1.0127 45.7521 1.0127 44.8227 1.0127 43.8932C1.0127 42.87 1.79177 42.1794 2.73163 41.7749V41.7749C5.78822 40.4591 7.4634 39.0618 6.43829 37.5912C6.02648 37.0007 5.34711 36.4064 3.74139 35.9195C2.20866 35.4548 1.0127 34.1593 1.0127 32.5577V32.5577Z" stroke="white" stroke-width="2" stroke-miterlimit="10"/>
<path d="M358.762 109.606C354.971 109.606 353.741 106.216 357.287 104.875C358.5 104.416 359.846 103.969 361.328 103.536C369.303 101.2 380.117 99.7747 393.137 99.2247C406.82 98.6476 420.121 99.1269 432.679 100.386C437.511 100.87 441.974 101.568 446.206 102.281C452.012 103.262 454 104.707 454.663 106.227V106.227C455.379 107.873 453.696 109.606 451.902 109.606C448.914 109.606 445.926 109.606 442.936 109.606C442.116 109.606 441.472 109.092 440.942 108.467V108.467C439.586 106.875 437.63 105.343 432.304 104.117C422.934 101.961 411.027 101.233 398.138 101.662C379.494 102.283 367.606 104.976 361.686 108.689C360.804 109.243 359.803 109.606 358.762 109.606V109.606Z" stroke="white" stroke-width="2" stroke-miterlimit="10"/>
<path d="M160.273 109.606C158.168 109.606 155.735 108.108 156.073 106.029V106.029C156.505 103.396 162.086 101.427 173.181 100.283C180.782 99.4977 190.077 100.228 194.077 101.833C198.678 103.68 199.941 105.718 201.603 107.736V107.736C202.218 108.481 201.58 109.606 200.614 109.606C187.164 109.606 173.718 109.606 160.273 109.606Z" stroke="white" stroke-width="2" stroke-miterlimit="10"/>
<path d="M511.631 109.606C506.276 109.606 505.782 106.07 511.112 105.558V105.558C519.257 104.774 527.914 104.458 536.79 104.277C543.522 104.14 549.991 104.243 556.542 104.542V104.542C565.96 104.971 564.719 109.607 555.291 109.607C550.359 109.607 545.427 109.607 540.495 109.607C539.149 109.607 537.807 109.458 536.466 109.34C533.385 109.07 528.81 109.112 526.192 109.467C525.625 109.544 525.056 109.607 524.484 109.607C520.2 109.607 515.915 109.606 511.631 109.606Z" stroke="white" stroke-width="2" stroke-miterlimit="10"/>
<path d="M371.14 109.606C367.615 109.606 366.736 106.163 370.129 105.209C376.755 103.344 386.017 102.066 398.131 101.662C411.02 101.233 422.928 101.961 432.298 104.117C437.629 105.343 439.58 106.875 440.936 108.467V108.467C441.317 108.916 440.87 109.606 440.281 109.606C437.321 109.606 434.362 109.606 431.4 109.606C429.218 109.606 427.058 108.402 425.065 107.512C419.779 105.153 408.157 103.758 395.537 104.576C384.543 105.289 377.285 106.827 373.176 109.05C372.547 109.39 371.854 109.606 371.14 109.606V109.606Z" stroke="white" stroke-width="2" stroke-miterlimit="10"/>
<path d="M679.736 109.606C678.145 109.606 677.332 107.351 678.786 106.705V106.705C683.031 104.825 691.325 104.496 699.789 104.614C711.603 104.778 722.004 105.762 729.998 107.722V107.722C731.083 107.989 730.822 109.606 729.706 109.606C713.049 109.606 696.393 109.606 679.736 109.606Z" stroke="white" stroke-width="2" stroke-miterlimit="10"/>
<path d="M389.204 109.606C384.208 109.606 383.531 105.784 388.493 105.203C390.647 104.951 392.995 104.742 395.544 104.576C401.689 104.178 407.599 104.304 412.656 104.811C420.013 105.549 418.954 109.606 411.56 109.606V109.606C409.953 109.606 408.361 109.187 406.78 108.901C404.915 108.563 402.467 108.439 400.075 108.438C396.87 108.436 393.555 108.611 391.457 109.204C390.721 109.412 389.969 109.606 389.204 109.606V109.606Z" stroke="white" stroke-width="2" stroke-miterlimit="10"/>
<path d="M439.401 1.00421C440.747 1.00421 441.998 1.77774 442.517 3.01933V3.01933C442.667 3.37781 442.886 3.73901 442.817 4.0975C442.667 4.86607 440.361 5.34948 436.823 5.34405C426.353 5.32775 416.514 4.64066 406.913 3.85036C400.856 3.35201 395.218 2.6011 389.549 1.90314V1.90314C388.999 1.8354 389.112 1.00421 389.666 1.00421C406.239 1.00421 422.818 1.00421 439.401 1.00421Z" stroke="white" stroke-width="2" stroke-miterlimit="10"/>
<path d="M1.01271 91.1687C1.01269 90.0514 2.16846 88.9561 3.13793 89.5117V89.5117C7.08836 91.7848 11.9389 94.0118 14.5517 96.3582C17.7708 99.2492 14.6767 101.957 4.19429 104.082V104.082C2.52232 104.421 1.01712 102.956 1.01582 101.25C1.01325 97.8894 1.0128 94.5291 1.01271 91.1687Z" stroke="white" stroke-width="2" stroke-miterlimit="10"/>
<path d="M800.956 40.8906C800.956 42.2516 799.694 43.4477 798.393 43.0458V43.0458C791.974 41.0769 788.942 38.9111 790.361 36.4831C790.759 35.8025 793.341 34.7536 796.328 34.082C798.826 33.5203 800.959 35.5717 800.957 38.1321C800.957 39.0516 800.956 39.9711 800.956 40.8906Z" stroke="white" stroke-width="2" stroke-miterlimit="10"/>
<path d="M1.0127 38.6496C1.0127 36.909 2.58789 35.4934 4.2259 36.0822C5.48946 36.5363 6.07055 37.0667 6.43829 37.594C7.45715 39.0632 5.78197 40.4605 2.73163 41.7776V41.7776C1.89632 42.1372 1.0127 41.2883 1.0127 40.3789C1.0127 39.8024 1.0127 39.226 1.0127 38.6496Z" stroke="white" stroke-width="2" stroke-miterlimit="10"/>
<path d="M304.773 109.606C303.908 109.606 303.707 108.326 304.558 108.171V108.171C308.715 107.413 312.597 107.604 315.403 108.615V108.615C315.927 108.803 315.705 109.606 315.149 109.606C311.689 109.606 308.231 109.606 304.773 109.606Z" stroke="white" stroke-width="2" stroke-miterlimit="10"/>
<path d="M800.957 98.9264C800.957 99.759 799.983 100.583 799.356 100.035V100.035C796.75 97.75 797.975 95.4701 799.819 93.197V93.197C800.197 92.7336 800.952 93.4838 800.953 94.0818C800.956 95.6965 800.956 97.3116 800.957 98.9264Z" stroke="white" stroke-width="2" stroke-miterlimit="10"/>
<path d="M400.078 109.606C397.691 109.606 397.559 108.44 399.946 108.438C399.987 108.438 400.028 108.438 400.069 108.438C400.117 108.438 400.164 108.438 400.212 108.438C402.559 108.445 402.425 109.606 400.078 109.606V109.606Z" stroke="white" stroke-width="2" stroke-miterlimit="10"/>
<path d="M531.907 109.606C531.108 109.606 531.104 109.164 531.904 109.164V109.164C532.704 109.164 532.707 109.606 531.907 109.606V109.606Z" stroke="white" stroke-width="2" stroke-miterlimit="10"/>
<path d="M343.544 13.2238C342.994 16.2247 338.381 18.9609 331.661 21.5504C324.673 24.2417 314.247 26.2378 303.452 28.1756C294.488 29.7847 285.481 31.3978 277.205 33.1672C269.754 34.7614 263.472 36.6108 256.309 38.2729C248.021 40.1956 237.219 41.282 225.874 39.5289C221.724 38.8866 218.674 38.0108 216.717 36.9951C208.748 32.8508 210.954 28.3195 226.537 24.9669C230.738 24.0639 234.713 23.1025 238.476 22.1126C245.345 20.3052 247.346 18.2317 245.089 15.9409C243.326 14.1526 241.314 12.3683 240.232 10.5582C238.526 7.69986 242.076 5.15788 252.421 3.23917C257.384 2.31852 263.704 2.17458 269.911 2.419C284.218 2.98389 297.901 4.01181 310.996 5.36835C317.828 6.07581 324.585 6.86204 330.786 7.79763C339.262 9.08084 344.237 10.8597 343.544 13.2238ZM275.27 10.2814C273.198 10.8141 273.3 13.0099 274.955 14.3671V14.3671C276.843 15.9151 279.024 17.4468 280.706 19.0057C281.787 20.0119 281.962 21.0629 282.968 22.0745C283.968 23.0821 287.95 23.5872 292.419 23.279C305.314 22.3896 314.322 19.5068 313.959 16.4949C313.534 12.9576 299.951 10.2405 285.844 9.59955C281.352 9.39482 277.653 9.66909 275.27 10.2814Z" stroke="white" stroke-width="2" stroke-miterlimit="10"/>
<path d="M50.2075 90.4271C47.7143 88.6792 47.6059 84.8142 49.8955 82.8071C50.6323 82.1612 51.5326 81.5258 52.5365 80.8972C58.0559 77.4386 63.6878 73.9855 69.8947 70.584C73.095 68.8309 78.0393 67.215 87.8779 67.0494C93.1785 66.9598 98.6041 67.2042 103.961 67.3115C116.356 67.5586 128.739 67.9863 141.14 68.0121C151.229 68.0325 161.348 67.579 171.443 67.3278C179.063 67.1376 186.651 66.8335 194.352 67.1621C206.753 67.6917 214.967 69.7543 216.686 72.5557C218.348 75.2687 215.386 77.774 210.204 80.1707C206.672 81.8029 202.347 83.355 198.184 84.9193C190.045 87.9773 178.363 90.2816 165.024 92.2451C152.429 94.0987 140.327 96.1165 130.308 98.6082C123.219 100.369 117.35 102.36 110.812 104.227C108.318 104.94 105.786 105.672 102.717 106.259C95.7538 107.591 87.4716 106.557 83.5274 105.542C76.8767 103.829 73.9951 101.703 69.8259 99.7122C65.7817 97.7799 61.2687 95.8938 57.012 93.9819C54.415 92.8137 51.9345 91.6379 50.2075 90.4271ZM132.658 71.7328C124.776 71.7328 116.856 71.654 108.986 71.7518C97.8915 71.8903 88.4717 72.9073 81.3272 74.769C72.6825 77.0204 66.7006 79.6018 62.9064 82.4058C59.131 85.1909 58.706 87.9651 64.7566 90.6605C68.8258 92.4746 74.6515 93.99 81.3647 95.3669C91.097 97.3617 102.004 97.9374 114.418 96.5442C131.689 94.6065 146.166 91.8473 160.636 89.0975C171.443 87.0444 180.026 84.569 187.589 81.9278C193.052 80.0214 198.215 78.0823 198.69 75.7535C198.965 74.4024 197.284 73.2034 192.264 72.3234C185.701 71.1733 177.863 71.1149 170.006 71.2059C157.567 71.3512 145.147 71.5535 132.658 71.7328Z" stroke="white" stroke-width="2" stroke-miterlimit="10"/>
<path d="M509.768 32.0306C502.142 31.9518 495.91 31.9138 489.697 31.8188C480.984 31.6857 475.714 30.5125 475.396 28.625C475.064 26.7076 474.871 24.7889 474.752 22.8702C474.546 19.5407 471.77 16.3225 466.351 13.2061C464.995 12.4267 463.976 11.6133 463.094 10.8013C461.763 9.57507 465.326 8.82551 471.402 9.04685C479.084 9.32793 486.797 9.59137 494.404 9.95392C508.974 10.6478 523.263 10.3192 537.659 9.66741C543.459 9.40533 549.673 9.28855 555.529 9.42978C569.631 9.77061 578.294 11.7097 582.951 14.492C589.708 18.5304 586.133 22.3529 576.751 26.0029C572.85 27.5197 567.9 28.8504 561.468 29.8905C555.061 30.9253 547.697 31.5105 539.822 31.6585C529.37 31.8568 518.875 31.9233 509.768 32.0306ZM546.585 13.7642C538.109 13.7642 517.663 14.5939 510.275 15.1424C501.067 15.8268 495.098 17.0951 494.273 19.2664C493.71 20.7533 493.866 22.2442 495.91 23.6958C498.242 25.3565 502.549 26.6248 510.162 27.3282C518.344 28.0832 526.758 28.2176 535.465 27.9813C557.086 27.3947 573.069 22.5498 570.319 18.0945C569.669 17.0462 567.962 16.0957 564.612 15.2918C559.517 14.067 553.142 13.6352 546.585 13.7642Z" stroke="white" stroke-width="2" stroke-miterlimit="10"/>
<path d="M385.136 73.5986C373.235 73.5958 363.302 72.7024 355.233 70.8203C346.457 68.7726 337.168 66.8159 328.98 64.6622C318.916 62.0157 319.648 58.0561 329.911 55.7694C337.8 54.0123 347.319 52.7793 358.383 52.1533C364.021 51.8342 369.728 51.7419 375.322 52.08C381.792 52.4711 386.617 53.4094 390.387 54.5853C400.994 57.8931 409.832 61.4033 413.483 65.3914C414.733 66.7548 414.877 68.2417 413.82 69.6104C412.339 71.5305 406.045 72.7146 397.4 73.1993C393.418 73.422 389.23 73.4709 385.136 73.5986ZM375.356 61.321C370.95 61.2168 371.009 64.5937 375.315 65.537C376.724 65.8457 378.386 66.1242 380.329 66.3623C382.504 66.6285 384.667 66.6611 386.742 66.3162C388.974 65.9468 390.293 65.4716 389.58 64.8496C387.886 63.3655 384.511 62.1461 377.816 61.4753C376.971 61.3906 376.144 61.3396 375.356 61.321Z" stroke="white" stroke-width="2" stroke-miterlimit="10"/>
<path d="M608.473 45.6503C608.473 46.0111 608.435 46.3721 608.33 46.7172C607.5 49.4373 605.334 52.1015 600.541 54.6409C598.209 55.878 594.903 57.0199 588.602 57.4232C581.82 57.8564 575.019 57.6853 568.506 57.0702C551.779 55.4923 545.56 51.7296 547.573 48.3539C548.654 46.5492 551.41 44.8695 556.486 43.4233C563.249 41.4979 571.6 40.178 583.533 40.2228C598.203 40.2785 608.448 42.462 608.473 45.6503V45.6503ZM578.941 51.0478C581.432 50.6935 581.348 48.6263 578.854 48.2979C577.659 48.1405 576.298 48.0979 575.038 48.2208C570.025 48.7096 568.781 50.2821 573.038 51.0248C574.15 51.219 576.513 51.3249 577.701 51.2C578.133 51.1544 578.548 51.1037 578.941 51.0478Z" stroke="white" stroke-width="2" stroke-miterlimit="10"/>
<path d="M647.165 67.9992C651.31 68.7539 651.216 72.2956 647.027 72.7471V72.7471C643.308 73.149 638.595 72.8584 635.032 72.1455C632.101 71.5589 630.069 70.88 629.319 70.0231C628.556 69.1527 630.357 68.0922 633.363 67.6767C636.807 67.2014 643.058 67.2788 646.621 67.9021C646.804 67.9342 646.986 67.9665 647.165 67.9992Z" stroke="white" stroke-width="2" stroke-miterlimit="10"/>
<path d="M314.916 47.0286C308.359 47.0598 302.058 46.7665 296.782 45.7834C292.469 44.9809 290.094 43.9475 289.769 42.72C289.075 40.0952 294.37 37.947 301.577 35.9739C309.403 33.8325 319.41 32.1976 329.03 30.4745C338.349 28.8043 347.094 27.0023 354.564 24.937C362.977 22.6109 370.897 20.1993 379.46 17.9017C384.492 16.552 390.186 15.3163 398.219 14.7487C414.495 13.5985 433.885 15.892 438.567 19.4823C440.986 21.3358 439.31 23.0794 436.398 24.7876C431.01 27.9447 425.265 31.0733 419.708 34.2182C412.689 38.1887 399.794 40.751 381.31 42.1673C366.609 43.2944 352.338 44.6876 337.831 45.9341C330.549 46.5601 323.098 47.0639 314.916 47.0286ZM411.96 24.5096C412.153 24.1024 412.311 23.6418 412.214 23.2016V23.2016C411.901 21.8165 406.913 20.9597 400.906 21.3969C397.037 21.678 393.018 22.0745 389.999 22.6516C381.417 24.2893 373.353 26.0559 365.002 27.7505C357.945 29.1818 350.832 30.6035 343.606 31.9953C336.08 33.4442 328.23 34.8143 320.841 36.2931C316.828 37.0969 314.191 38.1357 313.109 39.3334C311.828 40.7551 314.528 41.7776 320.773 42.2379C326.067 42.6276 331.274 42.3914 336.005 41.95C349.951 40.6519 363.802 39.3008 377.46 37.8655C385.273 37.0453 392.455 35.9251 397.106 34.2983C400.638 33.064 403.532 31.7156 405.794 30.3455C408.918 28.4622 411.012 26.5089 411.96 24.5096Z" stroke="white" stroke-width="2" stroke-miterlimit="10"/>
<path d="M699.789 75.9585C697.045 73.8808 696.886 69.756 698.363 66.647C698.729 65.8755 699.1 65.1166 699.489 64.3581C699.889 63.5759 700.62 62.7978 701.414 62.0293C703.671 59.8281 711.765 59.4153 719.304 59.7113C729.355 60.1065 735.968 61.4128 739.35 63.5257C742.394 65.4308 741.962 67.3441 740.356 69.2791C738.362 71.6812 735.28 73.9937 728.336 75.9708C725.398 76.8059 721.829 77.4943 717.072 77.8284C709.278 78.3756 702.052 77.6722 699.789 75.9585V75.9585Z" stroke="white" stroke-width="2" stroke-miterlimit="10"/>
<path d="M660.622 49.4633C666.06 49.5462 671.805 50.2197 676.18 51.4459C679.674 52.4249 682.006 53.518 683.006 54.7469C683.887 55.8359 682.068 56.7566 677.618 57.3228C673.136 57.8931 668.092 57.9705 663.148 57.9366C659.472 57.9122 655.784 57.6908 652.184 57.4885C640.533 56.8313 636.338 54.0965 642.333 51.6943C645.839 50.2889 651.19 49.4443 660.622 49.4633Z" stroke="white" stroke-width="2" stroke-miterlimit="10"/>
<path d="M639.101 99.2505C631.082 98.9979 619.593 98.778 610.104 97.1634C605.304 96.3473 603.666 95.1673 602.572 93.9194C600.653 91.7196 601.928 89.5932 605.879 87.559C608.598 86.1604 614.223 85.6417 620.937 86.0151C634.469 86.7674 643.645 88.7255 651.009 91.1737C655.128 92.5439 657.397 94.0783 658.259 95.6792C659.341 97.6808 654.515 99.4257 639.101 99.2505Z" stroke="white" stroke-width="2" stroke-miterlimit="10"/>
<path d="M434.479 85.2044C437.717 85.3388 441.061 85.4013 444.167 85.6213C449.874 86.0273 452.299 87.1448 451.024 88.4172C448.03 91.4073 437.192 92.8629 422.702 92.3768C417.814 92.2125 412.845 91.9708 408.295 91.5621C398.269 90.6618 398.394 88.7879 406.044 87.3635C413.783 85.9241 423.64 85.3062 434.479 85.2044Z" stroke="white" stroke-width="2" stroke-miterlimit="10"/>
<path d="M236.273 87.0733C236.078 87.0627 235.992 86.8212 236.136 86.6886C237.497 85.4302 238.719 84.1637 240.364 82.9232C243.989 80.1884 247.615 77.4495 251.84 74.7568C253.265 73.8511 256.103 73.0024 259.028 72.2651C263.273 71.1951 269.898 71.0023 275.918 71.5902C282.825 72.2637 287.369 73.4641 290.657 74.8777C294.451 76.5112 298.176 78.1611 301.202 79.8652C304.677 81.8193 303.615 83.6293 296.264 85.2086C287.638 87.0607 276.849 88.0656 266.035 89.0528C261.31 89.4846 256.103 89.7127 251.003 89.8892C243.144 90.1609 236.133 89.3753 236.499 87.4238C236.529 87.264 236.436 87.082 236.273 87.0733V87.0733Z" stroke="white" stroke-width="2" stroke-miterlimit="10"/>
<path d="M520.332 97.3277C517.544 97.2164 513.543 97.1566 509.855 96.8918C501.073 96.2604 497.692 94.3376 501.217 92.2791C504.917 90.1187 511.837 88.5707 520.807 87.4463C528.345 86.5012 536.352 85.787 545.322 85.8549C557.623 85.9486 563.624 87.7804 563.03 90.3767C562.074 94.5495 545.291 96.7112 530.508 97.1173C527.526 97.1974 524.526 97.2408 520.332 97.3277Z" stroke="white" stroke-width="2" stroke-miterlimit="10"/>
<path d="M115 17.5772C109.618 17.4944 105.411 16.9688 102.705 15.9681C99.9984 14.9687 100.892 13.976 103.505 13.0201C106.299 11.9962 110.712 11.3458 115.075 10.7008C125.207 9.20305 135.402 7.7243 145.685 6.27542C148.179 5.92373 151.004 5.65623 153.842 5.45661C159.136 5.08319 163.08 5.90744 162.099 7.12275C161.149 8.29869 158.411 9.27773 154.817 10.1427C150.854 11.0973 146.653 12.0044 142.622 12.9454C138.803 13.8348 135.252 14.784 131.246 15.63C126.689 16.5873 121.876 17.5039 115 17.5772Z" stroke="white" stroke-width="2" stroke-miterlimit="10"/>
<path d="M274.955 14.3671C273.301 13.0099 273.198 10.8141 275.271 10.2814C277.653 9.66908 281.353 9.39481 285.844 9.59954C299.952 10.2418 313.528 12.9576 313.96 16.4949C314.322 19.5054 305.309 22.3882 292.42 23.279C287.95 23.5872 283.975 23.0821 282.969 22.0745C281.962 21.0629 281.787 20.0119 280.706 19.0057C279.024 17.4482 276.843 15.9151 274.955 14.3671V14.3671Z" stroke="white" stroke-width="2" stroke-miterlimit="10"/>
<path d="M132.658 71.7328C145.141 71.5549 157.567 71.3512 170 71.2087C177.857 71.1177 185.702 71.1761 192.259 72.3262C197.278 73.2061 198.966 74.4051 198.684 75.7563C198.203 78.085 193.046 80.0228 187.583 81.9306C180.02 84.5717 171.438 87.0472 160.63 89.1003C146.16 91.85 131.69 94.6093 114.413 96.547C101.993 97.9402 91.0851 97.3644 81.359 95.3697C74.6458 93.9928 68.8201 92.4774 64.7509 90.6632C58.7003 87.9678 59.1316 85.1936 62.9007 82.4086C66.7011 79.6045 72.6768 77.0232 81.3215 74.7718C88.466 72.9115 97.8858 71.893 108.981 71.7545C116.857 71.6527 124.776 71.7328 132.658 71.7328ZM105.233 92.6381C105.324 92.637 105.413 92.6676 105.485 92.7242V92.7242C105.563 92.7854 105.66 92.8177 105.759 92.8118C110.274 92.5466 114.937 92.3632 119.257 91.9912C129.039 91.1507 136.796 89.6747 143.822 88.014C152.136 86.0491 158.236 83.8249 160.499 81.1552C162.193 79.1564 158.767 77.7646 149.979 77.0218C138.553 76.055 126.839 75.4521 114.425 75.6585C107.074 75.7807 100.267 76.2179 94.4104 77.1902C83.2405 79.0437 76.8398 81.4974 74.4832 84.5255C71.0429 88.9476 89.0115 92.835 105.233 92.6381Z" stroke="white" stroke-width="2" stroke-miterlimit="10"/>
<path d="M546.585 13.7642C553.142 13.6339 559.518 14.067 564.606 15.2919C567.95 16.0971 569.662 17.0463 570.313 18.0945C573.063 22.5498 557.08 27.3934 535.459 27.9814C526.752 28.2177 518.344 28.0832 510.156 27.3282C502.543 26.6248 498.242 25.3566 495.904 23.6959C493.867 22.2443 493.704 20.7533 494.267 19.2664C495.092 17.0951 501.061 15.8269 510.268 15.1425C517.663 14.5939 538.109 13.7642 546.585 13.7642ZM535.227 19.8747C533.027 19.9005 530.327 20.1246 529.183 20.7357C528.583 21.0575 528.552 21.659 529.477 21.8355C530.971 22.1193 533.465 22.2755 535.527 22.2701C538.565 22.2619 541.803 21.3739 541.572 20.7927C541.359 20.24 539.165 19.8775 535.227 19.8747Z" stroke="white" stroke-width="2" stroke-miterlimit="10"/>
<path d="M375.309 65.536C371.006 64.5931 370.947 61.2166 375.35 61.3204C376.139 61.339 376.969 61.3901 377.816 61.4753C384.511 62.1461 387.886 63.3655 389.58 64.8496C390.293 65.4716 388.974 65.9468 386.742 66.3162C384.667 66.6597 382.504 66.6285 380.329 66.3623C378.383 66.1239 376.719 65.8451 375.309 65.536Z" stroke="white" stroke-width="2" stroke-miterlimit="10"/>
<path d="M578.854 48.2976C581.348 48.6257 581.431 50.6935 578.941 51.0479C578.548 51.1037 578.132 51.1544 577.7 51.2C576.519 51.325 574.15 51.219 573.037 51.0249C568.781 50.2821 570.018 48.7097 575.038 48.2208C576.299 48.098 577.66 48.1405 578.854 48.2976Z" stroke="white" stroke-width="2" stroke-miterlimit="10"/>
<path d="M412.22 23.203C412.317 23.6422 412.153 24.102 411.96 24.5085C411.011 26.5082 408.913 28.462 405.8 30.3468C403.538 31.7156 400.644 33.0653 397.112 34.2997C392.462 35.9264 385.279 37.0467 377.466 37.8669C363.808 39.3022 349.957 40.6533 336.012 41.9514C331.28 42.3914 326.073 42.629 320.779 42.2393C314.534 41.779 311.834 40.7565 313.115 39.3347C314.197 38.1371 316.834 37.0969 320.847 36.2944C328.236 34.8143 336.087 33.4456 343.612 31.9967C350.838 30.6048 357.952 29.1845 365.009 27.7519C373.366 26.0572 381.423 24.2906 390.005 22.653C393.024 22.0773 397.043 21.6794 400.912 21.3983C406.919 20.9611 411.907 21.8179 412.22 23.203V23.203Z" stroke="white" stroke-width="2" stroke-miterlimit="10"/>
<path d="M105.487 92.726C105.414 92.6686 105.324 92.637 105.231 92.6381C89.01 92.8347 71.0429 88.9474 74.4832 84.5242C76.8397 81.4961 83.2341 79.0424 94.4104 77.1888C100.267 76.2179 107.074 75.7807 114.425 75.6571C126.845 75.4494 138.553 76.0536 149.979 77.0205C158.767 77.7646 162.193 79.1551 160.499 81.1539C158.236 83.8222 152.135 86.0464 143.822 88.0126C136.796 89.6733 129.033 91.1494 119.257 91.9899C114.936 92.3619 110.272 92.5453 105.756 92.8107C105.659 92.8164 105.563 92.7863 105.487 92.726V92.726ZM108.862 87.6134C116.582 87.6107 123.295 86.4212 125.97 84.5812C127.433 83.5764 125.545 82.376 121.557 81.7677C113.119 80.4817 101.036 81.234 96.9169 83.3034C92.4726 85.5345 98.242 87.6161 108.862 87.6134Z" stroke="white" stroke-width="2" stroke-miterlimit="10"/>
<path d="M535.227 19.8748C539.165 19.8775 541.359 20.24 541.572 20.7927C541.797 21.3739 538.565 22.2619 535.527 22.2701C533.471 22.2755 530.97 22.1194 529.477 21.8356C528.551 21.6604 528.583 21.0588 529.183 20.7357C530.327 20.1246 533.027 19.9006 535.227 19.8748Z" stroke="white" stroke-width="2" stroke-miterlimit="10"/>
<path d="M108.862 87.6134C98.2419 87.6161 92.4726 85.5345 96.9231 83.3034C101.049 81.234 113.125 80.4817 121.563 81.7677C125.551 82.376 127.433 83.5764 125.976 84.5812C123.295 86.4212 116.581 87.6107 108.862 87.6134Z" stroke="white" stroke-width="2" stroke-miterlimit="10"/>
</g>
</svg>
