<svg width="48" height="55" viewBox="0 0 48 55" fill="none" xmlns="http://www.w3.org/2000/svg">
<g clip-path="url(#clip0_94_627)">
<path d="M24.0035 54.2534C25.1638 54.2534 26.2766 53.7925 27.0971 52.972C27.9176 52.1515 28.3785 51.0387 28.3785 49.8784L28.3785 15.2284L39.8702 26.7201C40.6995 27.4929 41.7965 27.9136 42.9299 27.8936C44.0633 27.8736 45.1447 27.4145 45.9463 26.6129C46.7479 25.8113 47.207 24.7299 47.227 23.5965C47.247 22.463 46.8263 21.3661 46.0535 20.5368L27.0952 1.57842C26.2749 0.759124 25.1629 0.298935 24.0035 0.298935C22.8441 0.298935 21.7321 0.759124 20.9118 1.57842L1.9535 20.5368C1.52366 20.9373 1.1789 21.4203 0.939778 21.9569C0.700658 22.4936 0.572081 23.0729 0.561716 23.6604C0.551351 24.2478 0.659411 24.8313 0.87945 25.3761C1.09949 25.9208 1.427 26.4157 1.84244 26.8311C2.25789 27.2466 2.75275 27.5741 3.29751 27.7941C3.84228 28.0142 4.42578 28.1222 5.01322 28.1119C5.60065 28.1015 6.17998 27.9729 6.71664 27.7338C7.2533 27.4947 7.7363 27.1499 8.13683 26.7201L19.6285 15.2284L19.6285 49.8784C19.6285 52.2934 21.5885 54.2534 24.0035 54.2534Z" fill="#FF0000"/>
</g>
<defs>
<clipPath id="clip0_94_627">
<rect width="48" height="55" fill="white"/>
</clipPath>
</defs>
</svg>
