<svg width="24" height="24" viewBox="0 0 24 24" fill="none" xmlns="http://www.w3.org/2000/svg">
<g clip-path="url(#clip0_421_689)">
<mask id="mask0_421_689" style="mask-type:luminance" maskUnits="userSpaceOnUse" x="0" y="0" width="24" height="24">
<path d="M24 0H0V24H24V0Z" fill="white"/>
</mask>
<g mask="url(#mask0_421_689)">
<path d="M20.0002 14C20.3855 14.0002 20.7558 14.1486 21.0346 14.4144C21.3134 14.6802 21.4792 15.0431 21.4978 15.4279C21.5163 15.8127 21.386 16.1898 21.1341 16.4812C20.8821 16.7726 20.5277 16.9558 20.1442 16.993L20.0002 17H7.62124L9.06124 18.44C9.334 18.7118 9.4918 19.0781 9.50197 19.463C9.51213 19.8479 9.37388 20.222 9.11584 20.5078C8.8578 20.7936 8.49973 20.9692 8.11577 20.9983C7.73181 21.0274 7.35138 20.9077 7.05324 20.664L6.93924 20.561L3.11024 16.731C2.13624 15.757 2.77024 14.114 4.10124 14.006L4.24124 14H20.0002ZM14.9402 3.44C15.2026 3.17739 15.553 3.0214 15.9237 3.00219C16.2945 2.98298 16.6591 3.10192 16.9472 3.336L17.0612 3.439L20.8902 7.269C21.8642 8.243 21.2302 9.886 19.8992 9.994L19.7592 10H4.00024C3.61502 9.99981 3.24464 9.85142 2.96585 9.58559C2.68706 9.31975 2.52122 8.95685 2.50271 8.57208C2.4842 8.18731 2.61443 7.81016 2.86641 7.51879C3.11839 7.22742 3.47282 7.04417 3.85624 7.007L4.00024 7H16.3792L14.9392 5.56C14.6583 5.27875 14.5006 4.8975 14.5006 4.5C14.5006 4.1025 14.6593 3.72125 14.9402 3.44Z" fill="#395466"/>
</g>
</g>
<defs>
<clipPath id="clip0_421_689">
<rect width="24" height="24" fill="white"/>
</clipPath>
</defs>
</svg>
