<svg width="50" height="50" viewBox="0 0 50 50" fill="none" xmlns="http://www.w3.org/2000/svg">
<path d="M13.3939 5.02711C13.6566 4.71362 13.7859 4.30965 13.754 3.90192C13.7221 3.49418 13.5317 3.11519 13.2235 2.8463C12.9154 2.57741 12.5141 2.44007 12.1058 2.46374C11.6975 2.48742 11.3148 2.67023 11.0398 2.97294L8.34809 6.05627C6.8218 7.80537 5.959 10.0354 5.91059 12.3563L5.79184 18.0209C5.78327 18.4353 5.93968 18.8361 6.22665 19.1352C6.51362 19.4343 6.90765 19.6071 7.32205 19.6156C7.73645 19.6242 8.13728 19.4678 8.43636 19.1808C8.73544 18.8939 8.90827 18.4998 8.91684 18.0854L9.0335 12.4229C9.06693 10.8349 9.65762 9.30911 10.7023 8.11252L13.3939 5.02711Z" fill="white"/>
<path fill-rule="evenodd" clip-rule="evenodd" d="M12.9936 16.0417C13.1335 13.8128 14.1176 11.721 15.7455 10.1922C17.3734 8.66334 19.5228 7.81237 21.7561 7.81252H22.9165V6.25002C22.9165 5.69749 23.136 5.16758 23.5267 4.77688C23.9174 4.38618 24.4473 4.16669 24.9998 4.16669C25.5523 4.16669 26.0823 4.38618 26.473 4.77688C26.8637 5.16758 27.0831 5.69749 27.0831 6.25002V7.81252H28.2436C30.4768 7.81237 32.6262 8.66334 34.2541 10.1922C35.8821 11.721 36.8662 13.8128 37.0061 16.0417L37.4665 23.4042C37.6419 26.2114 38.5845 28.9166 40.1915 31.225C40.5235 31.7022 40.7264 32.2573 40.7803 32.8361C40.8343 33.4149 40.7376 33.9979 40.4996 34.5283C40.2615 35.0587 39.8903 35.5184 39.422 35.8628C38.9536 36.2073 38.4041 36.4246 37.8269 36.4938L30.729 37.3438V39.5834C30.729 41.1028 30.1254 42.5601 29.0509 43.6345C27.9765 44.7089 26.5193 45.3125 24.9998 45.3125C23.4803 45.3125 22.0231 44.7089 20.9487 43.6345C19.8743 42.5601 19.2706 41.1028 19.2706 39.5834V37.3438L12.1727 36.4917C11.5958 36.4223 11.0467 36.205 10.5787 35.8607C10.1106 35.5164 9.73957 35.0569 9.50159 34.5268C9.2636 33.9967 9.16677 33.4141 9.22048 32.8356C9.2742 32.257 9.47664 31.7022 9.80815 31.225C11.415 28.9165 12.3576 26.2114 12.5331 23.4042L12.9936 16.0438V16.0417ZM22.3956 39.5834C22.3956 40.274 22.67 40.9364 23.1584 41.4248C23.6468 41.9132 24.3091 42.1875 24.9998 42.1875C25.6905 42.1875 26.3529 41.9132 26.8412 41.4248C27.3296 40.9364 27.604 40.274 27.604 39.5834V38.0209H22.3956V39.5834Z" fill="white"/>
<path d="M36.7562 2.8229C36.4441 3.09535 36.2529 3.48059 36.2248 3.89393C36.1967 4.30727 36.3338 4.71485 36.6062 5.02707L39.2978 8.1104C40.3422 9.30783 40.9321 10.8344 40.9645 12.4229L41.0833 18.0833C41.0875 18.2885 41.1321 18.4909 41.2145 18.6788C41.297 18.8668 41.4156 19.0366 41.5637 19.1787C41.7118 19.3208 41.8864 19.4323 42.0776 19.507C42.2688 19.5816 42.4729 19.6178 42.678 19.6135C42.8832 19.6093 43.0856 19.5647 43.2735 19.4822C43.4615 19.3998 43.6313 19.2811 43.7734 19.1331C43.9155 18.985 44.0271 18.8103 44.1017 18.6191C44.1763 18.4279 44.2125 18.2239 44.2083 18.0187L44.0895 12.3562C44.0411 10.0353 43.1783 7.80534 41.652 6.05624L38.9603 2.9729C38.6879 2.6608 38.3026 2.46966 37.8893 2.44154C37.476 2.41341 37.0684 2.55058 36.7562 2.8229Z" fill="white"/>
<circle cx="36.5" cy="31.5" r="11.5" fill="#FF0000"/>
</svg>
