<svg width="225" height="79" viewBox="0 0 225 79" fill="none" xmlns="http://www.w3.org/2000/svg">
<g clip-path="url(#clip0_133_1253)">
<path fill-rule="evenodd" clip-rule="evenodd" d="M78.0942 39.5286C78.0942 61.09 60.746 78.5689 39.3459 78.5689C17.9448 78.5689 0.596191 61.09 0.596191 39.5286C0.596191 17.9672 17.9448 0.488318 39.3459 0.488318C60.746 0.488318 78.0942 17.9672 78.0942 39.5286Z" fill="#ED342B"/>
<path fill-rule="evenodd" clip-rule="evenodd" d="M39.3452 56.2515C30.678 36.4572 24.323 17.9656 24.323 17.9656H11.0361C11.0361 17.9656 19.1231 41.6997 34.1449 71.3806H44.5456C59.5674 41.6997 67.6538 17.9656 67.6538 17.9656H54.367C54.367 17.9656 48.0125 36.4572 39.3452 56.2515Z" fill="#FEFEFE"/>
<path fill-rule="evenodd" clip-rule="evenodd" d="M206.221 37.4925C198.71 37.4925 198.133 45.6419 198.133 45.6419L214.307 45.6419C214.307 45.6419 213.73 37.4925 206.221 37.4925ZM224.129 53.7899L198.133 53.7899C198.133 53.7899 198.71 62.522 210.265 62.522C216.041 62.522 221.818 60.774 221.818 60.774L222.974 70.0867C222.974 70.0867 217.197 72.4164 209.109 72.4164C197.555 72.4164 187.156 66.5952 187.156 50.2978C187.156 37.4925 195.245 29.3436 206.799 29.3436C224.129 29.3436 225.284 46.8053 224.129 53.7899ZM135.732 40.0368L137.521 30.4263C137.521 30.4263 123.708 26.2035 112.481 34.0292V72.4711H124.404V41.2369C129.173 37.6345 135.732 40.0368 135.732 40.0368ZM86.0338 37.4925C78.5241 37.4925 77.9468 45.6419 77.9468 45.6419H94.1217C94.1217 45.6419 93.5449 37.4925 86.0338 37.4925ZM103.942 53.7899H77.9468C77.9468 53.7899 78.5241 62.522 90.078 62.522C95.8537 62.522 101.631 60.774 101.631 60.774L102.788 70.0867C102.788 70.0867 97.0099 72.4164 88.9219 72.4164C77.368 72.4164 66.9688 66.5952 66.9688 50.2978C66.9688 37.4925 75.0572 29.3436 86.6111 29.3436C103.942 29.3436 105.097 46.8053 103.942 53.7899ZM164.829 57.7789C158.774 43.1383 155.749 29.3506 155.749 29.3506L143.643 29.3521C143.643 29.3521 149.696 52.8984 159.988 72.4092H169.669C179.961 52.8984 186.015 29.3555 186.015 29.3555H173.909C173.909 29.3555 170.883 43.1383 164.829 57.7789Z" fill="#03435F"/>
</g>
<defs>
<clipPath id="clip0_133_1253">
<rect width="225" height="79" fill="white"/>
</clipPath>
</defs>
</svg>
