<svg width="117" height="76" viewBox="0 0 117 76" fill="none" xmlns="http://www.w3.org/2000/svg">
<g clip-path="url(#clip0_133_1258)">
<path d="M117 0H0V76H117V0Z" fill="#0E4595"/>
<path d="M43.9801 53.007L48.9843 23.2514H56.9883L51.9805 53.007H43.9801ZM80.8966 23.8929C79.3111 23.29 76.8261 22.6431 73.7233 22.6431C65.8146 22.6431 60.2436 26.6787 60.1963 32.4628C60.1515 36.7385 64.1734 39.1237 67.2091 40.5471C70.3248 42.0055 71.3719 42.9356 71.3572 44.2381C71.3376 46.2325 68.8693 47.1437 66.5689 47.1437C63.3654 47.1437 61.6635 46.6927 59.0349 45.5818L58.0035 45.109L56.8801 51.7701C58.7496 52.6007 62.2066 53.3202 65.7958 53.3575C74.2093 53.3575 79.6708 49.3681 79.7332 43.1914C79.7631 39.8065 77.6308 37.2306 73.0131 35.1068C70.2156 33.7305 68.5023 32.8118 68.5204 31.4181C68.5204 30.1813 69.9706 28.8586 73.104 28.8586C75.7213 28.8175 77.6175 29.3959 79.0947 29.9986L79.8118 30.3421L80.8966 23.8929ZM101.493 23.251H95.3083C93.3924 23.251 91.9585 23.781 91.1172 25.7185L79.2306 52.9873H87.6352C87.6352 52.9873 89.0092 49.3206 89.32 48.5158C90.2388 48.5158 98.4033 48.5286 99.5707 48.5286C99.8101 49.5702 100.544 52.9873 100.544 52.9873H107.971L101.493 23.2501V23.251ZM91.6804 42.4653C92.3422 40.7509 94.8694 34.1474 94.8694 34.1474C94.822 34.2267 95.5263 32.4246 95.9305 31.3074L96.4713 33.873C96.4713 33.873 98.0041 40.9758 98.3244 42.4653H91.6804ZM37.1854 23.251L29.3494 43.543L28.5144 39.4192C27.0556 34.6657 22.5106 29.5157 17.4297 26.9373L24.5946 52.9597L33.063 52.95L45.6636 23.2507H37.1854" fill="white"/>
<path d="M22.0381 23.2499H9.13194L9.02979 23.869C19.0705 26.332 25.7143 32.2842 28.4728 39.4353L25.6663 25.7614C25.1818 23.8774 23.7767 23.3151 22.0384 23.2493" fill="#F2AE14"/>
</g>
<defs>
<clipPath id="clip0_133_1258">
<rect width="117" height="76" fill="white"/>
</clipPath>
</defs>
</svg>
