<svg width="20" height="20" viewBox="0 0 20 20" fill="none" xmlns="http://www.w3.org/2000/svg">
<path d="M18.3332 9.99999V14.1667C18.3332 16.6667 16.6665 18.3333 14.1665 18.3333H5.83317C3.33317 18.3333 1.6665 16.6667 1.6665 14.1667V9.99999C1.6665 7.73333 3.03317 6.14999 5.15817 5.88333C5.37484 5.84999 5.59984 5.83333 5.83317 5.83333H14.1665C14.3832 5.83333 14.5915 5.84165 14.7915 5.87498C16.9415 6.12498 18.3332 7.71666 18.3332 9.99999Z" stroke="#EAEAEA" stroke-width="1.5" stroke-linecap="round" stroke-linejoin="round"/>
<path d="M14.793 5.875C14.593 5.84167 14.3847 5.83335 14.168 5.83335H5.83467C5.60133 5.83335 5.37633 5.85001 5.15967 5.88335C5.27633 5.65001 5.443 5.43335 5.643 5.23335L8.35134 2.51667C9.493 1.38334 11.343 1.38334 12.4847 2.51667L13.943 3.99169C14.4763 4.51669 14.7597 5.18334 14.793 5.875Z" stroke="#EAEAEA" stroke-width="1.5" stroke-linecap="round" stroke-linejoin="round"/>
<path d="M18.3332 10.4167H15.8332C14.9165 10.4167 14.1665 11.1667 14.1665 12.0833C14.1665 13 14.9165 13.75 15.8332 13.75H18.3332" stroke="#EAEAEA" stroke-width="1.5" stroke-linecap="round" stroke-linejoin="round"/>
</svg>
