<svg width="20" height="20" viewBox="0 0 20 20" fill="none" xmlns="http://www.w3.org/2000/svg">
<g clip-path="url(#clip0_421_695)">
<path d="M18.3332 9.99997V14.1667C18.3332 16.6667 16.6665 18.3333 14.1665 18.3333H5.83317C3.33317 18.3333 1.6665 16.6667 1.6665 14.1667V9.99997C1.6665 7.73331 3.03317 6.14997 5.15817 5.88331C5.37484 5.84997 5.59984 5.83331 5.83317 5.83331H14.1665C14.3832 5.83331 14.5915 5.84163 14.7915 5.87496C16.9415 6.12496 18.3332 7.71664 18.3332 9.99997Z" stroke="#395466" stroke-width="1.5" stroke-linecap="round" stroke-linejoin="round"/>
<path d="M14.793 5.87501C14.593 5.84168 14.3847 5.83336 14.168 5.83336H5.83467C5.60133 5.83336 5.37633 5.85002 5.15967 5.88336C5.27633 5.65002 5.443 5.43336 5.643 5.23336L8.35134 2.51668C9.493 1.38335 11.343 1.38335 12.4847 2.51668L13.943 3.9917C14.4763 4.5167 14.7597 5.18335 14.793 5.87501Z" stroke="#395466" stroke-width="1.5" stroke-linecap="round" stroke-linejoin="round"/>
<path d="M18.3332 10.4167H15.8332C14.9165 10.4167 14.1665 11.1667 14.1665 12.0833C14.1665 13 14.9165 13.75 15.8332 13.75H18.3332" stroke="#395466" stroke-width="1.5" stroke-linecap="round" stroke-linejoin="round"/>
</g>
<defs>
<clipPath id="clip0_421_695">
<rect width="20" height="20" fill="white"/>
</clipPath>
</defs>
</svg>
